M48
; DRILL file KiCad 10.0.0 date 2026-09-18T09:45:57
; FORMAT={-:-/ absolute / metric / decimal}
; #@! TF.CreationDate,2026-09-18T09:45:57+10:00
; #@! TF.GenerationSoftware,Kicad,Pcbnew,10.0.0
; #@! TF.FileFunction,Plated,1,4,PTH
FMAT,2
METRIC
; #@! TA.AperFunction,Plated,PTH,ViaDrill
T1C0.300
%
G90
G05
T1
X97.028Y-93.218
X97.028Y-98.552
X97.536Y-91.186
X97.79Y-101.092
X98.552Y-85.344
X99.06Y-106.934
X99.568Y-82.804
X102.362Y-77.978
X104.648Y-75.438
X108.204Y-70.866
X142.24Y-75.946
X142.24Y-90.678
X144.78Y-75.946
X144.78Y-135.89
X147.32Y-75.946
X147.32Y-90.678
X149.606Y-97.282
X149.86Y-90.678
X152.654Y-101.092
X152.654Y-102.362
X154.94Y-75.946
X154.94Y-84.582
X154.94Y-90.424
X157.48Y-84.582
X157.48Y-90.424
X160.02Y-84.582
X160.06Y-63.71
X160.27Y-135.89
X162.56Y-63.71
X191.262Y-69.85
X196.088Y-74.168
X197.612Y-75.438
X201.375Y-79.295
X202.692Y-81.788
X204.47Y-103.886
X204.724Y-88.138
X204.724Y-89.662
X205.74Y-96.012
X205.994Y-97.79
M30
