M48
; DRILL file KiCad 10.0.0 date 2026-09-27T19:40:25
; FORMAT={-:-/ absolute / metric / decimal}
; #@! TF.CreationDate,2026-09-27T19:40:25+10:00
; #@! TF.GenerationSoftware,Kicad,Pcbnew,10.0.0
; #@! TF.FileFunction,Plated,1,4,PTH
FMAT,2
METRIC
; #@! TA.AperFunction,Plated,PTH,ViaDrill
T1C0.300
%
G90
G05
T1
X112.538Y-91.692
X113.778Y-86.461
X114.265Y-100.82
X116.31Y-106.016
X118.055Y-79.317
X119.132Y-113.562
X121.942Y-118.392
X122.464Y-75.665
X144.0Y-82.0
X151.347Y-83.229
X151.706Y-92.713
X159.0Y-82.0
X181.498Y-117.744
X181.637Y-76.651
X184.418Y-112.808
X185.601Y-80.203
X186.591Y-106.654
X188.5Y-87.0
X188.5Y-101.5
X189.755Y-92.017
M30
