%TF.GenerationSoftware,KiCad,Pcbnew,10.0.0*%
%TF.CreationDate,2026-09-27T19:40:20+10:00*%
%TF.ProjectId,USRC_Keychain_Workshop,55535243-5f4b-4657-9963-6861696e5f57,rev?*%
%TF.SameCoordinates,Original*%
%TF.FileFunction,Legend,Bot*%
%TF.FilePolarity,Positive*%
%FSLAX46Y46*%
G04 Gerber Fmt 4.6, Leading zero omitted, Abs format (unit mm)*
G04 Created by KiCad (PCBNEW 10.0.0) date 2026-09-27 19:40:20*
%MOMM*%
%LPD*%
G01*
G04 APERTURE LIST*
%ADD10C,0.500000*%
%ADD11C,0.150000*%
%ADD12C,0.127000*%
%ADD13C,0.120000*%
%ADD14C,0.240000*%
G04 APERTURE END LIST*
D10*
G36*
X163044905Y-84314145D02*
G01*
X163044905Y-81729445D01*
X163045272Y-81729445D01*
X164110842Y-84525170D01*
X164281018Y-84525170D01*
X165281010Y-81733475D01*
X165281193Y-81733475D01*
X165281193Y-84314145D01*
X164912447Y-84314145D01*
X164912447Y-84490000D01*
X165887342Y-84490000D01*
X165887342Y-84314145D01*
X165477381Y-84314145D01*
X165477381Y-81676322D01*
X165887342Y-81676322D01*
X165887342Y-81500467D01*
X164928567Y-81500467D01*
X164074023Y-83871577D01*
X164073839Y-83871577D01*
X163163974Y-81500467D01*
X162223700Y-81500467D01*
X162223700Y-81676322D01*
X162633478Y-81676322D01*
X162633478Y-84314145D01*
X162223700Y-84314145D01*
X162223700Y-84490000D01*
X163413651Y-84490000D01*
X163413651Y-84314145D01*
X163044905Y-84314145D01*
G37*
G36*
X161270807Y-82682852D02*
G01*
X161414218Y-82710385D01*
X161543743Y-82755838D01*
X161643562Y-82810769D01*
X161725906Y-82879569D01*
X161782597Y-82954384D01*
X161817855Y-83037531D01*
X161829309Y-83121812D01*
X161811540Y-83218532D01*
X161764096Y-83287775D01*
X161694303Y-83328258D01*
X161612421Y-83341081D01*
X161522199Y-83325312D01*
X161456533Y-83280814D01*
X161414119Y-83213860D01*
X161399563Y-83130239D01*
X161423560Y-83022161D01*
X161492803Y-82923609D01*
X161437795Y-82891216D01*
X161357615Y-82861877D01*
X161267968Y-82843519D01*
X161161427Y-82836964D01*
X161054784Y-82846646D01*
X160977683Y-82872348D01*
X160922740Y-82911153D01*
X160884314Y-82965947D01*
X160857898Y-83049216D01*
X160847636Y-83171821D01*
X160848735Y-83319282D01*
X160851666Y-83481948D01*
X161199371Y-83507695D01*
X161461651Y-83563457D01*
X161656018Y-83641866D01*
X161783601Y-83729089D01*
X161869447Y-83829269D01*
X161920375Y-83944468D01*
X161937936Y-84079672D01*
X161928910Y-84180248D01*
X161902765Y-84269631D01*
X161859089Y-84349821D01*
X161798900Y-84418009D01*
X161723817Y-84472489D01*
X161630739Y-84514363D01*
X161527220Y-84539663D01*
X161405425Y-84548618D01*
X161253567Y-84534146D01*
X161105739Y-84486519D01*
X160967254Y-84397493D01*
X160845071Y-84263403D01*
X160843239Y-84263403D01*
X160820525Y-84364153D01*
X160795990Y-84408466D01*
X160759525Y-84445853D01*
X160712332Y-84474340D01*
X160645769Y-84496960D01*
X160569396Y-84509680D01*
X160464785Y-84514546D01*
X160347548Y-84510333D01*
X160182135Y-84489084D01*
X160182135Y-84324403D01*
X160323368Y-84337592D01*
X160412761Y-84322937D01*
X160439769Y-84303635D01*
X160459656Y-84273845D01*
X160479439Y-84179506D01*
X160483469Y-84029296D01*
X160482615Y-83838787D01*
X160851849Y-83838787D01*
X160864135Y-83975797D01*
X160897461Y-84080221D01*
X160949910Y-84169546D01*
X161011767Y-84237025D01*
X161083667Y-84288945D01*
X161158312Y-84323121D01*
X161234835Y-84343220D01*
X161298813Y-84349316D01*
X161402132Y-84329444D01*
X161477965Y-84272379D01*
X161524750Y-84182009D01*
X161542995Y-84037540D01*
X161536169Y-83949698D01*
X161516983Y-83876156D01*
X161479807Y-83812408D01*
X161416233Y-83756538D01*
X161332332Y-83714849D01*
X161205207Y-83679602D01*
X161058505Y-83658451D01*
X160851849Y-83646079D01*
X160851849Y-83838787D01*
X160482615Y-83838787D01*
X160482554Y-83825232D01*
X160479439Y-83596254D01*
X160476325Y-83389991D01*
X160475226Y-83255535D01*
X160486241Y-83097525D01*
X160515710Y-82978197D01*
X160567055Y-82875778D01*
X160636243Y-82798496D01*
X160723366Y-82741307D01*
X160830966Y-82701959D01*
X160950168Y-82680548D01*
X161093832Y-82672833D01*
X161270807Y-82682852D01*
G37*
G36*
X158885755Y-81676322D02*
G01*
X158557859Y-81676322D01*
X158557859Y-82957032D01*
X158651831Y-82838889D01*
X158774563Y-82748670D01*
X158919491Y-82692513D01*
X159092934Y-82672833D01*
X159274189Y-82691903D01*
X159434569Y-82747388D01*
X159577739Y-82835523D01*
X159698900Y-82950354D01*
X159795662Y-83088579D01*
X159869077Y-83253337D01*
X159913604Y-83432195D01*
X159928794Y-83626113D01*
X159914898Y-83812110D01*
X159874206Y-83983684D01*
X159806117Y-84141902D01*
X159714288Y-84276409D01*
X159597667Y-84388215D01*
X159456184Y-84475162D01*
X159295589Y-84529590D01*
X159107222Y-84548618D01*
X158952250Y-84534146D01*
X158805338Y-84483222D01*
X158671981Y-84387784D01*
X158612677Y-84323223D01*
X158557859Y-84243926D01*
X158557859Y-84490000D01*
X157869827Y-84490000D01*
X157869827Y-84314145D01*
X158177206Y-84314145D01*
X158177206Y-83595338D01*
X158557859Y-83595338D01*
X158580390Y-83880186D01*
X158612281Y-84014480D01*
X158660624Y-84129680D01*
X158728843Y-84229001D01*
X158816512Y-84306085D01*
X158924281Y-84354958D01*
X159068387Y-84372763D01*
X159162935Y-84364773D01*
X159247356Y-84341622D01*
X159321744Y-84298302D01*
X159387491Y-84226400D01*
X159437240Y-84132486D01*
X159478715Y-83994858D01*
X159502222Y-83836398D01*
X159511322Y-83613839D01*
X159501925Y-83385880D01*
X159477800Y-83225860D01*
X159434917Y-83087294D01*
X159383461Y-82993218D01*
X159315860Y-82921573D01*
X159240212Y-82879096D01*
X159154874Y-82856473D01*
X159060144Y-82848688D01*
X158953833Y-82858528D01*
X158858644Y-82887156D01*
X158773962Y-82936915D01*
X158700008Y-83012636D01*
X158642534Y-83109295D01*
X158595594Y-83243262D01*
X158568160Y-83395210D01*
X158557859Y-83595338D01*
X158177206Y-83595338D01*
X158177206Y-81500467D01*
X158885755Y-81500467D01*
X158885755Y-81676322D01*
G37*
G36*
X156924921Y-82692271D02*
G01*
X157092035Y-82748487D01*
X157241067Y-82837497D01*
X157366442Y-82952185D01*
X157467035Y-83090484D01*
X157542847Y-83254070D01*
X157588947Y-83431718D01*
X157604579Y-83622083D01*
X157589426Y-83808160D01*
X157544862Y-83980753D01*
X157471033Y-84139646D01*
X157371571Y-84275493D01*
X157246526Y-84387780D01*
X157094966Y-84475162D01*
X156924143Y-84529550D01*
X156723656Y-84548618D01*
X156526937Y-84529592D01*
X156364814Y-84476036D01*
X156230163Y-84390165D01*
X156120516Y-84273094D01*
X156034445Y-84121707D01*
X155972976Y-83928546D01*
X156056324Y-83901985D01*
X156144068Y-83886964D01*
X156184472Y-84014840D01*
X156231812Y-84113560D01*
X156290985Y-84198338D01*
X156356376Y-84263037D01*
X156431521Y-84312537D01*
X156515561Y-84346568D01*
X156605611Y-84366088D01*
X156703140Y-84372763D01*
X156807681Y-84364970D01*
X156898595Y-84342721D01*
X156979159Y-84300052D01*
X157050087Y-84228965D01*
X157104157Y-84134683D01*
X157149371Y-83995408D01*
X157175095Y-83834140D01*
X157185092Y-83605413D01*
X157185092Y-83592224D01*
X157183443Y-83552107D01*
X155946964Y-83552107D01*
X155963083Y-83376252D01*
X156373046Y-83376252D01*
X157172269Y-83376252D01*
X157151248Y-83226105D01*
X157120795Y-83113935D01*
X157076740Y-83016598D01*
X157026823Y-82947423D01*
X156965868Y-82894740D01*
X156898961Y-82861510D01*
X156825340Y-82843242D01*
X156744173Y-82836964D01*
X156667379Y-82842507D01*
X156599825Y-82858396D01*
X156539485Y-82888640D01*
X156486252Y-82938996D01*
X156444533Y-83005984D01*
X156408583Y-83104410D01*
X156385930Y-83218098D01*
X156373046Y-83376252D01*
X155963083Y-83376252D01*
X155964528Y-83360493D01*
X156006132Y-83194352D01*
X156073326Y-83043419D01*
X156162020Y-82918114D01*
X156273547Y-82815445D01*
X156407667Y-82737679D01*
X156558722Y-82689601D01*
X156733914Y-82672833D01*
X156924921Y-82692271D01*
G37*
G36*
X154535912Y-81676322D02*
G01*
X154125950Y-81676322D01*
X154125950Y-84314145D01*
X154535912Y-84314145D01*
X154535912Y-84490000D01*
X153249241Y-84490000D01*
X152925046Y-84470513D01*
X152683757Y-84418925D01*
X152472967Y-84332901D01*
X152318859Y-84230064D01*
X152199357Y-84101712D01*
X152122854Y-83960054D01*
X152079407Y-83805549D01*
X152065901Y-83657070D01*
X152523473Y-83657070D01*
X152534050Y-83834814D01*
X152562124Y-83967930D01*
X152613855Y-84082428D01*
X152688520Y-84169980D01*
X152787219Y-84234361D01*
X152922077Y-84280622D01*
X153076198Y-84304941D01*
X153282030Y-84314145D01*
X153714706Y-84314145D01*
X153714706Y-83024542D01*
X153398717Y-83024542D01*
X153139389Y-83034853D01*
X152956699Y-83061362D01*
X152799097Y-83110709D01*
X152690535Y-83175118D01*
X152609626Y-83262456D01*
X152559010Y-83370940D01*
X152533075Y-83496175D01*
X152523473Y-83657070D01*
X152065901Y-83657070D01*
X152064968Y-83646812D01*
X152075539Y-83511577D01*
X152106367Y-83388342D01*
X152159971Y-83274959D01*
X152239724Y-83172920D01*
X152342313Y-83086946D01*
X152477128Y-83012452D01*
X152630789Y-82957645D01*
X152820357Y-82917787D01*
X152660320Y-82867751D01*
X152527869Y-82804724D01*
X152412502Y-82725286D01*
X152323621Y-82637662D01*
X152254119Y-82537964D01*
X152206751Y-82432131D01*
X152178782Y-82319736D01*
X152170860Y-82220556D01*
X152621842Y-82220556D01*
X152633519Y-82393438D01*
X152664523Y-82522074D01*
X152721492Y-82630816D01*
X152806123Y-82714965D01*
X152916404Y-82775052D01*
X153070272Y-82818279D01*
X153245028Y-82840328D01*
X153478768Y-82848688D01*
X153714706Y-82848688D01*
X153714706Y-81676322D01*
X153327093Y-81676322D01*
X153116813Y-81685715D01*
X152969155Y-81709844D01*
X152842487Y-81753891D01*
X152755198Y-81810778D01*
X152690814Y-81886469D01*
X152650235Y-81980221D01*
X152629446Y-82087127D01*
X152621842Y-82220556D01*
X152170860Y-82220556D01*
X152169382Y-82202055D01*
X152184362Y-82057748D01*
X152228550Y-81925450D01*
X152304519Y-81807690D01*
X152421807Y-81702334D01*
X152569526Y-81620651D01*
X152772051Y-81553956D01*
X153000431Y-81515063D01*
X153300348Y-81500467D01*
X154535912Y-81500467D01*
X154535912Y-81676322D01*
G37*
G36*
X150168117Y-82907306D02*
G01*
X150451866Y-82907306D01*
X150451866Y-82731451D01*
X149673709Y-82731451D01*
X149673709Y-82907306D01*
X149979073Y-82907306D01*
X150768588Y-84697178D01*
X150984926Y-85162278D01*
X151079834Y-85335251D01*
X151158766Y-85454637D01*
X151242734Y-85551095D01*
X151316303Y-85606861D01*
X151396433Y-85639669D01*
X151482998Y-85650642D01*
X151551227Y-85644953D01*
X151609028Y-85628843D01*
X151703183Y-85570957D01*
X151761985Y-85486877D01*
X151781952Y-85389241D01*
X151767297Y-85303878D01*
X151722967Y-85230055D01*
X151652442Y-85178032D01*
X151556821Y-85158248D01*
X151466329Y-85176017D01*
X151399834Y-85224010D01*
X151359717Y-85292887D01*
X151345978Y-85372937D01*
X151348726Y-85411406D01*
X151349275Y-85411222D01*
X151274151Y-85318045D01*
X151157117Y-85106957D01*
X150876666Y-84497876D01*
X151589244Y-82907306D01*
X151900837Y-82907306D01*
X151900837Y-82731451D01*
X150888939Y-82731451D01*
X150888939Y-82907306D01*
X151172688Y-82907306D01*
X150669670Y-84034426D01*
X150669120Y-84034426D01*
X150168117Y-82907306D01*
G37*
G36*
X147740038Y-83520233D02*
G01*
X147724834Y-83851060D01*
X147695516Y-83998674D01*
X147641486Y-84121437D01*
X147557661Y-84223324D01*
X147434673Y-84304802D01*
X147339284Y-84340042D01*
X147212654Y-84363860D01*
X147047060Y-84372763D01*
X146808041Y-84353374D01*
X146639663Y-84302787D01*
X146500842Y-84217912D01*
X146400976Y-84109897D01*
X146331633Y-83978254D01*
X146288319Y-83819003D01*
X146267148Y-83647125D01*
X146259743Y-83454654D01*
X146259743Y-81676322D01*
X146669705Y-81676322D01*
X146669705Y-81500467D01*
X145655792Y-81500467D01*
X145655792Y-81676322D01*
X146063555Y-81676322D01*
X146063555Y-83433222D01*
X146075618Y-83700157D01*
X146108801Y-83918654D01*
X146148289Y-84054472D01*
X146202859Y-84171148D01*
X146272016Y-84271280D01*
X146357666Y-84357035D01*
X146462631Y-84429011D01*
X146589837Y-84487252D01*
X146725108Y-84525743D01*
X146892549Y-84551103D01*
X147098168Y-84560341D01*
X147363415Y-84544259D01*
X147573709Y-84500441D01*
X147702123Y-84451784D01*
X147810546Y-84389778D01*
X147901605Y-84314694D01*
X148011349Y-84174016D01*
X148090465Y-83993942D01*
X148134987Y-83789025D01*
X148151282Y-83531591D01*
X148151282Y-81676322D01*
X148561243Y-81676322D01*
X148561243Y-81500467D01*
X147330076Y-81500467D01*
X147330076Y-81676322D01*
X147740038Y-81676322D01*
X147740038Y-83520233D01*
G37*
G36*
X145358853Y-83587278D02*
G01*
X145204064Y-83587278D01*
X145167983Y-83814497D01*
X145113939Y-83981852D01*
X145036499Y-84124897D01*
X144948342Y-84228965D01*
X144842480Y-84307259D01*
X144722845Y-84358475D01*
X144593049Y-84386611D01*
X144453201Y-84396210D01*
X144289194Y-84384674D01*
X144161209Y-84353346D01*
X144049042Y-84300786D01*
X143962456Y-84234094D01*
X143895319Y-84150382D01*
X143849066Y-84050546D01*
X143822709Y-83939881D01*
X143813529Y-83814424D01*
X143827830Y-83664430D01*
X143866285Y-83553206D01*
X143929066Y-83458559D01*
X144013381Y-83378450D01*
X144114645Y-83312529D01*
X144240526Y-83253154D01*
X144533068Y-83142329D01*
X144838066Y-83020879D01*
X144975836Y-82948413D01*
X145094521Y-82861877D01*
X145193926Y-82756701D01*
X145271109Y-82629052D01*
X145318618Y-82481086D01*
X145336139Y-82286685D01*
X145320214Y-82101096D01*
X145274223Y-81936807D01*
X145197024Y-81789303D01*
X145090491Y-81665881D01*
X144956654Y-81567752D01*
X144788241Y-81491857D01*
X144599262Y-81446459D01*
X144369120Y-81430125D01*
X144174031Y-81439284D01*
X143973630Y-81466945D01*
X143777442Y-81511092D01*
X143590779Y-81568794D01*
X143565867Y-82321123D01*
X143720655Y-82321123D01*
X143752806Y-82108305D01*
X143802721Y-81958239D01*
X143874880Y-81832013D01*
X143955861Y-81742451D01*
X144051630Y-81676485D01*
X144156812Y-81635289D01*
X144268606Y-81613330D01*
X144383408Y-81605980D01*
X144532554Y-81616006D01*
X144652137Y-81643532D01*
X144757878Y-81690006D01*
X144840631Y-81750511D01*
X144905901Y-81827119D01*
X144953105Y-81919954D01*
X144980751Y-82024064D01*
X144990474Y-82145451D01*
X144976330Y-82287765D01*
X144937901Y-82395312D01*
X144874829Y-82487275D01*
X144788607Y-82567137D01*
X144685208Y-82633672D01*
X144556149Y-82695547D01*
X144256463Y-82813517D01*
X143961723Y-82935882D01*
X143823620Y-83009710D01*
X143702337Y-83099098D01*
X143599469Y-83207711D01*
X143517506Y-83341081D01*
X143466064Y-83495623D01*
X143447165Y-83697737D01*
X143465689Y-83896305D01*
X143518422Y-84065017D01*
X143605420Y-84213511D01*
X143722854Y-84335577D01*
X143867622Y-84430465D01*
X144047636Y-84502639D01*
X144246286Y-84545227D01*
X144479762Y-84560341D01*
X144696467Y-84550083D01*
X144918300Y-84519125D01*
X145132990Y-84472048D01*
X145331926Y-84408850D01*
X145358853Y-83587278D01*
G37*
G36*
X143099485Y-81676322D02*
G01*
X142689523Y-81676322D01*
X142689523Y-84314145D01*
X143099485Y-84314145D01*
X143099485Y-84490000D01*
X141847801Y-84490000D01*
X141847801Y-84314145D01*
X142278279Y-84314145D01*
X142278279Y-83024542D01*
X141898726Y-83024542D01*
X141747541Y-83036133D01*
X141645385Y-83065758D01*
X141562977Y-83120241D01*
X141497923Y-83204610D01*
X141451464Y-83311809D01*
X141412744Y-83464912D01*
X141351378Y-83867913D01*
X141308147Y-84154410D01*
X141276184Y-84268215D01*
X141230294Y-84356093D01*
X141164383Y-84425394D01*
X141072391Y-84475162D01*
X140959449Y-84502589D01*
X140790108Y-84513447D01*
X140719399Y-84512531D01*
X140637151Y-84509234D01*
X140553803Y-84501723D01*
X140472836Y-84488900D01*
X140472836Y-84313046D01*
X140553803Y-84323487D01*
X140605643Y-84325868D01*
X140696115Y-84313238D01*
X140758967Y-84279157D01*
X140806950Y-84224702D01*
X140846345Y-84146716D01*
X140898185Y-83942102D01*
X140941966Y-83678136D01*
X140998752Y-83419300D01*
X141037530Y-83306298D01*
X141087595Y-83208824D01*
X141152971Y-83123633D01*
X141236706Y-83052203D01*
X141336863Y-82997752D01*
X141464787Y-82957156D01*
X141307264Y-82911596D01*
X141173508Y-82850153D01*
X141055724Y-82770557D01*
X140961933Y-82679244D01*
X140887660Y-82573952D01*
X140834804Y-82457594D01*
X140803210Y-82332660D01*
X140792988Y-82204986D01*
X141240736Y-82204986D01*
X141250883Y-82369821D01*
X141278288Y-82497894D01*
X141329426Y-82609022D01*
X141405783Y-82697196D01*
X141506451Y-82763122D01*
X141643370Y-82812051D01*
X141800233Y-82838606D01*
X142011566Y-82848688D01*
X142278279Y-82848688D01*
X142278279Y-81676322D01*
X141989035Y-81676322D01*
X141766749Y-81684637D01*
X141610397Y-81705997D01*
X141475502Y-81746047D01*
X141383251Y-81798321D01*
X141314412Y-81870262D01*
X141271144Y-81961536D01*
X141248972Y-82067631D01*
X141240736Y-82204986D01*
X140792988Y-82204986D01*
X140792489Y-82198757D01*
X140807867Y-82046625D01*
X140852573Y-81911711D01*
X140930429Y-81793543D01*
X141051142Y-81690610D01*
X141203237Y-81612860D01*
X141413843Y-81549926D01*
X141650840Y-81514007D01*
X141964305Y-81500467D01*
X143099485Y-81500467D01*
X143099485Y-81676322D01*
G37*
G36*
X137898944Y-83587278D02*
G01*
X137928070Y-84409033D01*
X138144591Y-84472964D01*
X138375584Y-84520225D01*
X138606577Y-84550083D01*
X138819068Y-84560341D01*
X139026827Y-84547866D01*
X139214986Y-84511769D01*
X139386200Y-84453363D01*
X139546822Y-84371119D01*
X139688932Y-84269405D01*
X139814296Y-84147449D01*
X139920721Y-84008089D01*
X140010684Y-83847987D01*
X140083941Y-83664581D01*
X140134761Y-83473102D01*
X140166508Y-83260763D01*
X140177547Y-83024909D01*
X140165963Y-82783860D01*
X140132536Y-82565381D01*
X140078811Y-82366919D01*
X140001951Y-82176803D01*
X139907911Y-82009893D01*
X139796894Y-81863717D01*
X139666277Y-81735190D01*
X139518963Y-81628404D01*
X139353227Y-81542416D01*
X139176483Y-81480979D01*
X138983605Y-81443155D01*
X138771990Y-81430125D01*
X138580931Y-81439284D01*
X138376500Y-81466029D01*
X138171153Y-81507978D01*
X137971118Y-81564764D01*
X137946205Y-82321123D01*
X138100994Y-82321123D01*
X138132728Y-82106307D01*
X138181777Y-81955125D01*
X138253944Y-81828651D01*
X138337116Y-81739520D01*
X138436494Y-81674787D01*
X138548325Y-81634373D01*
X138668408Y-81613234D01*
X138798551Y-81605980D01*
X138931044Y-81612259D01*
X139053358Y-81630526D01*
X139169491Y-81664188D01*
X139276107Y-81715889D01*
X139372607Y-81786139D01*
X139461121Y-81878555D01*
X139535020Y-81990019D01*
X139600706Y-82137391D01*
X139649788Y-82302671D01*
X139689366Y-82510350D01*
X139712553Y-82734693D01*
X139721057Y-83012636D01*
X139712824Y-83288314D01*
X139690465Y-83508876D01*
X139651806Y-83712361D01*
X139603637Y-83873592D01*
X139539357Y-84016996D01*
X139467349Y-84125284D01*
X139381263Y-84214748D01*
X139288564Y-84281905D01*
X139186084Y-84330748D01*
X139074057Y-84362138D01*
X138956070Y-84378783D01*
X138829326Y-84384487D01*
X138677962Y-84375308D01*
X138543196Y-84348949D01*
X138419559Y-84299764D01*
X138311653Y-84224019D01*
X138222092Y-84122223D01*
X138145141Y-83982219D01*
X138091458Y-83816975D01*
X138053733Y-83587278D01*
X137898944Y-83587278D01*
G37*
D11*
X161385714Y-112968509D02*
X161242857Y-113016128D01*
X161242857Y-113016128D02*
X161195238Y-113063747D01*
X161195238Y-113063747D02*
X161147619Y-113158985D01*
X161147619Y-113158985D02*
X161147619Y-113301842D01*
X161147619Y-113301842D02*
X161195238Y-113397080D01*
X161195238Y-113397080D02*
X161242857Y-113444700D01*
X161242857Y-113444700D02*
X161338095Y-113492319D01*
X161338095Y-113492319D02*
X161719047Y-113492319D01*
X161719047Y-113492319D02*
X161719047Y-112492319D01*
X161719047Y-112492319D02*
X161385714Y-112492319D01*
X161385714Y-112492319D02*
X161290476Y-112539938D01*
X161290476Y-112539938D02*
X161242857Y-112587557D01*
X161242857Y-112587557D02*
X161195238Y-112682795D01*
X161195238Y-112682795D02*
X161195238Y-112778033D01*
X161195238Y-112778033D02*
X161242857Y-112873271D01*
X161242857Y-112873271D02*
X161290476Y-112920890D01*
X161290476Y-112920890D02*
X161385714Y-112968509D01*
X161385714Y-112968509D02*
X161719047Y-112968509D01*
X160861904Y-112492319D02*
X160290476Y-112492319D01*
X160576190Y-113492319D02*
X160576190Y-112492319D01*
X159433333Y-113492319D02*
X160004761Y-113492319D01*
X159719047Y-113492319D02*
X159719047Y-112492319D01*
X159719047Y-112492319D02*
X159814285Y-112635176D01*
X159814285Y-112635176D02*
X159909523Y-112730414D01*
X159909523Y-112730414D02*
X160004761Y-112778033D01*
X152761904Y-88517804D02*
X152761904Y-89327327D01*
X152761904Y-89327327D02*
X152714285Y-89422565D01*
X152714285Y-89422565D02*
X152666666Y-89470185D01*
X152666666Y-89470185D02*
X152571428Y-89517804D01*
X152571428Y-89517804D02*
X152380952Y-89517804D01*
X152380952Y-89517804D02*
X152285714Y-89470185D01*
X152285714Y-89470185D02*
X152238095Y-89422565D01*
X152238095Y-89422565D02*
X152190476Y-89327327D01*
X152190476Y-89327327D02*
X152190476Y-88517804D01*
X151190476Y-89517804D02*
X151761904Y-89517804D01*
X151476190Y-89517804D02*
X151476190Y-88517804D01*
X151476190Y-88517804D02*
X151571428Y-88660661D01*
X151571428Y-88660661D02*
X151666666Y-88755899D01*
X151666666Y-88755899D02*
X151761904Y-88803518D01*
X174666663Y-84906817D02*
X174999996Y-84430626D01*
X175238091Y-84906817D02*
X175238091Y-83906817D01*
X175238091Y-83906817D02*
X174857139Y-83906817D01*
X174857139Y-83906817D02*
X174761901Y-83954436D01*
X174761901Y-83954436D02*
X174714282Y-84002055D01*
X174714282Y-84002055D02*
X174666663Y-84097293D01*
X174666663Y-84097293D02*
X174666663Y-84240150D01*
X174666663Y-84240150D02*
X174714282Y-84335388D01*
X174714282Y-84335388D02*
X174761901Y-84383007D01*
X174761901Y-84383007D02*
X174857139Y-84430626D01*
X174857139Y-84430626D02*
X175238091Y-84430626D01*
X174333329Y-83906817D02*
X173666663Y-83906817D01*
X173666663Y-83906817D02*
X174095234Y-84906817D01*
X154536059Y-101958553D02*
X154869392Y-101482362D01*
X155107487Y-101958553D02*
X155107487Y-100958553D01*
X155107487Y-100958553D02*
X154726535Y-100958553D01*
X154726535Y-100958553D02*
X154631297Y-101006172D01*
X154631297Y-101006172D02*
X154583678Y-101053791D01*
X154583678Y-101053791D02*
X154536059Y-101149029D01*
X154536059Y-101149029D02*
X154536059Y-101291886D01*
X154536059Y-101291886D02*
X154583678Y-101387124D01*
X154583678Y-101387124D02*
X154631297Y-101434743D01*
X154631297Y-101434743D02*
X154726535Y-101482362D01*
X154726535Y-101482362D02*
X155107487Y-101482362D01*
X153583678Y-101958553D02*
X154155106Y-101958553D01*
X153869392Y-101958553D02*
X153869392Y-100958553D01*
X153869392Y-100958553D02*
X153964630Y-101101410D01*
X153964630Y-101101410D02*
X154059868Y-101196648D01*
X154059868Y-101196648D02*
X154155106Y-101244267D01*
X151620874Y-101909930D02*
X151954262Y-101433661D01*
X152192397Y-101909930D02*
X152192397Y-100909765D01*
X152192397Y-100909765D02*
X151811382Y-100909765D01*
X151811382Y-100909765D02*
X151716128Y-100957392D01*
X151716128Y-100957392D02*
X151668501Y-101005019D01*
X151668501Y-101005019D02*
X151620874Y-101100273D01*
X151620874Y-101100273D02*
X151620874Y-101243154D01*
X151620874Y-101243154D02*
X151668501Y-101338408D01*
X151668501Y-101338408D02*
X151716128Y-101386034D01*
X151716128Y-101386034D02*
X151811382Y-101433661D01*
X151811382Y-101433661D02*
X152192397Y-101433661D01*
X151335113Y-100909765D02*
X151001724Y-101909930D01*
X151001724Y-101909930D02*
X150668336Y-100909765D01*
X149811052Y-101909930D02*
X150382575Y-101909930D01*
X150096813Y-101909930D02*
X150096813Y-100909765D01*
X150096813Y-100909765D02*
X150192067Y-101052646D01*
X150192067Y-101052646D02*
X150287321Y-101147900D01*
X150287321Y-101147900D02*
X150382575Y-101195527D01*
X130166663Y-96960819D02*
X130499996Y-96484628D01*
X130738091Y-96960819D02*
X130738091Y-95960819D01*
X130738091Y-95960819D02*
X130357139Y-95960819D01*
X130357139Y-95960819D02*
X130261901Y-96008438D01*
X130261901Y-96008438D02*
X130214282Y-96056057D01*
X130214282Y-96056057D02*
X130166663Y-96151295D01*
X130166663Y-96151295D02*
X130166663Y-96294152D01*
X130166663Y-96294152D02*
X130214282Y-96389390D01*
X130214282Y-96389390D02*
X130261901Y-96437009D01*
X130261901Y-96437009D02*
X130357139Y-96484628D01*
X130357139Y-96484628D02*
X130738091Y-96484628D01*
X129309520Y-96294152D02*
X129309520Y-96960819D01*
X129547615Y-95913200D02*
X129785710Y-96627485D01*
X129785710Y-96627485D02*
X129166663Y-96627485D01*
X158723467Y-69582629D02*
X158580505Y-69630282D01*
X158580505Y-69630282D02*
X158342236Y-69630282D01*
X158342236Y-69630282D02*
X158246928Y-69582629D01*
X158246928Y-69582629D02*
X158199274Y-69534975D01*
X158199274Y-69534975D02*
X158151620Y-69439667D01*
X158151620Y-69439667D02*
X158151620Y-69344359D01*
X158151620Y-69344359D02*
X158199274Y-69249051D01*
X158199274Y-69249051D02*
X158246928Y-69201397D01*
X158246928Y-69201397D02*
X158342236Y-69153743D01*
X158342236Y-69153743D02*
X158532851Y-69106089D01*
X158532851Y-69106089D02*
X158628159Y-69058436D01*
X158628159Y-69058436D02*
X158675813Y-69010782D01*
X158675813Y-69010782D02*
X158723467Y-68915474D01*
X158723467Y-68915474D02*
X158723467Y-68820166D01*
X158723467Y-68820166D02*
X158675813Y-68724858D01*
X158675813Y-68724858D02*
X158628159Y-68677204D01*
X158628159Y-68677204D02*
X158532851Y-68629550D01*
X158532851Y-68629550D02*
X158294582Y-68629550D01*
X158294582Y-68629550D02*
X158151620Y-68677204D01*
X157198542Y-69630282D02*
X157770389Y-69630282D01*
X157484465Y-69630282D02*
X157484465Y-68629550D01*
X157484465Y-68629550D02*
X157579773Y-68772512D01*
X157579773Y-68772512D02*
X157675081Y-68867820D01*
X157675081Y-68867820D02*
X157770389Y-68915474D01*
X130166663Y-106104819D02*
X130499996Y-105628628D01*
X130738091Y-106104819D02*
X130738091Y-105104819D01*
X130738091Y-105104819D02*
X130357139Y-105104819D01*
X130357139Y-105104819D02*
X130261901Y-105152438D01*
X130261901Y-105152438D02*
X130214282Y-105200057D01*
X130214282Y-105200057D02*
X130166663Y-105295295D01*
X130166663Y-105295295D02*
X130166663Y-105438152D01*
X130166663Y-105438152D02*
X130214282Y-105533390D01*
X130214282Y-105533390D02*
X130261901Y-105581009D01*
X130261901Y-105581009D02*
X130357139Y-105628628D01*
X130357139Y-105628628D02*
X130738091Y-105628628D01*
X129309520Y-105104819D02*
X129499996Y-105104819D01*
X129499996Y-105104819D02*
X129595234Y-105152438D01*
X129595234Y-105152438D02*
X129642853Y-105200057D01*
X129642853Y-105200057D02*
X129738091Y-105342914D01*
X129738091Y-105342914D02*
X129785710Y-105533390D01*
X129785710Y-105533390D02*
X129785710Y-105914342D01*
X129785710Y-105914342D02*
X129738091Y-106009580D01*
X129738091Y-106009580D02*
X129690472Y-106057200D01*
X129690472Y-106057200D02*
X129595234Y-106104819D01*
X129595234Y-106104819D02*
X129404758Y-106104819D01*
X129404758Y-106104819D02*
X129309520Y-106057200D01*
X129309520Y-106057200D02*
X129261901Y-106009580D01*
X129261901Y-106009580D02*
X129214282Y-105914342D01*
X129214282Y-105914342D02*
X129214282Y-105676247D01*
X129214282Y-105676247D02*
X129261901Y-105581009D01*
X129261901Y-105581009D02*
X129309520Y-105533390D01*
X129309520Y-105533390D02*
X129404758Y-105485771D01*
X129404758Y-105485771D02*
X129595234Y-105485771D01*
X129595234Y-105485771D02*
X129690472Y-105533390D01*
X129690472Y-105533390D02*
X129738091Y-105581009D01*
X129738091Y-105581009D02*
X129785710Y-105676247D01*
X157164266Y-87955216D02*
X157211885Y-88002836D01*
X157211885Y-88002836D02*
X157354742Y-88050455D01*
X157354742Y-88050455D02*
X157449980Y-88050455D01*
X157449980Y-88050455D02*
X157592837Y-88002836D01*
X157592837Y-88002836D02*
X157688075Y-87907597D01*
X157688075Y-87907597D02*
X157735694Y-87812359D01*
X157735694Y-87812359D02*
X157783313Y-87621883D01*
X157783313Y-87621883D02*
X157783313Y-87479026D01*
X157783313Y-87479026D02*
X157735694Y-87288550D01*
X157735694Y-87288550D02*
X157688075Y-87193312D01*
X157688075Y-87193312D02*
X157592837Y-87098074D01*
X157592837Y-87098074D02*
X157449980Y-87050455D01*
X157449980Y-87050455D02*
X157354742Y-87050455D01*
X157354742Y-87050455D02*
X157211885Y-87098074D01*
X157211885Y-87098074D02*
X157164266Y-87145693D01*
X156783313Y-87145693D02*
X156735694Y-87098074D01*
X156735694Y-87098074D02*
X156640456Y-87050455D01*
X156640456Y-87050455D02*
X156402361Y-87050455D01*
X156402361Y-87050455D02*
X156307123Y-87098074D01*
X156307123Y-87098074D02*
X156259504Y-87145693D01*
X156259504Y-87145693D02*
X156211885Y-87240931D01*
X156211885Y-87240931D02*
X156211885Y-87336169D01*
X156211885Y-87336169D02*
X156259504Y-87479026D01*
X156259504Y-87479026D02*
X156830932Y-88050455D01*
X156830932Y-88050455D02*
X156211885Y-88050455D01*
X175142860Y-98748818D02*
X175476193Y-98272627D01*
X175714288Y-98748818D02*
X175714288Y-97748818D01*
X175714288Y-97748818D02*
X175333336Y-97748818D01*
X175333336Y-97748818D02*
X175238098Y-97796437D01*
X175238098Y-97796437D02*
X175190479Y-97844056D01*
X175190479Y-97844056D02*
X175142860Y-97939294D01*
X175142860Y-97939294D02*
X175142860Y-98082151D01*
X175142860Y-98082151D02*
X175190479Y-98177389D01*
X175190479Y-98177389D02*
X175238098Y-98225008D01*
X175238098Y-98225008D02*
X175333336Y-98272627D01*
X175333336Y-98272627D02*
X175714288Y-98272627D01*
X174190479Y-98748818D02*
X174761907Y-98748818D01*
X174476193Y-98748818D02*
X174476193Y-97748818D01*
X174476193Y-97748818D02*
X174571431Y-97891675D01*
X174571431Y-97891675D02*
X174666669Y-97986913D01*
X174666669Y-97986913D02*
X174761907Y-98034532D01*
X173571431Y-97748818D02*
X173476193Y-97748818D01*
X173476193Y-97748818D02*
X173380955Y-97796437D01*
X173380955Y-97796437D02*
X173333336Y-97844056D01*
X173333336Y-97844056D02*
X173285717Y-97939294D01*
X173285717Y-97939294D02*
X173238098Y-98129770D01*
X173238098Y-98129770D02*
X173238098Y-98367865D01*
X173238098Y-98367865D02*
X173285717Y-98558341D01*
X173285717Y-98558341D02*
X173333336Y-98653579D01*
X173333336Y-98653579D02*
X173380955Y-98701199D01*
X173380955Y-98701199D02*
X173476193Y-98748818D01*
X173476193Y-98748818D02*
X173571431Y-98748818D01*
X173571431Y-98748818D02*
X173666669Y-98701199D01*
X173666669Y-98701199D02*
X173714288Y-98653579D01*
X173714288Y-98653579D02*
X173761907Y-98558341D01*
X173761907Y-98558341D02*
X173809526Y-98367865D01*
X173809526Y-98367865D02*
X173809526Y-98129770D01*
X173809526Y-98129770D02*
X173761907Y-97939294D01*
X173761907Y-97939294D02*
X173714288Y-97844056D01*
X173714288Y-97844056D02*
X173666669Y-97796437D01*
X173666669Y-97796437D02*
X173571431Y-97748818D01*
X130166665Y-101532818D02*
X130499998Y-101056627D01*
X130738093Y-101532818D02*
X130738093Y-100532818D01*
X130738093Y-100532818D02*
X130357141Y-100532818D01*
X130357141Y-100532818D02*
X130261903Y-100580437D01*
X130261903Y-100580437D02*
X130214284Y-100628056D01*
X130214284Y-100628056D02*
X130166665Y-100723294D01*
X130166665Y-100723294D02*
X130166665Y-100866151D01*
X130166665Y-100866151D02*
X130214284Y-100961389D01*
X130214284Y-100961389D02*
X130261903Y-101009008D01*
X130261903Y-101009008D02*
X130357141Y-101056627D01*
X130357141Y-101056627D02*
X130738093Y-101056627D01*
X129261903Y-100532818D02*
X129738093Y-100532818D01*
X129738093Y-100532818D02*
X129785712Y-101009008D01*
X129785712Y-101009008D02*
X129738093Y-100961389D01*
X129738093Y-100961389D02*
X129642855Y-100913770D01*
X129642855Y-100913770D02*
X129404760Y-100913770D01*
X129404760Y-100913770D02*
X129309522Y-100961389D01*
X129309522Y-100961389D02*
X129261903Y-101009008D01*
X129261903Y-101009008D02*
X129214284Y-101104246D01*
X129214284Y-101104246D02*
X129214284Y-101342341D01*
X129214284Y-101342341D02*
X129261903Y-101437579D01*
X129261903Y-101437579D02*
X129309522Y-101485199D01*
X129309522Y-101485199D02*
X129404760Y-101532818D01*
X129404760Y-101532818D02*
X129642855Y-101532818D01*
X129642855Y-101532818D02*
X129738093Y-101485199D01*
X129738093Y-101485199D02*
X129785712Y-101437579D01*
X175158854Y-103702817D02*
X175492187Y-103226626D01*
X175730282Y-103702817D02*
X175730282Y-102702817D01*
X175730282Y-102702817D02*
X175349330Y-102702817D01*
X175349330Y-102702817D02*
X175254092Y-102750436D01*
X175254092Y-102750436D02*
X175206473Y-102798055D01*
X175206473Y-102798055D02*
X175158854Y-102893293D01*
X175158854Y-102893293D02*
X175158854Y-103036150D01*
X175158854Y-103036150D02*
X175206473Y-103131388D01*
X175206473Y-103131388D02*
X175254092Y-103179007D01*
X175254092Y-103179007D02*
X175349330Y-103226626D01*
X175349330Y-103226626D02*
X175730282Y-103226626D01*
X174206473Y-103702817D02*
X174777901Y-103702817D01*
X174492187Y-103702817D02*
X174492187Y-102702817D01*
X174492187Y-102702817D02*
X174587425Y-102845674D01*
X174587425Y-102845674D02*
X174682663Y-102940912D01*
X174682663Y-102940912D02*
X174777901Y-102988531D01*
X173254092Y-103702817D02*
X173825520Y-103702817D01*
X173539806Y-103702817D02*
X173539806Y-102702817D01*
X173539806Y-102702817D02*
X173635044Y-102845674D01*
X173635044Y-102845674D02*
X173730282Y-102940912D01*
X173730282Y-102940912D02*
X173825520Y-102988531D01*
X174666663Y-89732817D02*
X174999996Y-89256626D01*
X175238091Y-89732817D02*
X175238091Y-88732817D01*
X175238091Y-88732817D02*
X174857139Y-88732817D01*
X174857139Y-88732817D02*
X174761901Y-88780436D01*
X174761901Y-88780436D02*
X174714282Y-88828055D01*
X174714282Y-88828055D02*
X174666663Y-88923293D01*
X174666663Y-88923293D02*
X174666663Y-89066150D01*
X174666663Y-89066150D02*
X174714282Y-89161388D01*
X174714282Y-89161388D02*
X174761901Y-89209007D01*
X174761901Y-89209007D02*
X174857139Y-89256626D01*
X174857139Y-89256626D02*
X175238091Y-89256626D01*
X174095234Y-89161388D02*
X174190472Y-89113769D01*
X174190472Y-89113769D02*
X174238091Y-89066150D01*
X174238091Y-89066150D02*
X174285710Y-88970912D01*
X174285710Y-88970912D02*
X174285710Y-88923293D01*
X174285710Y-88923293D02*
X174238091Y-88828055D01*
X174238091Y-88828055D02*
X174190472Y-88780436D01*
X174190472Y-88780436D02*
X174095234Y-88732817D01*
X174095234Y-88732817D02*
X173904758Y-88732817D01*
X173904758Y-88732817D02*
X173809520Y-88780436D01*
X173809520Y-88780436D02*
X173761901Y-88828055D01*
X173761901Y-88828055D02*
X173714282Y-88923293D01*
X173714282Y-88923293D02*
X173714282Y-88970912D01*
X173714282Y-88970912D02*
X173761901Y-89066150D01*
X173761901Y-89066150D02*
X173809520Y-89113769D01*
X173809520Y-89113769D02*
X173904758Y-89161388D01*
X173904758Y-89161388D02*
X174095234Y-89161388D01*
X174095234Y-89161388D02*
X174190472Y-89209007D01*
X174190472Y-89209007D02*
X174238091Y-89256626D01*
X174238091Y-89256626D02*
X174285710Y-89351864D01*
X174285710Y-89351864D02*
X174285710Y-89542340D01*
X174285710Y-89542340D02*
X174238091Y-89637578D01*
X174238091Y-89637578D02*
X174190472Y-89685198D01*
X174190472Y-89685198D02*
X174095234Y-89732817D01*
X174095234Y-89732817D02*
X173904758Y-89732817D01*
X173904758Y-89732817D02*
X173809520Y-89685198D01*
X173809520Y-89685198D02*
X173761901Y-89637578D01*
X173761901Y-89637578D02*
X173714282Y-89542340D01*
X173714282Y-89542340D02*
X173714282Y-89351864D01*
X173714282Y-89351864D02*
X173761901Y-89256626D01*
X173761901Y-89256626D02*
X173809520Y-89209007D01*
X173809520Y-89209007D02*
X173904758Y-89161388D01*
X145875435Y-90032252D02*
X145923055Y-89984633D01*
X145923055Y-89984633D02*
X145970674Y-89841776D01*
X145970674Y-89841776D02*
X145970674Y-89746538D01*
X145970674Y-89746538D02*
X145923055Y-89603681D01*
X145923055Y-89603681D02*
X145827816Y-89508443D01*
X145827816Y-89508443D02*
X145732578Y-89460824D01*
X145732578Y-89460824D02*
X145542102Y-89413205D01*
X145542102Y-89413205D02*
X145399245Y-89413205D01*
X145399245Y-89413205D02*
X145208769Y-89460824D01*
X145208769Y-89460824D02*
X145113531Y-89508443D01*
X145113531Y-89508443D02*
X145018293Y-89603681D01*
X145018293Y-89603681D02*
X144970674Y-89746538D01*
X144970674Y-89746538D02*
X144970674Y-89841776D01*
X144970674Y-89841776D02*
X145018293Y-89984633D01*
X145018293Y-89984633D02*
X145065912Y-90032252D01*
X145970674Y-90984633D02*
X145970674Y-90413205D01*
X145970674Y-90698919D02*
X144970674Y-90698919D01*
X144970674Y-90698919D02*
X145113531Y-90603681D01*
X145113531Y-90603681D02*
X145208769Y-90508443D01*
X145208769Y-90508443D02*
X145256388Y-90413205D01*
X147249282Y-98373741D02*
X147582615Y-97897550D01*
X147820710Y-98373741D02*
X147820710Y-97373741D01*
X147820710Y-97373741D02*
X147439758Y-97373741D01*
X147439758Y-97373741D02*
X147344520Y-97421360D01*
X147344520Y-97421360D02*
X147296901Y-97468979D01*
X147296901Y-97468979D02*
X147249282Y-97564217D01*
X147249282Y-97564217D02*
X147249282Y-97707074D01*
X147249282Y-97707074D02*
X147296901Y-97802312D01*
X147296901Y-97802312D02*
X147344520Y-97849931D01*
X147344520Y-97849931D02*
X147439758Y-97897550D01*
X147439758Y-97897550D02*
X147820710Y-97897550D01*
X146296901Y-98373741D02*
X146868329Y-98373741D01*
X146582615Y-98373741D02*
X146582615Y-97373741D01*
X146582615Y-97373741D02*
X146677853Y-97516598D01*
X146677853Y-97516598D02*
X146773091Y-97611836D01*
X146773091Y-97611836D02*
X146868329Y-97659455D01*
X130166665Y-92388818D02*
X130499998Y-91912627D01*
X130738093Y-92388818D02*
X130738093Y-91388818D01*
X130738093Y-91388818D02*
X130357141Y-91388818D01*
X130357141Y-91388818D02*
X130261903Y-91436437D01*
X130261903Y-91436437D02*
X130214284Y-91484056D01*
X130214284Y-91484056D02*
X130166665Y-91579294D01*
X130166665Y-91579294D02*
X130166665Y-91722151D01*
X130166665Y-91722151D02*
X130214284Y-91817389D01*
X130214284Y-91817389D02*
X130261903Y-91865008D01*
X130261903Y-91865008D02*
X130357141Y-91912627D01*
X130357141Y-91912627D02*
X130738093Y-91912627D01*
X129833331Y-91388818D02*
X129214284Y-91388818D01*
X129214284Y-91388818D02*
X129547617Y-91769770D01*
X129547617Y-91769770D02*
X129404760Y-91769770D01*
X129404760Y-91769770D02*
X129309522Y-91817389D01*
X129309522Y-91817389D02*
X129261903Y-91865008D01*
X129261903Y-91865008D02*
X129214284Y-91960246D01*
X129214284Y-91960246D02*
X129214284Y-92198341D01*
X129214284Y-92198341D02*
X129261903Y-92293579D01*
X129261903Y-92293579D02*
X129309522Y-92341199D01*
X129309522Y-92341199D02*
X129404760Y-92388818D01*
X129404760Y-92388818D02*
X129690474Y-92388818D01*
X129690474Y-92388818D02*
X129785712Y-92341199D01*
X129785712Y-92341199D02*
X129833331Y-92293579D01*
X130166663Y-87562821D02*
X130499996Y-87086630D01*
X130738091Y-87562821D02*
X130738091Y-86562821D01*
X130738091Y-86562821D02*
X130357139Y-86562821D01*
X130357139Y-86562821D02*
X130261901Y-86610440D01*
X130261901Y-86610440D02*
X130214282Y-86658059D01*
X130214282Y-86658059D02*
X130166663Y-86753297D01*
X130166663Y-86753297D02*
X130166663Y-86896154D01*
X130166663Y-86896154D02*
X130214282Y-86991392D01*
X130214282Y-86991392D02*
X130261901Y-87039011D01*
X130261901Y-87039011D02*
X130357139Y-87086630D01*
X130357139Y-87086630D02*
X130738091Y-87086630D01*
X129785710Y-86658059D02*
X129738091Y-86610440D01*
X129738091Y-86610440D02*
X129642853Y-86562821D01*
X129642853Y-86562821D02*
X129404758Y-86562821D01*
X129404758Y-86562821D02*
X129309520Y-86610440D01*
X129309520Y-86610440D02*
X129261901Y-86658059D01*
X129261901Y-86658059D02*
X129214282Y-86753297D01*
X129214282Y-86753297D02*
X129214282Y-86848535D01*
X129214282Y-86848535D02*
X129261901Y-86991392D01*
X129261901Y-86991392D02*
X129833329Y-87562821D01*
X129833329Y-87562821D02*
X129214282Y-87562821D01*
X157246052Y-98377084D02*
X157293671Y-98424704D01*
X157293671Y-98424704D02*
X157436528Y-98472323D01*
X157436528Y-98472323D02*
X157531766Y-98472323D01*
X157531766Y-98472323D02*
X157674623Y-98424704D01*
X157674623Y-98424704D02*
X157769861Y-98329465D01*
X157769861Y-98329465D02*
X157817480Y-98234227D01*
X157817480Y-98234227D02*
X157865099Y-98043751D01*
X157865099Y-98043751D02*
X157865099Y-97900894D01*
X157865099Y-97900894D02*
X157817480Y-97710418D01*
X157817480Y-97710418D02*
X157769861Y-97615180D01*
X157769861Y-97615180D02*
X157674623Y-97519942D01*
X157674623Y-97519942D02*
X157531766Y-97472323D01*
X157531766Y-97472323D02*
X157436528Y-97472323D01*
X157436528Y-97472323D02*
X157293671Y-97519942D01*
X157293671Y-97519942D02*
X157246052Y-97567561D01*
X156912718Y-97472323D02*
X156293671Y-97472323D01*
X156293671Y-97472323D02*
X156627004Y-97853275D01*
X156627004Y-97853275D02*
X156484147Y-97853275D01*
X156484147Y-97853275D02*
X156388909Y-97900894D01*
X156388909Y-97900894D02*
X156341290Y-97948513D01*
X156341290Y-97948513D02*
X156293671Y-98043751D01*
X156293671Y-98043751D02*
X156293671Y-98281846D01*
X156293671Y-98281846D02*
X156341290Y-98377084D01*
X156341290Y-98377084D02*
X156388909Y-98424704D01*
X156388909Y-98424704D02*
X156484147Y-98472323D01*
X156484147Y-98472323D02*
X156769861Y-98472323D01*
X156769861Y-98472323D02*
X156865099Y-98424704D01*
X156865099Y-98424704D02*
X156912718Y-98377084D01*
X174666663Y-94304817D02*
X174999996Y-93828626D01*
X175238091Y-94304817D02*
X175238091Y-93304817D01*
X175238091Y-93304817D02*
X174857139Y-93304817D01*
X174857139Y-93304817D02*
X174761901Y-93352436D01*
X174761901Y-93352436D02*
X174714282Y-93400055D01*
X174714282Y-93400055D02*
X174666663Y-93495293D01*
X174666663Y-93495293D02*
X174666663Y-93638150D01*
X174666663Y-93638150D02*
X174714282Y-93733388D01*
X174714282Y-93733388D02*
X174761901Y-93781007D01*
X174761901Y-93781007D02*
X174857139Y-93828626D01*
X174857139Y-93828626D02*
X175238091Y-93828626D01*
X174190472Y-94304817D02*
X173999996Y-94304817D01*
X173999996Y-94304817D02*
X173904758Y-94257198D01*
X173904758Y-94257198D02*
X173857139Y-94209578D01*
X173857139Y-94209578D02*
X173761901Y-94066721D01*
X173761901Y-94066721D02*
X173714282Y-93876245D01*
X173714282Y-93876245D02*
X173714282Y-93495293D01*
X173714282Y-93495293D02*
X173761901Y-93400055D01*
X173761901Y-93400055D02*
X173809520Y-93352436D01*
X173809520Y-93352436D02*
X173904758Y-93304817D01*
X173904758Y-93304817D02*
X174095234Y-93304817D01*
X174095234Y-93304817D02*
X174190472Y-93352436D01*
X174190472Y-93352436D02*
X174238091Y-93400055D01*
X174238091Y-93400055D02*
X174285710Y-93495293D01*
X174285710Y-93495293D02*
X174285710Y-93733388D01*
X174285710Y-93733388D02*
X174238091Y-93828626D01*
X174238091Y-93828626D02*
X174190472Y-93876245D01*
X174190472Y-93876245D02*
X174095234Y-93923864D01*
X174095234Y-93923864D02*
X173904758Y-93923864D01*
X173904758Y-93923864D02*
X173809520Y-93876245D01*
X173809520Y-93876245D02*
X173761901Y-93828626D01*
X173761901Y-93828626D02*
X173714282Y-93733388D01*
%TO.C,BT1*%
D12*
X158605000Y-123345000D02*
X158605000Y-119910000D01*
X158605000Y-116090000D02*
X158605000Y-111275000D01*
X158605000Y-111275000D02*
X145395000Y-111275000D01*
X145395000Y-123345000D02*
X158605000Y-123345000D01*
X145395000Y-123345000D02*
X145395000Y-119910000D01*
X145395000Y-111275000D02*
X145395000Y-116090000D01*
D13*
%TO.C,U1*%
X154729995Y-89982038D02*
X154489993Y-89652040D01*
X154969996Y-89652038D01*
X154729995Y-89982038D01*
G36*
X154729995Y-89982038D02*
G01*
X154489993Y-89652040D01*
X154969996Y-89652038D01*
X154729995Y-89982038D01*
G37*
X154189998Y-89892036D02*
X150069996Y-89892040D01*
X154189996Y-95012036D02*
X154189991Y-94917040D01*
X154189991Y-89987038D02*
X154189998Y-89892036D01*
X150070001Y-94917038D02*
X150069994Y-95012040D01*
X150069996Y-89892040D02*
X150070001Y-89987036D01*
X150069994Y-95012040D02*
X154189996Y-95012036D01*
%TO.C,R7*%
X174727064Y-86837000D02*
X174272936Y-86837000D01*
X174727064Y-85367000D02*
X174272936Y-85367000D01*
%TO.C,R1*%
X155197862Y-99095079D02*
X155197863Y-98640950D01*
X153727863Y-99095080D02*
X153727864Y-98640951D01*
%TO.C,RV1*%
D12*
X149199998Y-100055036D02*
X149799997Y-100055037D01*
X149200000Y-97405037D02*
X149199998Y-100055036D01*
X152799999Y-100055039D02*
X152200002Y-100055036D01*
X152800000Y-97405037D02*
X152799999Y-100055039D01*
D14*
X149562003Y-95309366D02*
G75*
G02*
X149321999Y-95309366I-120002J0D01*
G01*
X149321999Y-95309366D02*
G75*
G02*
X149562003Y-95309366I120002J0D01*
G01*
%TO.C,R4*%
D13*
X129772936Y-94121000D02*
X130227064Y-94121000D01*
X129772936Y-95591000D02*
X130227064Y-95591000D01*
%TO.C,S1*%
D12*
X167900000Y-70800000D02*
X167900000Y-67200000D01*
X158900000Y-70800000D02*
X158900000Y-67200000D01*
X158900000Y-67200000D02*
X167900000Y-67200000D01*
%TO.C,R6*%
D13*
X129772936Y-103265000D02*
X130227064Y-103265000D01*
X129772936Y-104735000D02*
X130227064Y-104735000D01*
%TO.C,C2*%
X157735000Y-90478789D02*
X157735000Y-89956285D01*
X156265000Y-90478789D02*
X156265000Y-89956285D01*
%TO.C,R10*%
X174727064Y-99337000D02*
X174272936Y-99337000D01*
X174727064Y-100807000D02*
X174272936Y-100807000D01*
%TO.C,R5*%
X129772936Y-98693000D02*
X130227064Y-98693000D01*
X129772936Y-100163000D02*
X130227064Y-100163000D01*
%TO.C,R11*%
X174743064Y-104163000D02*
X174288936Y-104163000D01*
X174743064Y-105633000D02*
X174288936Y-105633000D01*
%TO.C,R8*%
X174727064Y-90193000D02*
X174272936Y-90193000D01*
X174727064Y-91663000D02*
X174272936Y-91663000D01*
%TO.C,C1*%
X146481877Y-90478789D02*
X146481877Y-89956285D01*
X147951877Y-90478789D02*
X147951877Y-89956285D01*
%TO.C,R1*%
X146481877Y-95027972D02*
X146481878Y-95482101D01*
X147951876Y-95027973D02*
X147951877Y-95482102D01*
%TO.C,R3*%
X129772936Y-89549000D02*
X130227064Y-89549000D01*
X129772936Y-91019000D02*
X130227064Y-91019000D01*
%TO.C,R2*%
X129772936Y-84723000D02*
X130227064Y-84723000D01*
X129772936Y-86193000D02*
X130227064Y-86193000D01*
%TO.C,C3*%
X157735000Y-95031285D02*
X157735000Y-95553789D01*
X156265000Y-95031285D02*
X156265000Y-95553789D01*
%TO.C,R9*%
X174727064Y-94765000D02*
X174272936Y-94765000D01*
X174727064Y-96235000D02*
X174272936Y-96235000D01*
%TD*%
M02*
