%TF.GenerationSoftware,KiCad,Pcbnew,10.0.0*%
%TF.CreationDate,2026-09-27T19:40:20+10:00*%
%TF.ProjectId,USRC_Keychain_Workshop,55535243-5f4b-4657-9963-6861696e5f57,rev?*%
%TF.SameCoordinates,Original*%
%TF.FileFunction,Paste,Bot*%
%TF.FilePolarity,Positive*%
%FSLAX46Y46*%
G04 Gerber Fmt 4.6, Leading zero omitted, Abs format (unit mm)*
G04 Created by KiCad (PCBNEW 10.0.0) date 2026-09-27 19:40:20*
%MOMM*%
%LPD*%
G01*
G04 APERTURE LIST*
G04 Aperture macros list*
%AMRoundRect*
0 Rectangle with rounded corners*
0 $1 Rounding radius*
0 $2 $3 $4 $5 $6 $7 $8 $9 X,Y pos of 4 corners*
0 Add a 4 corners polygon primitive as box body*
4,1,4,$2,$3,$4,$5,$6,$7,$8,$9,$2,$3,0*
0 Add four circle primitives for the rounded corners*
1,1,$1+$1,$2,$3*
1,1,$1+$1,$4,$5*
1,1,$1+$1,$6,$7*
1,1,$1+$1,$8,$9*
0 Add four rect primitives between the rounded corners*
20,1,$1+$1,$2,$3,$4,$5,0*
20,1,$1+$1,$4,$5,$6,$7,0*
20,1,$1+$1,$6,$7,$8,$9,0*
20,1,$1+$1,$8,$9,$2,$3,0*%
G04 Aperture macros list end*
%ADD10R,3.180000X3.180000*%
%ADD11RoundRect,0.150000X0.825000X0.150000X-0.825000X0.150000X-0.825000X-0.150000X0.825000X-0.150000X0*%
%ADD12RoundRect,0.250000X0.350000X0.450000X-0.350000X0.450000X-0.350000X-0.450000X0.350000X-0.450000X0*%
%ADD13RoundRect,0.250000X0.450000X-0.350000X0.450000X0.350000X-0.450000X0.350000X-0.450000X-0.350000X0*%
%ADD14R,1.200000X1.200000*%
%ADD15R,1.600000X1.500000*%
%ADD16RoundRect,0.250000X-0.350000X-0.450000X0.350000X-0.450000X0.350000X0.450000X-0.350000X0.450000X0*%
%ADD17R,1.200000X2.500000*%
%ADD18RoundRect,0.250000X0.475000X-0.337500X0.475000X0.337500X-0.475000X0.337500X-0.475000X-0.337500X0*%
%ADD19RoundRect,0.250000X-0.450000X0.350000X-0.450000X-0.350000X0.450000X-0.350000X0.450000X0.350000X0*%
%ADD20RoundRect,0.250000X-0.475000X0.337500X-0.475000X-0.337500X0.475000X-0.337500X0.475000X0.337500X0*%
G04 APERTURE END LIST*
D10*
%TO.C,BT1*%
X144130000Y-118000000D03*
X159870000Y-118000000D03*
%TD*%
D11*
%TO.C,U1*%
X149654998Y-90547035D03*
X149654996Y-91817038D03*
X149654993Y-93087043D03*
X149654999Y-94357039D03*
X154604994Y-94357041D03*
X154604996Y-93087038D03*
X154604999Y-91817033D03*
X154604993Y-90547037D03*
%TD*%
D12*
%TO.C,R7*%
X173500000Y-86102000D03*
X175500000Y-86102000D03*
%TD*%
D13*
%TO.C,R1*%
X154462863Y-99868015D03*
X154462863Y-97868015D03*
%TD*%
D14*
%TO.C,RV1*%
X150000000Y-96455037D03*
D15*
X151000000Y-99705039D03*
D14*
X151999992Y-96455042D03*
%TD*%
D16*
%TO.C,R4*%
X129000000Y-94856000D03*
X131000000Y-94856000D03*
%TD*%
D17*
%TO.C,S1*%
X165900000Y-71750000D03*
X163400000Y-71750000D03*
X160900000Y-71750000D03*
%TD*%
D16*
%TO.C,R6*%
X129000000Y-104000000D03*
X131000000Y-104000000D03*
%TD*%
D18*
%TO.C,C2*%
X157000000Y-91255037D03*
X157000000Y-89180037D03*
%TD*%
D12*
%TO.C,R10*%
X175500000Y-100072000D03*
X173500000Y-100072000D03*
%TD*%
D16*
%TO.C,R5*%
X129000000Y-99428000D03*
X131000000Y-99428000D03*
%TD*%
D12*
%TO.C,R11*%
X175516000Y-104898000D03*
X173516000Y-104898000D03*
%TD*%
%TO.C,R8*%
X175500000Y-90928000D03*
X173500000Y-90928000D03*
%TD*%
D18*
%TO.C,C1*%
X147216877Y-91255037D03*
X147216877Y-89180037D03*
%TD*%
D19*
%TO.C,R1*%
X147216877Y-94255037D03*
X147216877Y-96255037D03*
%TD*%
D16*
%TO.C,R3*%
X129000000Y-90284000D03*
X131000000Y-90284000D03*
%TD*%
%TO.C,R2*%
X129000000Y-85458000D03*
X131000000Y-85458000D03*
%TD*%
D20*
%TO.C,C3*%
X157000000Y-94255037D03*
X157000000Y-96330037D03*
%TD*%
D12*
%TO.C,R9*%
X175500000Y-95500000D03*
X173500000Y-95500000D03*
%TD*%
M02*
