%TF.GenerationSoftware,KiCad,Pcbnew,10.0.0*%
%TF.CreationDate,2026-09-27T19:40:20+10:00*%
%TF.ProjectId,USRC_Keychain_Workshop,55535243-5f4b-4657-9963-6861696e5f57,rev?*%
%TF.SameCoordinates,Original*%
%TF.FileFunction,Soldermask,Top*%
%TF.FilePolarity,Negative*%
%FSLAX46Y46*%
G04 Gerber Fmt 4.6, Leading zero omitted, Abs format (unit mm)*
G04 Created by KiCad (PCBNEW 10.0.0) date 2026-09-27 19:40:20*
%MOMM*%
%LPD*%
G01*
G04 APERTURE LIST*
G04 Aperture macros list*
%AMRoundRect*
0 Rectangle with rounded corners*
0 $1 Rounding radius*
0 $2 $3 $4 $5 $6 $7 $8 $9 X,Y pos of 4 corners*
0 Add a 4 corners polygon primitive as box body*
4,1,4,$2,$3,$4,$5,$6,$7,$8,$9,$2,$3,0*
0 Add four circle primitives for the rounded corners*
1,1,$1+$1,$2,$3*
1,1,$1+$1,$4,$5*
1,1,$1+$1,$6,$7*
1,1,$1+$1,$8,$9*
0 Add four rect primitives between the rounded corners*
20,1,$1+$1,$2,$3,$4,$5,0*
20,1,$1+$1,$4,$5,$6,$7,0*
20,1,$1+$1,$6,$7,$8,$9,0*
20,1,$1+$1,$8,$9,$2,$3,0*%
G04 Aperture macros list end*
%ADD10C,0.000000*%
%ADD11RoundRect,0.250000X-0.325000X-0.450000X0.325000X-0.450000X0.325000X0.450000X-0.325000X0.450000X0*%
%ADD12RoundRect,0.250000X0.499599X-0.241921X0.386728X0.398204X-0.499599X0.241921X-0.386728X-0.398204X0*%
%ADD13RoundRect,0.250000X0.311705X-0.459309X0.534018X0.151491X-0.311705X0.459309X-0.534018X-0.151491X0*%
%ADD14RoundRect,0.250000X0.552211X-0.056458X0.227211X0.506458X-0.552211X0.056458X-0.227211X-0.506458X0*%
%ADD15RoundRect,0.250000X0.534018X-0.151491X0.311705X0.459309X-0.534018X0.151491X-0.311705X-0.459309X0*%
%ADD16RoundRect,0.250000X-0.040290X0.553626X-0.538219X0.135814X0.040290X-0.553626X0.538219X-0.135814X0*%
%ADD17RoundRect,0.250000X0.386728X-0.398204X0.499599X0.241921X-0.386728X0.398204X-0.499599X-0.241921X0*%
%ADD18RoundRect,0.250000X0.325000X0.450000X-0.325000X0.450000X-0.325000X-0.450000X0.325000X-0.450000X0*%
%ADD19RoundRect,0.250000X-0.538219X-0.135814X-0.040290X-0.553626X0.538219X0.135814X0.040290X0.553626X0*%
%ADD20RoundRect,0.250000X0.227211X-0.506458X0.552211X0.056458X-0.227211X0.506458X-0.552211X-0.056458X0*%
%ADD21C,1.000000*%
G04 APERTURE END LIST*
D10*
G36*
X132865785Y-69786578D02*
G01*
X133198556Y-69823114D01*
X133538398Y-69880839D01*
X133886603Y-69960214D01*
X134244464Y-70061696D01*
X134613276Y-70185744D01*
X134994331Y-70332817D01*
X135388924Y-70503373D01*
X135798346Y-70697870D01*
X136223893Y-70916768D01*
X136666856Y-71160524D01*
X137128531Y-71429598D01*
X137610209Y-71724447D01*
X138113186Y-72045530D01*
X138638753Y-72393307D01*
X139225765Y-72798036D01*
X139777622Y-73198883D01*
X140293438Y-73594819D01*
X140772326Y-73984814D01*
X141213400Y-74367839D01*
X141615773Y-74742864D01*
X141978560Y-75108860D01*
X142300874Y-75464798D01*
X142581828Y-75809649D01*
X142706518Y-75977595D01*
X142820536Y-76142383D01*
X142923771Y-76303885D01*
X143016112Y-76461972D01*
X143097449Y-76616514D01*
X143167670Y-76767384D01*
X143226665Y-76914454D01*
X143274322Y-77057593D01*
X143310532Y-77196673D01*
X143335184Y-77331567D01*
X143348166Y-77462145D01*
X143349367Y-77588278D01*
X143338678Y-77709838D01*
X143315987Y-77826697D01*
X143296316Y-77897148D01*
X143272283Y-77969572D01*
X143244128Y-78043694D01*
X143212088Y-78119237D01*
X143137309Y-78273481D01*
X143049854Y-78430097D01*
X142951630Y-78586877D01*
X142844544Y-78741610D01*
X142730506Y-78892089D01*
X142611421Y-79036106D01*
X142489198Y-79171451D01*
X142365745Y-79295915D01*
X142242968Y-79407291D01*
X142122776Y-79503370D01*
X142064246Y-79544982D01*
X142007076Y-79581942D01*
X141951507Y-79613973D01*
X141897777Y-79640800D01*
X141846123Y-79662145D01*
X141796784Y-79677734D01*
X141749999Y-79687289D01*
X141706007Y-79690536D01*
X141579894Y-79700332D01*
X141442220Y-79729210D01*
X141293751Y-79776405D01*
X141135250Y-79841152D01*
X140791212Y-80020240D01*
X140416222Y-80260354D01*
X140016394Y-80555370D01*
X139597844Y-80899170D01*
X139166689Y-81285630D01*
X138729043Y-81708630D01*
X138291022Y-82162049D01*
X137858741Y-82639765D01*
X137438316Y-83135656D01*
X137035863Y-83643602D01*
X136657497Y-84157481D01*
X136309334Y-84671172D01*
X135997488Y-85178554D01*
X135728077Y-85673504D01*
X135441491Y-86266376D01*
X135163248Y-86893540D01*
X134894747Y-87549686D01*
X134637390Y-88229505D01*
X134392575Y-88927685D01*
X134161703Y-89638916D01*
X133946174Y-90357887D01*
X133747388Y-91079290D01*
X133566745Y-91797812D01*
X133405645Y-92508144D01*
X133265488Y-93204976D01*
X133147675Y-93882997D01*
X133053606Y-94536896D01*
X132984680Y-95161364D01*
X132942297Y-95751089D01*
X132927859Y-96300763D01*
X132944020Y-96682098D01*
X132967054Y-96879881D01*
X133002572Y-97089649D01*
X133052463Y-97316834D01*
X133118615Y-97566865D01*
X133307251Y-98157194D01*
X133583580Y-98904084D01*
X133962704Y-99850983D01*
X134459725Y-101041342D01*
X135089742Y-102518607D01*
X135912077Y-104445497D01*
X136568068Y-106013028D01*
X137084227Y-107295047D01*
X137298152Y-107852068D01*
X137487061Y-108365404D01*
X137654266Y-108844286D01*
X137803081Y-109297946D01*
X137936820Y-109735614D01*
X138058796Y-110166522D01*
X138172323Y-110599901D01*
X138280716Y-111044982D01*
X138495349Y-112007172D01*
X138613353Y-112516692D01*
X138743134Y-112993900D01*
X138885613Y-113439987D01*
X139041708Y-113856144D01*
X139212340Y-114243562D01*
X139303395Y-114426867D01*
X139398429Y-114603433D01*
X139497557Y-114773411D01*
X139600894Y-114936948D01*
X139708555Y-115094195D01*
X139820655Y-115245298D01*
X139937310Y-115390409D01*
X140058633Y-115529675D01*
X140184740Y-115663246D01*
X140315746Y-115791270D01*
X140451766Y-115913896D01*
X140592914Y-116031273D01*
X140739307Y-116143551D01*
X140891058Y-116250877D01*
X141048283Y-116353401D01*
X141211097Y-116451272D01*
X141379615Y-116544639D01*
X141553951Y-116633650D01*
X141920539Y-116799203D01*
X142311782Y-116949120D01*
X142528264Y-117022737D01*
X142733177Y-117086287D01*
X142928313Y-117139743D01*
X143115460Y-117183079D01*
X143296408Y-117216269D01*
X143472946Y-117239287D01*
X143646864Y-117252105D01*
X143819952Y-117254699D01*
X143993999Y-117247041D01*
X144170794Y-117229106D01*
X144352128Y-117200867D01*
X144539789Y-117162298D01*
X144735567Y-117113372D01*
X144941252Y-117054064D01*
X145158633Y-116984348D01*
X145389499Y-116904196D01*
X145634881Y-116809378D01*
X145874734Y-116703221D01*
X146107897Y-116586750D01*
X146333209Y-116460989D01*
X146549507Y-116326965D01*
X146755631Y-116185703D01*
X146950419Y-116038226D01*
X147132709Y-115885561D01*
X147301340Y-115728733D01*
X147455150Y-115568765D01*
X147592978Y-115406685D01*
X147713663Y-115243516D01*
X147767213Y-115161844D01*
X147816042Y-115080284D01*
X147860004Y-114998965D01*
X147898955Y-114918014D01*
X147932748Y-114837561D01*
X147961239Y-114757731D01*
X147984282Y-114678655D01*
X148001733Y-114600460D01*
X148020285Y-114492444D01*
X148032077Y-114393738D01*
X148035259Y-114302144D01*
X148027980Y-114215463D01*
X148008391Y-114131497D01*
X147993401Y-114089845D01*
X147974639Y-114048048D01*
X147924875Y-113962916D01*
X147857247Y-113873905D01*
X147769905Y-113778815D01*
X147660998Y-113675448D01*
X147528675Y-113561606D01*
X147371086Y-113435090D01*
X147186380Y-113293702D01*
X146972707Y-113135244D01*
X146451053Y-112758322D01*
X146093941Y-112495012D01*
X145719623Y-112205328D01*
X145339229Y-111898753D01*
X144963892Y-111584773D01*
X144604742Y-111272874D01*
X144272910Y-110972541D01*
X143979527Y-110693257D01*
X143850733Y-110564474D01*
X143735725Y-110444510D01*
X142691603Y-109327910D01*
X142828804Y-105987025D01*
X142892397Y-104593784D01*
X142964227Y-103269942D01*
X143035492Y-102165079D01*
X143068162Y-101741508D01*
X143097391Y-101428774D01*
X143139014Y-101030098D01*
X143153373Y-100867797D01*
X143162517Y-100727601D01*
X143164920Y-100665188D01*
X143165762Y-100607573D01*
X143164959Y-100554516D01*
X143162424Y-100505773D01*
X143158073Y-100461103D01*
X143151819Y-100420263D01*
X143143577Y-100383010D01*
X143133262Y-100349102D01*
X143120787Y-100318297D01*
X143106068Y-100290353D01*
X143089019Y-100265026D01*
X143069554Y-100242076D01*
X143047587Y-100221258D01*
X143023034Y-100202332D01*
X142995809Y-100185054D01*
X142965826Y-100169182D01*
X142932999Y-100154474D01*
X142897244Y-100140687D01*
X142858474Y-100127580D01*
X142816604Y-100114909D01*
X142723222Y-100089908D01*
X142616413Y-100063746D01*
X142283817Y-99972796D01*
X141960888Y-99862515D01*
X141647776Y-99733036D01*
X141344627Y-99584493D01*
X141051591Y-99417019D01*
X140768815Y-99230748D01*
X140496447Y-99025813D01*
X140234637Y-98802349D01*
X139983531Y-98560488D01*
X139743279Y-98300363D01*
X139514028Y-98022110D01*
X139295926Y-97725860D01*
X139089122Y-97411748D01*
X138893764Y-97079908D01*
X138710000Y-96730471D01*
X138537979Y-96363573D01*
X138481038Y-96239158D01*
X138418328Y-96110080D01*
X138350486Y-95977356D01*
X138278151Y-95842002D01*
X138122561Y-95567464D01*
X137956669Y-95294594D01*
X137785587Y-95031516D01*
X137614426Y-94786357D01*
X137530414Y-94673036D01*
X137448299Y-94567242D01*
X137368721Y-94469991D01*
X137292318Y-94382298D01*
X137217924Y-94297920D01*
X137144241Y-94210398D01*
X137071707Y-94120420D01*
X137000764Y-94028675D01*
X136931849Y-93935852D01*
X136865404Y-93842638D01*
X136801867Y-93749722D01*
X136741678Y-93657794D01*
X136685277Y-93567541D01*
X136633103Y-93479652D01*
X136585597Y-93394815D01*
X136543197Y-93313719D01*
X136506343Y-93237053D01*
X136475475Y-93165506D01*
X136451033Y-93099764D01*
X136433456Y-93040518D01*
X136419248Y-92975090D01*
X136409168Y-92908840D01*
X136403120Y-92841923D01*
X136401004Y-92774493D01*
X136402722Y-92706704D01*
X136408177Y-92638710D01*
X136417269Y-92570665D01*
X136429901Y-92502725D01*
X136445975Y-92435042D01*
X136465392Y-92367771D01*
X136488054Y-92301067D01*
X136513863Y-92235083D01*
X136542720Y-92169974D01*
X136574527Y-92105893D01*
X136609187Y-92042996D01*
X136646600Y-91981436D01*
X136686670Y-91921368D01*
X136729296Y-91862946D01*
X136774382Y-91806323D01*
X136821829Y-91751655D01*
X136871538Y-91699095D01*
X136923412Y-91648798D01*
X136977353Y-91600917D01*
X137033261Y-91555608D01*
X137091039Y-91513023D01*
X137150589Y-91473318D01*
X137211812Y-91436647D01*
X137274610Y-91403164D01*
X137338885Y-91373022D01*
X137404539Y-91346377D01*
X137471474Y-91323382D01*
X137539590Y-91304192D01*
X137729478Y-91284946D01*
X138047662Y-91286417D01*
X139005406Y-91344007D01*
X140285798Y-91461951D01*
X141761815Y-91625239D01*
X143306432Y-91818863D01*
X144792624Y-92027811D01*
X146093368Y-92237075D01*
X147081640Y-92431644D01*
X147231351Y-92467496D01*
X147381154Y-92505897D01*
X147530089Y-92546498D01*
X147677196Y-92588947D01*
X147821517Y-92632895D01*
X147962094Y-92677990D01*
X148097966Y-92723882D01*
X148228175Y-92770221D01*
X148351763Y-92816655D01*
X148467769Y-92862835D01*
X148575235Y-92908409D01*
X148673202Y-92953027D01*
X148760711Y-92996339D01*
X148836804Y-93037994D01*
X148900520Y-93077641D01*
X148950901Y-93114931D01*
X149087813Y-93236122D01*
X149141183Y-93297298D01*
X149184299Y-93365250D01*
X149217014Y-93444770D01*
X149239180Y-93540651D01*
X149250650Y-93657683D01*
X149251276Y-93800660D01*
X149240910Y-93974372D01*
X149219405Y-94183612D01*
X149142389Y-94727844D01*
X149019046Y-95471690D01*
X148848196Y-96453487D01*
X148645409Y-97558023D01*
X148394568Y-98842499D01*
X147821240Y-101612292D01*
X147273241Y-104084910D01*
X147054061Y-104997917D01*
X146895599Y-105582396D01*
X146881127Y-105643961D01*
X146881937Y-105698399D01*
X146903386Y-105746147D01*
X146950834Y-105787639D01*
X147029638Y-105823310D01*
X147145156Y-105853596D01*
X147302747Y-105878932D01*
X147507768Y-105899753D01*
X148081536Y-105929591D01*
X148909323Y-105946593D01*
X151498418Y-105956017D01*
X152809288Y-105953182D01*
X153368237Y-105949341D01*
X153867123Y-105943619D01*
X154309142Y-105935819D01*
X154697491Y-105925741D01*
X155035365Y-105913187D01*
X155325961Y-105897958D01*
X155572475Y-105879857D01*
X155778103Y-105858684D01*
X155866583Y-105846884D01*
X155946040Y-105834241D01*
X156016873Y-105820732D01*
X156079483Y-105806330D01*
X156134268Y-105791012D01*
X156181628Y-105774752D01*
X156221963Y-105757526D01*
X156255672Y-105739309D01*
X156283154Y-105720076D01*
X156304809Y-105699802D01*
X156321037Y-105678463D01*
X156332237Y-105656033D01*
X156342245Y-105618442D01*
X156348607Y-105568112D01*
X156351433Y-105505893D01*
X156350832Y-105432631D01*
X156339790Y-105256378D01*
X156316360Y-105046139D01*
X156281423Y-104808704D01*
X156235857Y-104550860D01*
X156180541Y-104279395D01*
X156116355Y-104001097D01*
X155772647Y-102536819D01*
X155440511Y-101012443D01*
X155130505Y-99486265D01*
X154853188Y-98016584D01*
X154619118Y-96661696D01*
X154438853Y-95479898D01*
X154322951Y-94529487D01*
X154292436Y-94159270D01*
X154281971Y-93868761D01*
X154287583Y-93751599D01*
X154294602Y-93694656D01*
X154304433Y-93638801D01*
X154317078Y-93584034D01*
X154332539Y-93530352D01*
X154350819Y-93477751D01*
X154371920Y-93426232D01*
X154395844Y-93375789D01*
X154422594Y-93326423D01*
X154452172Y-93278130D01*
X154484581Y-93230908D01*
X154557898Y-93139670D01*
X154642565Y-93052689D01*
X154738600Y-92969949D01*
X154846022Y-92891431D01*
X154964849Y-92817117D01*
X155095101Y-92746990D01*
X155236795Y-92681032D01*
X155389952Y-92619225D01*
X155554588Y-92561550D01*
X155730724Y-92507990D01*
X156594149Y-92327626D01*
X157998207Y-92101447D01*
X159745486Y-91853862D01*
X161638573Y-91609280D01*
X163480055Y-91392110D01*
X165072522Y-91226760D01*
X166218561Y-91137639D01*
X166562479Y-91129292D01*
X166720760Y-91149156D01*
X166737070Y-91163923D01*
X166752921Y-91187680D01*
X166768232Y-91219905D01*
X166782921Y-91260073D01*
X166796906Y-91307662D01*
X166810104Y-91362148D01*
X166822434Y-91423008D01*
X166833815Y-91489717D01*
X166853397Y-91638593D01*
X166868197Y-91804589D01*
X166877557Y-91983516D01*
X166880823Y-92171188D01*
X166878718Y-92300640D01*
X166872201Y-92425560D01*
X166860965Y-92546777D01*
X166844705Y-92665123D01*
X166823114Y-92781426D01*
X166795888Y-92896517D01*
X166762720Y-93011225D01*
X166723304Y-93126380D01*
X166677335Y-93242813D01*
X166624507Y-93361352D01*
X166564513Y-93482829D01*
X166497049Y-93608073D01*
X166421809Y-93737913D01*
X166338486Y-93873181D01*
X166246775Y-94014705D01*
X166146370Y-94163315D01*
X165986263Y-94405552D01*
X165812537Y-94685277D01*
X165630735Y-94992530D01*
X165446397Y-95317348D01*
X165265065Y-95649768D01*
X165092280Y-95979828D01*
X164933584Y-96297564D01*
X164794519Y-96593016D01*
X164657301Y-96875307D01*
X164503226Y-97155318D01*
X164333816Y-97431520D01*
X164150590Y-97702383D01*
X163955069Y-97966379D01*
X163748773Y-98221977D01*
X163533222Y-98467649D01*
X163309938Y-98701864D01*
X163080440Y-98923093D01*
X162846248Y-99129808D01*
X162608883Y-99320478D01*
X162369865Y-99493573D01*
X162130715Y-99647565D01*
X161892953Y-99780925D01*
X161658099Y-99892121D01*
X161427673Y-99979626D01*
X161353784Y-100005779D01*
X161280739Y-100035069D01*
X161208970Y-100067180D01*
X161138907Y-100101796D01*
X161070979Y-100138600D01*
X161005618Y-100177276D01*
X160943253Y-100217508D01*
X160884314Y-100258980D01*
X160829232Y-100301375D01*
X160778437Y-100344377D01*
X160732360Y-100387669D01*
X160691430Y-100430936D01*
X160673030Y-100452462D01*
X160656078Y-100473862D01*
X160640628Y-100495097D01*
X160626734Y-100516129D01*
X160614449Y-100536917D01*
X160603828Y-100557422D01*
X160594924Y-100577604D01*
X160587791Y-100597424D01*
X160564670Y-100759113D01*
X160545370Y-101074710D01*
X160519269Y-102092871D01*
X160511547Y-103502387D01*
X160524265Y-105153740D01*
X160581640Y-109329066D01*
X159924320Y-110151884D01*
X159846653Y-110243815D01*
X159750128Y-110349155D01*
X159506091Y-110595155D01*
X159203382Y-110880075D01*
X158853174Y-111194106D01*
X158466643Y-111527439D01*
X158054961Y-111870263D01*
X157629303Y-112212769D01*
X157200843Y-112545147D01*
X155135070Y-114116370D01*
X155996256Y-115145377D01*
X156203105Y-115381893D01*
X156414694Y-115602964D01*
X156631076Y-115808617D01*
X156852301Y-115998876D01*
X157078419Y-116173766D01*
X157309484Y-116333315D01*
X157545544Y-116477547D01*
X157786653Y-116606487D01*
X158032860Y-116720163D01*
X158284218Y-116818598D01*
X158540777Y-116901819D01*
X158802588Y-116969852D01*
X159069703Y-117022722D01*
X159342173Y-117060454D01*
X159620050Y-117083074D01*
X159903383Y-117090609D01*
X160161587Y-117085247D01*
X160414747Y-117069159D01*
X160662877Y-117042340D01*
X160905991Y-117004783D01*
X161144101Y-116956484D01*
X161377221Y-116897438D01*
X161605364Y-116827639D01*
X161828544Y-116747082D01*
X162046773Y-116655763D01*
X162260066Y-116553675D01*
X162468435Y-116440814D01*
X162671894Y-116317174D01*
X162870456Y-116182751D01*
X163064135Y-116037539D01*
X163252943Y-115881532D01*
X163436895Y-115714726D01*
X163599398Y-115549979D01*
X163760517Y-115366263D01*
X163919002Y-115166102D01*
X164073602Y-114952019D01*
X164223066Y-114726541D01*
X164366143Y-114492190D01*
X164501584Y-114251492D01*
X164628136Y-114006971D01*
X164744550Y-113761151D01*
X164849575Y-113516556D01*
X164941960Y-113275712D01*
X165020455Y-113041143D01*
X165083808Y-112815373D01*
X165130770Y-112600926D01*
X165160089Y-112400327D01*
X165170515Y-112216101D01*
X165191081Y-112037477D01*
X165248781Y-111755614D01*
X165456630Y-110942549D01*
X165756169Y-109897661D01*
X166109505Y-108741706D01*
X166478743Y-107595439D01*
X166825991Y-106579616D01*
X167113356Y-105814991D01*
X167222740Y-105564615D01*
X167302944Y-105422322D01*
X167461564Y-105131768D01*
X167739446Y-104541684D01*
X168510866Y-102793297D01*
X169332935Y-100837905D01*
X169674129Y-99989064D01*
X169921386Y-99336251D01*
X170027801Y-98995401D01*
X170119909Y-98611458D01*
X170197719Y-98189221D01*
X170261236Y-97733486D01*
X170310467Y-97249052D01*
X170345418Y-96740718D01*
X170366096Y-96213280D01*
X170372507Y-95671537D01*
X170364658Y-95120287D01*
X170342555Y-94564328D01*
X170306204Y-94008457D01*
X170255612Y-93457473D01*
X170190785Y-92916174D01*
X170111730Y-92389358D01*
X170018453Y-91881822D01*
X169910961Y-91398365D01*
X169727623Y-90693393D01*
X169522301Y-89989671D01*
X169296418Y-89290042D01*
X169051396Y-88597349D01*
X168788659Y-87914436D01*
X168509632Y-87244146D01*
X168215735Y-86589321D01*
X167908394Y-85952805D01*
X167589032Y-85337441D01*
X167259070Y-84746072D01*
X166919935Y-84181541D01*
X166573047Y-83646691D01*
X166219831Y-83144366D01*
X165861710Y-82677408D01*
X165500107Y-82248661D01*
X165136446Y-81860968D01*
X165035440Y-81762636D01*
X164923119Y-81659170D01*
X164669265Y-81440324D01*
X164384361Y-81211408D01*
X164077881Y-80979396D01*
X163759303Y-80751264D01*
X163438102Y-80533988D01*
X163123754Y-80334544D01*
X162825735Y-80159907D01*
X162409246Y-79922183D01*
X162039582Y-79698433D01*
X161715425Y-79485975D01*
X161569999Y-79383143D01*
X161435457Y-79282127D01*
X161311633Y-79182593D01*
X161198363Y-79084206D01*
X161095481Y-78986629D01*
X161002824Y-78889529D01*
X160920227Y-78792569D01*
X160847524Y-78695414D01*
X160784553Y-78597729D01*
X160731147Y-78499178D01*
X160687142Y-78399427D01*
X160652374Y-78298140D01*
X160626678Y-78194981D01*
X160609890Y-78089616D01*
X160601844Y-77981708D01*
X160602376Y-77870924D01*
X160611322Y-77756926D01*
X160628516Y-77639381D01*
X160653795Y-77517952D01*
X160686994Y-77392305D01*
X160727947Y-77262104D01*
X160776491Y-77127014D01*
X160895691Y-76840824D01*
X161043277Y-76531054D01*
X161243921Y-76164379D01*
X161485934Y-75780925D01*
X161765314Y-75384550D01*
X162078058Y-74979112D01*
X162420164Y-74568468D01*
X162787631Y-74156477D01*
X163176456Y-73746997D01*
X163582637Y-73343886D01*
X164002172Y-72951003D01*
X164431058Y-72572204D01*
X164865293Y-72211349D01*
X165300876Y-71872295D01*
X165733805Y-71558900D01*
X166160076Y-71275023D01*
X166575688Y-71024522D01*
X166976638Y-70811254D01*
X167526044Y-70544127D01*
X167760883Y-70435047D01*
X167975807Y-70340840D01*
X168175813Y-70260420D01*
X168365897Y-70192699D01*
X168551056Y-70136590D01*
X168736285Y-70091008D01*
X168926580Y-70054865D01*
X169126939Y-70027074D01*
X169342357Y-70006549D01*
X169577830Y-69992202D01*
X169838354Y-69982948D01*
X170128927Y-69977699D01*
X170820200Y-69974870D01*
X171501905Y-69978239D01*
X171790329Y-69983811D01*
X172049990Y-69993251D01*
X172285528Y-70007517D01*
X172501585Y-70027567D01*
X172702803Y-70054360D01*
X172893823Y-70088854D01*
X173079287Y-70132007D01*
X173263835Y-70184776D01*
X173452110Y-70248119D01*
X173648753Y-70322996D01*
X173858405Y-70410364D01*
X174085709Y-70511180D01*
X174611833Y-70756992D01*
X175277106Y-71100366D01*
X175898646Y-71476967D01*
X176476190Y-71886332D01*
X177009474Y-72327996D01*
X177498236Y-72801498D01*
X177942211Y-73306375D01*
X178341136Y-73842164D01*
X178694748Y-74408401D01*
X179002782Y-75004625D01*
X179264977Y-75630371D01*
X179481067Y-76285177D01*
X179650790Y-76968581D01*
X179773883Y-77680119D01*
X179850081Y-78419328D01*
X179879121Y-79185746D01*
X179860740Y-79978910D01*
X179828784Y-80465777D01*
X179784533Y-80923917D01*
X179726603Y-81356358D01*
X179653609Y-81766129D01*
X179564164Y-82156260D01*
X179456886Y-82529778D01*
X179330388Y-82889714D01*
X179183285Y-83239096D01*
X179014193Y-83580952D01*
X178821726Y-83918313D01*
X178604500Y-84254207D01*
X178361130Y-84591663D01*
X178090230Y-84933710D01*
X177790415Y-85283376D01*
X177460301Y-85643692D01*
X177098503Y-86017685D01*
X176862039Y-86257613D01*
X176651763Y-86473813D01*
X176466351Y-86668330D01*
X176304482Y-86843206D01*
X176164833Y-87000483D01*
X176046079Y-87142204D01*
X175994125Y-87207869D01*
X175946899Y-87270411D01*
X175904236Y-87330086D01*
X175865970Y-87387148D01*
X175831935Y-87441854D01*
X175801968Y-87494457D01*
X175775901Y-87545215D01*
X175753570Y-87594381D01*
X175734810Y-87642212D01*
X175719455Y-87688962D01*
X175707339Y-87734888D01*
X175698298Y-87780243D01*
X175692166Y-87825285D01*
X175688777Y-87870267D01*
X175687966Y-87915446D01*
X175689569Y-87961076D01*
X175693419Y-88007414D01*
X175699351Y-88054714D01*
X175716800Y-88153221D01*
X175774930Y-88450176D01*
X175840296Y-88805662D01*
X175904959Y-89175022D01*
X175960977Y-89513601D01*
X176035427Y-89938589D01*
X176150217Y-90543241D01*
X176289661Y-91246990D01*
X176438076Y-91969265D01*
X176518317Y-92399146D01*
X176589616Y-92877967D01*
X176651499Y-93399922D01*
X176703496Y-93959205D01*
X176745133Y-94550009D01*
X176775941Y-95166528D01*
X176795446Y-95802955D01*
X176803176Y-96453484D01*
X176788615Y-97639646D01*
X176765855Y-98181912D01*
X176730938Y-98698523D01*
X176682484Y-99195647D01*
X176619116Y-99679451D01*
X176539454Y-100156103D01*
X176442120Y-100631770D01*
X176325736Y-101112620D01*
X176188922Y-101604819D01*
X176030300Y-102114535D01*
X175848492Y-102647935D01*
X175642118Y-103211187D01*
X175409800Y-103810457D01*
X174861818Y-105141724D01*
X174390963Y-106265041D01*
X173979204Y-107275140D01*
X173611215Y-108214252D01*
X173271671Y-109124605D01*
X172945249Y-110048427D01*
X172616622Y-111027948D01*
X172270467Y-112105397D01*
X171891458Y-113323002D01*
X171722210Y-113863912D01*
X171543316Y-114419103D01*
X171178252Y-115509240D01*
X171002910Y-116012645D01*
X170839579Y-116467248D01*
X170693674Y-116857275D01*
X170570610Y-117166958D01*
X170432614Y-117477261D01*
X170277105Y-117785289D01*
X170102921Y-118092310D01*
X169908896Y-118399591D01*
X169693866Y-118708400D01*
X169456668Y-119020003D01*
X169196136Y-119335668D01*
X168911108Y-119656663D01*
X168600418Y-119984255D01*
X168262903Y-120319711D01*
X167897398Y-120664299D01*
X167502740Y-121019286D01*
X167077764Y-121385939D01*
X166621306Y-121765526D01*
X166132201Y-122159313D01*
X165609287Y-122568570D01*
X165534327Y-122630412D01*
X165459392Y-122699983D01*
X165384660Y-122776998D01*
X165310308Y-122861173D01*
X165236515Y-122952226D01*
X165163457Y-123049873D01*
X165091313Y-123153829D01*
X165020260Y-123263812D01*
X164950476Y-123379538D01*
X164882139Y-123500723D01*
X164815427Y-123627084D01*
X164750516Y-123758337D01*
X164687586Y-123894199D01*
X164626813Y-124034386D01*
X164568375Y-124178614D01*
X164512451Y-124326599D01*
X164463831Y-124457042D01*
X164413600Y-124586299D01*
X164362144Y-124713596D01*
X164309849Y-124838159D01*
X164257102Y-124959214D01*
X164204288Y-125075985D01*
X164151794Y-125187699D01*
X164100006Y-125293580D01*
X164049310Y-125392855D01*
X164000092Y-125484749D01*
X163952739Y-125568488D01*
X163907637Y-125643297D01*
X163865172Y-125708402D01*
X163825730Y-125763028D01*
X163789698Y-125806401D01*
X163757461Y-125837746D01*
X163660877Y-125923775D01*
X163583332Y-126005395D01*
X163524253Y-126082554D01*
X163483066Y-126155202D01*
X163459198Y-126223287D01*
X163452075Y-126286759D01*
X163461123Y-126345565D01*
X163485769Y-126399656D01*
X163525439Y-126448979D01*
X163579558Y-126493484D01*
X163647555Y-126533120D01*
X163728854Y-126567835D01*
X163929067Y-126622300D01*
X164175607Y-126656470D01*
X164463885Y-126669936D01*
X164789313Y-126662288D01*
X165147300Y-126633119D01*
X165533257Y-126582020D01*
X165942595Y-126508580D01*
X166370724Y-126412392D01*
X166813056Y-126293047D01*
X167265001Y-126150135D01*
X167649273Y-126014902D01*
X168031506Y-125871405D01*
X168411219Y-125719972D01*
X168787932Y-125560929D01*
X169161163Y-125394606D01*
X169530433Y-125221329D01*
X169895261Y-125041427D01*
X170255167Y-124855226D01*
X170609669Y-124663056D01*
X170958288Y-124465243D01*
X171300542Y-124262115D01*
X171635952Y-124054000D01*
X171964037Y-123841226D01*
X172284315Y-123624120D01*
X172596308Y-123403011D01*
X172899534Y-123178225D01*
X172863198Y-123505264D01*
X172819488Y-123831645D01*
X172766069Y-124157273D01*
X172700609Y-124482050D01*
X172662634Y-124644088D01*
X172620773Y-124805877D01*
X172574735Y-124967405D01*
X172524227Y-125128659D01*
X172468959Y-125289627D01*
X172408638Y-125450297D01*
X172342972Y-125610657D01*
X172271671Y-125770695D01*
X172172656Y-125973237D01*
X172063362Y-126175440D01*
X171943154Y-126377234D01*
X171811394Y-126578548D01*
X171667446Y-126779310D01*
X171510672Y-126979450D01*
X171340436Y-127178896D01*
X171156102Y-127377577D01*
X170957031Y-127575423D01*
X170742588Y-127772362D01*
X170512136Y-127968322D01*
X170265038Y-128163234D01*
X170000656Y-128357026D01*
X169718355Y-128549626D01*
X169417497Y-128740965D01*
X169097446Y-128930970D01*
X168399688Y-129306213D01*
X167627939Y-129675624D01*
X166787133Y-130039582D01*
X165882204Y-130398466D01*
X163899713Y-131102528D01*
X161719940Y-131790843D01*
X159382357Y-132466445D01*
X156926437Y-133132367D01*
X151817480Y-134447302D01*
X146708582Y-133132367D01*
X144252727Y-132466445D01*
X141915218Y-131790843D01*
X139735520Y-131102528D01*
X138717182Y-130752654D01*
X137753095Y-130398466D01*
X136848192Y-130039582D01*
X136007407Y-129675624D01*
X135235672Y-129306213D01*
X134537920Y-128930970D01*
X134217851Y-128740965D01*
X133916944Y-128549626D01*
X133634566Y-128357026D01*
X133370086Y-128163234D01*
X133122871Y-127968322D01*
X132892288Y-127772362D01*
X132677706Y-127575423D01*
X132478492Y-127377577D01*
X132294013Y-127178896D01*
X132123638Y-126979450D01*
X131966734Y-126779310D01*
X131822668Y-126578548D01*
X131690808Y-126377234D01*
X131570523Y-126175440D01*
X131461179Y-125973237D01*
X131362144Y-125770695D01*
X131310034Y-125655047D01*
X131260920Y-125539224D01*
X131214690Y-125423233D01*
X131171235Y-125307076D01*
X131092201Y-125074291D01*
X131022931Y-124840908D01*
X130962538Y-124606968D01*
X130910134Y-124372511D01*
X130864831Y-124137577D01*
X130825742Y-123902207D01*
X131205333Y-124142710D01*
X131594507Y-124376205D01*
X131992888Y-124602468D01*
X132400103Y-124821273D01*
X132815776Y-125032396D01*
X133239533Y-125235612D01*
X133670999Y-125430697D01*
X134109799Y-125617424D01*
X134555559Y-125795571D01*
X135007904Y-125964911D01*
X135466459Y-126125219D01*
X135930849Y-126276272D01*
X136400700Y-126417845D01*
X136875636Y-126549711D01*
X137355284Y-126671647D01*
X137839268Y-126783429D01*
X137839657Y-126783429D01*
X138072518Y-126832898D01*
X138300317Y-126878161D01*
X138521682Y-126919091D01*
X138735238Y-126955561D01*
X138939609Y-126987445D01*
X139133421Y-127014617D01*
X139315299Y-127036950D01*
X139483868Y-127054317D01*
X139637755Y-127066591D01*
X139775583Y-127073648D01*
X139895979Y-127075359D01*
X139997567Y-127071598D01*
X140078973Y-127062240D01*
X140111678Y-127055422D01*
X140138822Y-127047156D01*
X140160233Y-127037429D01*
X140175740Y-127026222D01*
X140185170Y-127013521D01*
X140188351Y-126999310D01*
X140185560Y-126985274D01*
X140177369Y-126963551D01*
X140145891Y-126898877D01*
X140096121Y-126808941D01*
X140030262Y-126697400D01*
X139950518Y-126567908D01*
X139859093Y-126424120D01*
X139758190Y-126269692D01*
X139650013Y-126108279D01*
X139593431Y-126021525D01*
X139535064Y-125925610D01*
X139414758Y-125710261D01*
X139292665Y-125470159D01*
X139172352Y-125213232D01*
X139057390Y-124947408D01*
X138951347Y-124680615D01*
X138857794Y-124420782D01*
X138780299Y-124175835D01*
X138728353Y-124004051D01*
X138675365Y-123844146D01*
X138620127Y-123694449D01*
X138561430Y-123553290D01*
X138498065Y-123418997D01*
X138437281Y-123305666D01*
X158711692Y-123305666D01*
X158712710Y-123297148D01*
X158713508Y-123288690D01*
X158714077Y-123280287D01*
X158714410Y-123271937D01*
X158714496Y-123263636D01*
X158714496Y-123263635D01*
X158714410Y-123271935D01*
X158714077Y-123280285D01*
X158713508Y-123288687D01*
X158712710Y-123297147D01*
X158711692Y-123305666D01*
X138437281Y-123305666D01*
X138428825Y-123289900D01*
X138352502Y-123164327D01*
X138267886Y-123040608D01*
X138173770Y-122917071D01*
X138068945Y-122792045D01*
X137952204Y-122663860D01*
X137822337Y-122530845D01*
X137678137Y-122391327D01*
X137518395Y-122243638D01*
X137341903Y-122086105D01*
X137147453Y-121917057D01*
X136621959Y-121457069D01*
X136143356Y-121018790D01*
X135706633Y-120593650D01*
X135306778Y-120173075D01*
X135279089Y-120141129D01*
X153738685Y-120141129D01*
X153983889Y-120335476D01*
X154243235Y-120528583D01*
X154513713Y-120718643D01*
X154792312Y-120903850D01*
X155076022Y-121082399D01*
X155361831Y-121252482D01*
X155646729Y-121412295D01*
X155927705Y-121560030D01*
X155646748Y-121412295D01*
X155361852Y-121252478D01*
X155076034Y-121082386D01*
X154792310Y-120903829D01*
X154513696Y-120718616D01*
X154243210Y-120528556D01*
X153983867Y-120335457D01*
X153738685Y-120141129D01*
X135279089Y-120141129D01*
X134938778Y-119748495D01*
X134597622Y-119311338D01*
X134380502Y-118999718D01*
X151912036Y-118999718D01*
X151921108Y-118996872D01*
X151929959Y-118994201D01*
X151938554Y-118991735D01*
X151946855Y-118989500D01*
X151947464Y-118989349D01*
X152041037Y-118989349D01*
X152042768Y-118989819D01*
X152041916Y-118989579D01*
X152041037Y-118989349D01*
X151947464Y-118989349D01*
X151954826Y-118987525D01*
X151960887Y-118986181D01*
X152028103Y-118986181D01*
X152031660Y-118986990D01*
X152029998Y-118986591D01*
X152028103Y-118986181D01*
X151960887Y-118986181D01*
X151962429Y-118985839D01*
X151969629Y-118984470D01*
X151976387Y-118983445D01*
X151969613Y-118984466D01*
X151962419Y-118985829D01*
X151954832Y-118987506D01*
X151946883Y-118989472D01*
X151938600Y-118991702D01*
X151930011Y-118994170D01*
X151921147Y-118996851D01*
X151912036Y-118999718D01*
X134380502Y-118999718D01*
X134278298Y-118853031D01*
X133975793Y-118365004D01*
X133685095Y-117838683D01*
X133401193Y-117265499D01*
X133119074Y-116636877D01*
X132833727Y-115944248D01*
X132540138Y-115179039D01*
X132233297Y-114332678D01*
X131559809Y-112362214D01*
X131000412Y-110741422D01*
X130344454Y-108932980D01*
X129673634Y-107157570D01*
X129069652Y-105635874D01*
X128524795Y-104299485D01*
X128014979Y-103028649D01*
X127597352Y-101967015D01*
X127329060Y-101258234D01*
X127132428Y-100682471D01*
X126957352Y-100105754D01*
X126803766Y-99526975D01*
X126671602Y-98945027D01*
X126560794Y-98358801D01*
X126471275Y-97767190D01*
X126402977Y-97169085D01*
X126355833Y-96563380D01*
X126329776Y-95948965D01*
X126324740Y-95324734D01*
X126340657Y-94689579D01*
X126377461Y-94042391D01*
X126435083Y-93382062D01*
X126513458Y-92707485D01*
X126612518Y-92017552D01*
X126732196Y-91311156D01*
X126817400Y-90830296D01*
X126892674Y-90379366D01*
X126958057Y-89957445D01*
X127013587Y-89563615D01*
X127059305Y-89196955D01*
X127095247Y-88856546D01*
X127121454Y-88541469D01*
X127137964Y-88250805D01*
X127144815Y-87983633D01*
X127142047Y-87739035D01*
X127129698Y-87516091D01*
X127107807Y-87313881D01*
X127076412Y-87131487D01*
X127035553Y-86967988D01*
X126985268Y-86822466D01*
X126925596Y-86694000D01*
X126852233Y-86574381D01*
X126733941Y-86403398D01*
X126576875Y-86189042D01*
X126387187Y-85939307D01*
X126171032Y-85662186D01*
X125934563Y-85365674D01*
X125683934Y-85057762D01*
X125425298Y-84746444D01*
X125132914Y-84389590D01*
X124869677Y-84048590D01*
X124634401Y-83719618D01*
X124425899Y-83398848D01*
X124242983Y-83082455D01*
X124084466Y-82766613D01*
X123949161Y-82447496D01*
X123835881Y-82121278D01*
X123743438Y-81784134D01*
X123670645Y-81432237D01*
X123616316Y-81061761D01*
X123579262Y-80668882D01*
X123558297Y-80249772D01*
X123552233Y-79800607D01*
X123559884Y-79317561D01*
X123580061Y-78796807D01*
X123615178Y-78160062D01*
X123635056Y-77884450D01*
X123657633Y-77632513D01*
X123683774Y-77400628D01*
X123714346Y-77185170D01*
X123750212Y-76982517D01*
X123792239Y-76789045D01*
X123841291Y-76601130D01*
X123898234Y-76415149D01*
X123963932Y-76227478D01*
X124019260Y-76085716D01*
X130159115Y-76085716D01*
X130207378Y-76043156D01*
X130256083Y-76001596D01*
X130305215Y-75961063D01*
X130354759Y-75921590D01*
X130404700Y-75883205D01*
X130455025Y-75845939D01*
X130505719Y-75809823D01*
X130556766Y-75774886D01*
X130505700Y-75809833D01*
X130455003Y-75845949D01*
X130404684Y-75883208D01*
X130354754Y-75921582D01*
X130305223Y-75961047D01*
X130256099Y-76001574D01*
X130207393Y-76043139D01*
X130159115Y-76085716D01*
X124019260Y-76085716D01*
X124039251Y-76034494D01*
X124125056Y-75832572D01*
X124222212Y-75618090D01*
X124259639Y-75540413D01*
X130975734Y-75540413D01*
X131031652Y-75516323D01*
X134428518Y-75516323D01*
X134455090Y-75527604D01*
X134535977Y-75565370D01*
X134613427Y-75605164D01*
X134687256Y-75646972D01*
X134757286Y-75690780D01*
X134784195Y-75708860D01*
X134810461Y-75727255D01*
X134824959Y-75737848D01*
X134810462Y-75727254D01*
X134784196Y-75708857D01*
X134757286Y-75690780D01*
X134687256Y-75646971D01*
X134613427Y-75605163D01*
X134535977Y-75565369D01*
X134455090Y-75527603D01*
X134428518Y-75516323D01*
X131031652Y-75516323D01*
X131062489Y-75503037D01*
X131151749Y-75467964D01*
X131243350Y-75435181D01*
X131337129Y-75404674D01*
X131432920Y-75376432D01*
X131530560Y-75350440D01*
X131629883Y-75326687D01*
X131730727Y-75305160D01*
X131832927Y-75285861D01*
X131936323Y-75268763D01*
X132040757Y-75253853D01*
X132146069Y-75241121D01*
X132252101Y-75230557D01*
X132358693Y-75222148D01*
X132465687Y-75215885D01*
X132572923Y-75211756D01*
X132465687Y-75215883D01*
X132358693Y-75222142D01*
X132252101Y-75230545D01*
X132146069Y-75241104D01*
X132040757Y-75253833D01*
X131936323Y-75268744D01*
X131832927Y-75285848D01*
X131730727Y-75305160D01*
X131629883Y-75326683D01*
X131530560Y-75350434D01*
X131432920Y-75376425D01*
X131337129Y-75404669D01*
X131243350Y-75435177D01*
X131151749Y-75467962D01*
X131062489Y-75503037D01*
X130975734Y-75540413D01*
X124259639Y-75540413D01*
X124454038Y-75136949D01*
X124721278Y-74635677D01*
X125018059Y-74152341D01*
X125342978Y-73687995D01*
X125694631Y-73243693D01*
X126071615Y-72820489D01*
X126472526Y-72419435D01*
X126895961Y-72041585D01*
X127340516Y-71687994D01*
X127804789Y-71359714D01*
X128287375Y-71057799D01*
X128786871Y-70783304D01*
X129301874Y-70537280D01*
X129830979Y-70320783D01*
X130372785Y-70134865D01*
X130925887Y-69980580D01*
X131488882Y-69858982D01*
X131579413Y-69843018D01*
X131670009Y-69828616D01*
X131760696Y-69815779D01*
X131851497Y-69804513D01*
X131942439Y-69794823D01*
X132033546Y-69786714D01*
X132124843Y-69780192D01*
X132216357Y-69775260D01*
X132216277Y-69775245D01*
X132538789Y-69770775D01*
X132865785Y-69786578D01*
G37*
D11*
%TO.C,D1*%
X148000000Y-82000000D03*
X145949994Y-81999990D03*
%TD*%
D12*
%TO.C,D8*%
X189000000Y-88500000D03*
X189355978Y-90518848D03*
%TD*%
D13*
%TO.C,D9*%
X187298864Y-104926368D03*
X188000000Y-103000000D03*
%TD*%
D14*
%TO.C,D5*%
X121000000Y-117000000D03*
X119974998Y-115224650D03*
%TD*%
D15*
%TO.C,D4*%
X115500000Y-104500000D03*
X114798860Y-102573638D03*
%TD*%
D16*
%TO.C,D2*%
X121070384Y-76682284D03*
X119500000Y-78000000D03*
%TD*%
D17*
%TO.C,D3*%
X113000000Y-90000000D03*
X113355974Y-87981146D03*
%TD*%
D18*
%TO.C,D6*%
X157000000Y-82000000D03*
X154949994Y-82000010D03*
%TD*%
D19*
%TO.C,D7*%
X182929616Y-77682284D03*
X184500000Y-79000000D03*
%TD*%
D20*
%TO.C,D10*%
X182500000Y-116000000D03*
X183525002Y-114224650D03*
%TD*%
D21*
%TO.C,S1*%
X166800000Y-69000000D03*
X160000000Y-69000000D03*
%TD*%
M02*
