%TF.GenerationSoftware,KiCad,Pcbnew,10.0.0*%
%TF.CreationDate,2026-09-27T19:40:20+10:00*%
%TF.ProjectId,USRC_Keychain_Workshop,55535243-5f4b-4657-9963-6861696e5f57,rev?*%
%TF.SameCoordinates,Original*%
%TF.FileFunction,Copper,L1,Top*%
%TF.FilePolarity,Positive*%
%FSLAX46Y46*%
G04 Gerber Fmt 4.6, Leading zero omitted, Abs format (unit mm)*
G04 Created by KiCad (PCBNEW 10.0.0) date 2026-09-27 19:40:20*
%MOMM*%
%LPD*%
G01*
G04 APERTURE LIST*
G04 Aperture macros list*
%AMRoundRect*
0 Rectangle with rounded corners*
0 $1 Rounding radius*
0 $2 $3 $4 $5 $6 $7 $8 $9 X,Y pos of 4 corners*
0 Add a 4 corners polygon primitive as box body*
4,1,4,$2,$3,$4,$5,$6,$7,$8,$9,$2,$3,0*
0 Add four circle primitives for the rounded corners*
1,1,$1+$1,$2,$3*
1,1,$1+$1,$4,$5*
1,1,$1+$1,$6,$7*
1,1,$1+$1,$8,$9*
0 Add four rect primitives between the rounded corners*
20,1,$1+$1,$2,$3,$4,$5,0*
20,1,$1+$1,$4,$5,$6,$7,0*
20,1,$1+$1,$6,$7,$8,$9,0*
20,1,$1+$1,$8,$9,$2,$3,0*%
G04 Aperture macros list end*
%TA.AperFunction,SMDPad,CuDef*%
%ADD10RoundRect,0.250000X-0.325000X-0.450000X0.325000X-0.450000X0.325000X0.450000X-0.325000X0.450000X0*%
%TD*%
%TA.AperFunction,SMDPad,CuDef*%
%ADD11RoundRect,0.250000X0.499599X-0.241921X0.386728X0.398204X-0.499599X0.241921X-0.386728X-0.398204X0*%
%TD*%
%TA.AperFunction,SMDPad,CuDef*%
%ADD12RoundRect,0.250000X0.311705X-0.459309X0.534018X0.151491X-0.311705X0.459309X-0.534018X-0.151491X0*%
%TD*%
%TA.AperFunction,SMDPad,CuDef*%
%ADD13RoundRect,0.250000X0.552211X-0.056458X0.227211X0.506458X-0.552211X0.056458X-0.227211X-0.506458X0*%
%TD*%
%TA.AperFunction,SMDPad,CuDef*%
%ADD14RoundRect,0.250000X0.534018X-0.151491X0.311705X0.459309X-0.534018X0.151491X-0.311705X-0.459309X0*%
%TD*%
%TA.AperFunction,SMDPad,CuDef*%
%ADD15RoundRect,0.250000X-0.040290X0.553626X-0.538219X0.135814X0.040290X-0.553626X0.538219X-0.135814X0*%
%TD*%
%TA.AperFunction,SMDPad,CuDef*%
%ADD16RoundRect,0.250000X0.386728X-0.398204X0.499599X0.241921X-0.386728X0.398204X-0.499599X-0.241921X0*%
%TD*%
%TA.AperFunction,SMDPad,CuDef*%
%ADD17RoundRect,0.250000X0.325000X0.450000X-0.325000X0.450000X-0.325000X-0.450000X0.325000X-0.450000X0*%
%TD*%
%TA.AperFunction,SMDPad,CuDef*%
%ADD18RoundRect,0.250000X-0.538219X-0.135814X-0.040290X-0.553626X0.538219X0.135814X0.040290X0.553626X0*%
%TD*%
%TA.AperFunction,SMDPad,CuDef*%
%ADD19RoundRect,0.250000X0.227211X-0.506458X0.552211X0.056458X-0.227211X0.506458X-0.552211X-0.056458X0*%
%TD*%
%TA.AperFunction,ViaPad*%
%ADD20C,0.600000*%
%TD*%
%TA.AperFunction,Conductor*%
%ADD21C,0.300000*%
%TD*%
%TA.AperFunction,Conductor*%
%ADD22C,0.200000*%
%TD*%
%TA.AperFunction,Conductor*%
%ADD23C,0.500000*%
%TD*%
G04 APERTURE END LIST*
D10*
%TO.P,D1,2,A_2*%
%TO.N,/555_OUT*%
X148000000Y-82000000D03*
%TO.P,D1,1,K_1*%
%TO.N,Net-(D1-K)*%
X145949994Y-81999990D03*
%TD*%
D11*
%TO.P,D8,2,A_2*%
%TO.N,/555_OUT*%
X189000000Y-88500000D03*
%TO.P,D8,1,K_1*%
%TO.N,Net-(D8-K)*%
X189355978Y-90518848D03*
%TD*%
D12*
%TO.P,D9,1,K_1*%
%TO.N,Net-(D9-K)*%
X187298864Y-104926368D03*
%TO.P,D9,2,A_2*%
%TO.N,/555_OUT*%
X188000000Y-103000000D03*
%TD*%
D13*
%TO.P,D5,1,K_1*%
%TO.N,Net-(D5-K)*%
X121000000Y-117000000D03*
%TO.P,D5,2,A_2*%
%TO.N,/555_OUT*%
X119974998Y-115224650D03*
%TD*%
D14*
%TO.P,D4,1,K_1*%
%TO.N,Net-(D4-K)*%
X115500000Y-104500000D03*
%TO.P,D4,2,A_2*%
%TO.N,/555_OUT*%
X114798860Y-102573638D03*
%TD*%
D15*
%TO.P,D2,1,K_1*%
%TO.N,Net-(D2-K)*%
X121070384Y-76682284D03*
%TO.P,D2,2,A_2*%
%TO.N,/555_OUT*%
X119500000Y-78000000D03*
%TD*%
D16*
%TO.P,D3,1,K_1*%
%TO.N,Net-(D3-K)*%
X113000000Y-90000000D03*
%TO.P,D3,2,A_2*%
%TO.N,/555_OUT*%
X113355974Y-87981146D03*
%TD*%
D17*
%TO.P,D6,1,K_1*%
%TO.N,Net-(D6-K)*%
X157000000Y-82000000D03*
%TO.P,D6,2,A_2*%
%TO.N,/555_OUT*%
X154949994Y-82000010D03*
%TD*%
D18*
%TO.P,D7,1,K_1*%
%TO.N,Net-(D7-K)*%
X182929616Y-77682284D03*
%TO.P,D7,2,A_2*%
%TO.N,/555_OUT*%
X184500000Y-79000000D03*
%TD*%
D19*
%TO.P,D10,1,K_1*%
%TO.N,Net-(D10-K)*%
X182500000Y-116000000D03*
%TO.P,D10,2,A_2*%
%TO.N,/555_OUT*%
X183525002Y-114224650D03*
%TD*%
D20*
%TO.N,Net-(D1-K)*%
X144000000Y-82000000D03*
%TO.N,Net-(D5-K)*%
X121942463Y-118392463D03*
%TO.N,Net-(D4-K)*%
X116310341Y-106015700D03*
%TO.N,Net-(D3-K)*%
X112538209Y-91692030D03*
%TO.N,Net-(D2-K)*%
X122463956Y-75664817D03*
%TO.N,/555_OUT*%
X119132400Y-113561701D03*
X114265134Y-100819893D03*
X113778407Y-86461457D03*
X118054648Y-79317005D03*
%TO.N,Net-(D6-K)*%
X159000000Y-82000000D03*
%TO.N,Net-(D10-K)*%
X181497778Y-117744362D03*
%TO.N,Net-(D9-K)*%
X186591025Y-106653948D03*
%TO.N,Net-(D8-K)*%
X189754748Y-92017383D03*
%TO.N,Net-(D7-K)*%
X181636843Y-76650727D03*
%TO.N,/555_OUT*%
X184418138Y-112807563D03*
X188500000Y-101500000D03*
X188500000Y-87000000D03*
X185601188Y-80203210D03*
X151705982Y-92713257D03*
X151346588Y-83228812D03*
%TD*%
%TO.N,Net-(D1-K)*%
D21*
X144000010Y-81999990D02*
X144000000Y-82000000D01*
X145949994Y-81999990D02*
X144000010Y-81999990D01*
%TO.N,Net-(D5-K)*%
D22*
X121000000Y-117450000D02*
X121942463Y-118392463D01*
X121000000Y-117000000D02*
X121000000Y-117450000D01*
%TO.N,Net-(D4-K)*%
X115500000Y-105205359D02*
X116310341Y-106015700D01*
X115500000Y-104500000D02*
X115500000Y-105205359D01*
%TO.N,Net-(D3-K)*%
X113000000Y-91230239D02*
X112538209Y-91692030D01*
X113000000Y-90000000D02*
X113000000Y-91230239D01*
%TO.N,Net-(D2-K)*%
X121446489Y-76682284D02*
X122463956Y-75664817D01*
X121070384Y-76682284D02*
X121446489Y-76682284D01*
%TO.N,/555_OUT*%
X119974998Y-114404299D02*
X119132400Y-113561701D01*
X119974998Y-115224650D02*
X119974998Y-114404299D01*
D21*
X114265134Y-100819893D02*
X114265134Y-102039912D01*
X114265134Y-102039912D02*
X114798860Y-102573638D01*
D22*
X113355974Y-86883890D02*
X113778407Y-86461457D01*
X113355974Y-87981146D02*
X113355974Y-86883890D01*
D21*
X118182995Y-79317005D02*
X119500000Y-78000000D01*
X118054648Y-79317005D02*
X118182995Y-79317005D01*
%TO.N,Net-(D6-K)*%
D22*
X157000000Y-82000000D02*
X159000000Y-82000000D01*
%TO.N,Net-(D10-K)*%
X182500000Y-116742140D02*
X181497778Y-117744362D01*
X182500000Y-116000000D02*
X182500000Y-116742140D01*
%TO.N,Net-(D9-K)*%
X186591025Y-105634207D02*
X186591025Y-106653948D01*
X187298864Y-104926368D02*
X186591025Y-105634207D01*
%TO.N,Net-(D8-K)*%
X189355978Y-91618613D02*
X189754748Y-92017383D01*
X189355978Y-90518848D02*
X189355978Y-91618613D01*
%TO.N,Net-(D7-K)*%
X182668400Y-77682284D02*
X181636843Y-76650727D01*
X182929616Y-77682284D02*
X182668400Y-77682284D01*
%TO.N,/555_OUT*%
D21*
X184418138Y-112807563D02*
X184418138Y-113331514D01*
X184418138Y-113331514D02*
X183525002Y-114224650D01*
X188500000Y-102500000D02*
X188000000Y-103000000D01*
X188500000Y-101500000D02*
X188500000Y-102500000D01*
X188500000Y-87000000D02*
X188500000Y-88000000D01*
X188500000Y-88000000D02*
X189000000Y-88500000D01*
D22*
X184500000Y-79102022D02*
X185601188Y-80203210D01*
X184500000Y-79000000D02*
X184500000Y-79102022D01*
D23*
X149228812Y-83228812D02*
X148000000Y-82000000D01*
X151346588Y-83228812D02*
X149228812Y-83228812D01*
X151346588Y-83228812D02*
X153721192Y-83228812D01*
X153721192Y-83228812D02*
X154949994Y-82000010D01*
%TD*%
%TA.AperFunction,Conductor*%
%TO.N,GND*%
G36*
X172231557Y-62858833D02*
G01*
X172239679Y-62859298D01*
X172551437Y-62887504D01*
X172565379Y-62889570D01*
X172721558Y-62921878D01*
X172728988Y-62923415D01*
X172742518Y-62927021D01*
X172934318Y-62989937D01*
X172947391Y-62995063D01*
X172951703Y-62997043D01*
X172978326Y-63009266D01*
X173031038Y-63055127D01*
X173050588Y-63122206D01*
X173050509Y-63126375D01*
X173048642Y-63178727D01*
X173047214Y-63193581D01*
X173026821Y-63323191D01*
X173024603Y-63334083D01*
X172981616Y-63505484D01*
X172979977Y-63511396D01*
X172912636Y-63732842D01*
X172911205Y-63737250D01*
X172821233Y-63997719D01*
X172819857Y-64001503D01*
X172715724Y-64273966D01*
X172713617Y-64279127D01*
X172515594Y-64734713D01*
X172515593Y-64734714D01*
X172512070Y-64742818D01*
X172511500Y-64743542D01*
X172485900Y-64803025D01*
X172485853Y-64803134D01*
X172485676Y-64803542D01*
X172457634Y-64868060D01*
X172456284Y-64871841D01*
X172297572Y-65240636D01*
X172297573Y-65240637D01*
X172292926Y-65251432D01*
X172282576Y-65266717D01*
X172266984Y-65311716D01*
X172265197Y-65315869D01*
X172265192Y-65315883D01*
X172248139Y-65355510D01*
X172247169Y-65362170D01*
X172241631Y-65384889D01*
X172127203Y-65715154D01*
X172127202Y-65715155D01*
X172123691Y-65725286D01*
X172112730Y-65745070D01*
X172102212Y-65787275D01*
X172100401Y-65792504D01*
X172100396Y-65792523D01*
X172087959Y-65828422D01*
X172087105Y-65840305D01*
X172083745Y-65861391D01*
X172031059Y-66072832D01*
X172031060Y-66072833D01*
X172029154Y-66080484D01*
X172016800Y-66112222D01*
X172013291Y-66144146D01*
X172011269Y-66152266D01*
X172011267Y-66152268D01*
X172005527Y-66175306D01*
X172005526Y-66175316D01*
X172005987Y-66201480D01*
X172005264Y-66217204D01*
X171990949Y-66347476D01*
X171990854Y-66348347D01*
X171983188Y-66410407D01*
X171983662Y-66413803D01*
X171983288Y-66417214D01*
X171983288Y-66417216D01*
X171983288Y-66417220D01*
X171992648Y-66478179D01*
X171992891Y-66479834D01*
X171994002Y-66487784D01*
X171995161Y-66502057D01*
X171995183Y-66503035D01*
X172004571Y-66563493D01*
X172004845Y-66565351D01*
X172013309Y-66625900D01*
X172013571Y-66626848D01*
X172013570Y-66626848D01*
X172014549Y-66630389D01*
X172014568Y-66630454D01*
X172014930Y-66631762D01*
X172015131Y-66632326D01*
X172015404Y-66633261D01*
X172040098Y-66689183D01*
X172040842Y-66690904D01*
X172064707Y-66747243D01*
X172065203Y-66748085D01*
X172071748Y-66760853D01*
X172082684Y-66785619D01*
X172086598Y-66795638D01*
X172099128Y-66832335D01*
X172099129Y-66832336D01*
X172105316Y-66841559D01*
X172111378Y-66850596D01*
X172120261Y-66870711D01*
X172147940Y-66905105D01*
X172150938Y-66909574D01*
X172153933Y-66914039D01*
X172160279Y-66924598D01*
X172176714Y-66955303D01*
X172176716Y-66955305D01*
X172176718Y-66955308D01*
X172187019Y-66966294D01*
X172199541Y-66982033D01*
X172207938Y-66994551D01*
X172234171Y-67017474D01*
X172243029Y-67026026D01*
X172245768Y-67028947D01*
X172255038Y-67040072D01*
X172272469Y-67063665D01*
X172288566Y-67076489D01*
X172301758Y-67088659D01*
X172315838Y-67103675D01*
X172315841Y-67103678D01*
X172340761Y-67119155D01*
X172352571Y-67127480D01*
X172354335Y-67128885D01*
X172368293Y-67141873D01*
X172380360Y-67154973D01*
X172413154Y-67175745D01*
X172443512Y-67199930D01*
X172468583Y-67210854D01*
X172476651Y-67215964D01*
X172485803Y-67221761D01*
X172501736Y-67233750D01*
X172513338Y-67244043D01*
X172549699Y-67262233D01*
X172584042Y-67283986D01*
X172608385Y-67291591D01*
X172771741Y-67373312D01*
X172796414Y-67385655D01*
X172817081Y-67398685D01*
X172820294Y-67401185D01*
X172862461Y-67418982D01*
X172869708Y-67422321D01*
X172890121Y-67432533D01*
X172910634Y-67442795D01*
X172914616Y-67443610D01*
X172937951Y-67450846D01*
X173055915Y-67500638D01*
X173175344Y-67551048D01*
X173268403Y-67590327D01*
X173273988Y-67594433D01*
X173329044Y-67615923D01*
X173383437Y-67638882D01*
X173383439Y-67638882D01*
X173391274Y-67641038D01*
X173391063Y-67641801D01*
X173403908Y-67645144D01*
X173924310Y-67848276D01*
X173927034Y-67850224D01*
X173985637Y-67872214D01*
X174043953Y-67894977D01*
X174043956Y-67894977D01*
X174044191Y-67895069D01*
X174057610Y-67899221D01*
X176072105Y-68655142D01*
X176072099Y-68655156D01*
X176072236Y-68655191D01*
X176459461Y-68801032D01*
X176461035Y-68801640D01*
X177436316Y-69187119D01*
X177757637Y-69314122D01*
X177760909Y-69315469D01*
X178141067Y-69478416D01*
X178907956Y-69807128D01*
X178911518Y-69808723D01*
X179567082Y-70114711D01*
X179952166Y-70294451D01*
X179956002Y-70296323D01*
X180921324Y-70788038D01*
X180925308Y-70790159D01*
X181843333Y-71300687D01*
X181846357Y-71302425D01*
X182290850Y-71566248D01*
X182292854Y-71567462D01*
X182690256Y-71813619D01*
X182733998Y-71840713D01*
X182735975Y-71841965D01*
X183178874Y-72128065D01*
X183180761Y-72129309D01*
X183439683Y-72303559D01*
X183620427Y-72425197D01*
X183622326Y-72426500D01*
X184072731Y-72741972D01*
X184074501Y-72743237D01*
X184168264Y-72811497D01*
X184524354Y-73070735D01*
X184526132Y-73072054D01*
X184997399Y-73428191D01*
X184999090Y-73429492D01*
X185473193Y-73800797D01*
X185474773Y-73802056D01*
X185984903Y-74215461D01*
X185986418Y-74216708D01*
X186502060Y-74648278D01*
X186504080Y-74650006D01*
X186968828Y-75056238D01*
X186971060Y-75058237D01*
X187330126Y-75387728D01*
X187331967Y-75389452D01*
X187621083Y-75665798D01*
X187689347Y-75731046D01*
X187691097Y-75732752D01*
X187780923Y-75822089D01*
X188053721Y-76093402D01*
X188055411Y-76095116D01*
X188414501Y-76466396D01*
X188416088Y-76468068D01*
X188777803Y-76856582D01*
X188779346Y-76858270D01*
X189136533Y-77256585D01*
X189138008Y-77258261D01*
X189494991Y-77671370D01*
X189496444Y-77673084D01*
X189847612Y-78094669D01*
X189848975Y-78096334D01*
X190197206Y-78529945D01*
X190198475Y-78531555D01*
X190539838Y-78972414D01*
X190541040Y-78973994D01*
X190861088Y-79402710D01*
X190876265Y-79423040D01*
X190877550Y-79424794D01*
X191039751Y-79650209D01*
X191203329Y-79877540D01*
X191205155Y-79880149D01*
X191586241Y-80440187D01*
X191834720Y-80805349D01*
X191837107Y-80808993D01*
X192423938Y-81740107D01*
X192426225Y-81743884D01*
X192966218Y-82672407D01*
X192968419Y-82676354D01*
X193457351Y-83592340D01*
X193459471Y-83596500D01*
X193894405Y-84490835D01*
X193896447Y-84495252D01*
X194275905Y-85360256D01*
X194277862Y-85364979D01*
X194601625Y-86194371D01*
X194603481Y-86199451D01*
X194873767Y-86992303D01*
X194875014Y-86996165D01*
X194948380Y-87236899D01*
X195009070Y-87436043D01*
X195010890Y-87442013D01*
X195012012Y-87445925D01*
X195070491Y-87663179D01*
X195206713Y-88169253D01*
X195208183Y-88175317D01*
X195357087Y-88865077D01*
X195358033Y-88869929D01*
X195419766Y-89223735D01*
X195420284Y-89226947D01*
X195444460Y-89390782D01*
X195473696Y-89588915D01*
X195475504Y-89601163D01*
X195475923Y-89604281D01*
X195526764Y-90021924D01*
X195527084Y-90024839D01*
X195570823Y-90472092D01*
X195571058Y-90474792D01*
X195611785Y-91012286D01*
X195611943Y-91014690D01*
X195645036Y-91602957D01*
X195645138Y-91605096D01*
X195675437Y-92382996D01*
X195675494Y-92384794D01*
X195696810Y-93257471D01*
X195696839Y-93259069D01*
X195714341Y-94776373D01*
X195714349Y-94777573D01*
X195717688Y-96578486D01*
X195717687Y-96579238D01*
X195708678Y-98717317D01*
X195708656Y-98719172D01*
X195682914Y-100062080D01*
X195682778Y-100065990D01*
X195640571Y-100897411D01*
X195640094Y-100903667D01*
X195579481Y-101499821D01*
X195578681Y-101506094D01*
X195539382Y-101762078D01*
X195538574Y-101766744D01*
X195492157Y-102007422D01*
X195490830Y-102013482D01*
X195382319Y-102455830D01*
X195380831Y-102461345D01*
X195237977Y-102946026D01*
X195237411Y-102947892D01*
X195207947Y-103042354D01*
X195207446Y-103043923D01*
X195053081Y-103516637D01*
X195052254Y-103519085D01*
X194890288Y-103982148D01*
X194889438Y-103984501D01*
X194721179Y-104436100D01*
X194720270Y-104438465D01*
X194551520Y-104864564D01*
X194550002Y-104868226D01*
X194237874Y-105588231D01*
X194235223Y-105593944D01*
X193989038Y-106091020D01*
X193984912Y-106098664D01*
X193938575Y-106177749D01*
X193887702Y-106225640D01*
X193819012Y-106238424D01*
X193754732Y-106212373D01*
X193640813Y-106122399D01*
X193636244Y-106118608D01*
X193162500Y-105706129D01*
X193161786Y-105705504D01*
X192732340Y-105325779D01*
X192732340Y-105325778D01*
X192722449Y-105317032D01*
X192714976Y-105306882D01*
X192673225Y-105273507D01*
X192670924Y-105271473D01*
X192670913Y-105271464D01*
X192633173Y-105238094D01*
X192633171Y-105238093D01*
X192633169Y-105238091D01*
X192631108Y-105236702D01*
X192611575Y-105224228D01*
X192544080Y-105170276D01*
X192322324Y-104993014D01*
X192307470Y-104976189D01*
X192271055Y-104952032D01*
X192256905Y-104940721D01*
X192236921Y-104924746D01*
X192226213Y-104920059D01*
X192207389Y-104909796D01*
X192095292Y-104835433D01*
X192095292Y-104835432D01*
X192093656Y-104834346D01*
X192046376Y-104800789D01*
X192038872Y-104798003D01*
X192032194Y-104793573D01*
X192032190Y-104793572D01*
X191979044Y-104775727D01*
X191975359Y-104774425D01*
X191946428Y-104763685D01*
X191940974Y-104761512D01*
X191893964Y-104741480D01*
X191893882Y-104741457D01*
X191893291Y-104741369D01*
X191881110Y-104739438D01*
X191870794Y-104735609D01*
X191836817Y-104732417D01*
X191834229Y-104732007D01*
X191834069Y-104732001D01*
X191827848Y-104731574D01*
X191821755Y-104731002D01*
X191819919Y-104730829D01*
X191814090Y-104730142D01*
X191763495Y-104722960D01*
X191763174Y-104722957D01*
X191758649Y-104723392D01*
X191748449Y-104724116D01*
X191739587Y-104723284D01*
X191724780Y-104725796D01*
X191718761Y-104726224D01*
X191716310Y-104725689D01*
X191704648Y-104726420D01*
X191702268Y-104726317D01*
X191702255Y-104726318D01*
X191667797Y-104733976D01*
X191655842Y-104736025D01*
X191620814Y-104740277D01*
X191620806Y-104740279D01*
X191607253Y-104745732D01*
X191587885Y-104751737D01*
X191573621Y-104754908D01*
X191573610Y-104754912D01*
X191542310Y-104771226D01*
X191531309Y-104776293D01*
X191529082Y-104777188D01*
X191528285Y-104777506D01*
X191517303Y-104781826D01*
X191515875Y-104782504D01*
X191498551Y-104789476D01*
X191498550Y-104789476D01*
X191486885Y-104798241D01*
X191472624Y-104807498D01*
X191472534Y-104807548D01*
X191469633Y-104809109D01*
X191418148Y-104835947D01*
X191412959Y-104839584D01*
X191407862Y-104843352D01*
X191366092Y-104883645D01*
X191363827Y-104885775D01*
X191325175Y-104921232D01*
X191318476Y-104926954D01*
X191301149Y-104940715D01*
X191301144Y-104940721D01*
X191292766Y-104952025D01*
X191279241Y-104967427D01*
X191269104Y-104977206D01*
X191269102Y-104977208D01*
X191269102Y-104977209D01*
X191258205Y-104995322D01*
X191250636Y-105007903D01*
X191244003Y-105017814D01*
X191223090Y-105046030D01*
X191210110Y-105060904D01*
X191198658Y-105072088D01*
X191198654Y-105072093D01*
X191181357Y-105101244D01*
X191181358Y-105101245D01*
X191178113Y-105106714D01*
X191154153Y-105139043D01*
X191144638Y-105163138D01*
X191139583Y-105171661D01*
X191139582Y-105171663D01*
X191120855Y-105203228D01*
X191106643Y-105222616D01*
X191103277Y-105226379D01*
X191103276Y-105226381D01*
X191083076Y-105266351D01*
X191079053Y-105273687D01*
X191056185Y-105312233D01*
X191056185Y-105312234D01*
X191054820Y-105317096D01*
X191046108Y-105339501D01*
X191007354Y-105416186D01*
X191001418Y-105427931D01*
X190993392Y-105437871D01*
X190971800Y-105486536D01*
X190970389Y-105489330D01*
X190970382Y-105489346D01*
X190947747Y-105534134D01*
X190947241Y-105535580D01*
X190939795Y-105558672D01*
X190893499Y-105663024D01*
X190893498Y-105663025D01*
X190888344Y-105674639D01*
X190879834Y-105686518D01*
X190861714Y-105734663D01*
X190860265Y-105737930D01*
X190860257Y-105737950D01*
X190840834Y-105781730D01*
X190840832Y-105781737D01*
X190840535Y-105783631D01*
X190834093Y-105808054D01*
X190681593Y-106213271D01*
X190677328Y-106224601D01*
X190668367Y-106239070D01*
X190654205Y-106286043D01*
X190652735Y-106289951D01*
X190652733Y-106289952D01*
X190636912Y-106331997D01*
X190636911Y-106332003D01*
X190636429Y-106336899D01*
X190631749Y-106360536D01*
X190515745Y-106745339D01*
X190512361Y-106756563D01*
X190503765Y-106773024D01*
X190493413Y-106819416D01*
X190492099Y-106823776D01*
X190492097Y-106823787D01*
X190479685Y-106864961D01*
X190479473Y-106871803D01*
X190476557Y-106894955D01*
X190415512Y-107168541D01*
X190412314Y-107182871D01*
X190409405Y-107188815D01*
X190397992Y-107247057D01*
X190397638Y-107248645D01*
X190397633Y-107248670D01*
X190385059Y-107305026D01*
X190384340Y-107313119D01*
X190383580Y-107313051D01*
X190382515Y-107326045D01*
X190350862Y-107487599D01*
X190349966Y-107491790D01*
X190263881Y-107862711D01*
X190263047Y-107866086D01*
X190149901Y-108298217D01*
X190149181Y-108300850D01*
X189983537Y-108881053D01*
X189982909Y-108883180D01*
X189786414Y-109527566D01*
X189785865Y-109529319D01*
X189532899Y-110316879D01*
X189532405Y-110318384D01*
X189250203Y-111159899D01*
X189249755Y-111161212D01*
X188925343Y-112093831D01*
X188924918Y-112095033D01*
X188579867Y-113055057D01*
X188579254Y-113056723D01*
X187854982Y-114984679D01*
X187854135Y-114986873D01*
X187162327Y-116727420D01*
X187161342Y-116729823D01*
X186559600Y-118155992D01*
X186558332Y-118158893D01*
X186071107Y-119236005D01*
X186069323Y-119239779D01*
X185697256Y-119993662D01*
X185694788Y-119998402D01*
X185575699Y-120215583D01*
X185573418Y-120219566D01*
X185438825Y-120444827D01*
X185436598Y-120448414D01*
X185268602Y-120708996D01*
X185266389Y-120712310D01*
X185085845Y-120973527D01*
X185083682Y-120976558D01*
X184888023Y-121242220D01*
X184885830Y-121245109D01*
X184687360Y-121498705D01*
X184683941Y-121502883D01*
X184292116Y-121960970D01*
X184286812Y-121966786D01*
X183956286Y-122306911D01*
X183949249Y-122313606D01*
X183745372Y-122492909D01*
X183706359Y-122527219D01*
X183695875Y-122535482D01*
X183626041Y-122584671D01*
X183559898Y-122607183D01*
X183492083Y-122590362D01*
X183491763Y-122590174D01*
X183344906Y-122503413D01*
X183340770Y-122500858D01*
X183011489Y-122288386D01*
X183008712Y-122286541D01*
X182612789Y-122015717D01*
X182610793Y-122014322D01*
X182141202Y-121679386D01*
X182139533Y-121678175D01*
X181642058Y-121310718D01*
X181639835Y-121309037D01*
X180859330Y-120704947D01*
X180717355Y-120595062D01*
X180714255Y-120592582D01*
X180668932Y-120555116D01*
X179998499Y-120000911D01*
X179998485Y-120000891D01*
X179998482Y-120000896D01*
X179589591Y-119662748D01*
X179578986Y-119653978D01*
X179572654Y-119645798D01*
X179528333Y-119612089D01*
X179526371Y-119610466D01*
X179485408Y-119576591D01*
X179485407Y-119576590D01*
X179485404Y-119576588D01*
X179478524Y-119572274D01*
X179478635Y-119572095D01*
X179465047Y-119563955D01*
X179207202Y-119367845D01*
X178919541Y-119149058D01*
X178911360Y-119139507D01*
X178867231Y-119109272D01*
X178844305Y-119091835D01*
X178824657Y-119076891D01*
X178822352Y-119075574D01*
X178802130Y-119064667D01*
X178435213Y-118813278D01*
X178425466Y-118806600D01*
X178412670Y-118793668D01*
X178371301Y-118769490D01*
X178367382Y-118766805D01*
X178331768Y-118742404D01*
X178331759Y-118742400D01*
X178325739Y-118740278D01*
X178304400Y-118730390D01*
X178137859Y-118633058D01*
X178137858Y-118633057D01*
X178127752Y-118627150D01*
X178113692Y-118614891D01*
X178071073Y-118594024D01*
X178067120Y-118591714D01*
X178030088Y-118570072D01*
X178030079Y-118570068D01*
X178023372Y-118568233D01*
X178001581Y-118560001D01*
X177996922Y-118557720D01*
X177976407Y-118545068D01*
X177975947Y-118544718D01*
X177972508Y-118542104D01*
X177947764Y-118531984D01*
X177930913Y-118525092D01*
X177923329Y-118521689D01*
X177882966Y-118501928D01*
X177882956Y-118501924D01*
X177878147Y-118500982D01*
X177855066Y-118494072D01*
X177701391Y-118431223D01*
X177666474Y-118412463D01*
X177640661Y-118406385D01*
X177631630Y-118402692D01*
X177616112Y-118396345D01*
X177616107Y-118396344D01*
X177583231Y-118392165D01*
X177570451Y-118389855D01*
X177476671Y-118367776D01*
X177434021Y-118357735D01*
X177380731Y-118342791D01*
X177370019Y-118342666D01*
X177359598Y-118340213D01*
X177306918Y-118341823D01*
X177301692Y-118341873D01*
X177181782Y-118340482D01*
X177181781Y-118340482D01*
X177177441Y-118340431D01*
X177129262Y-118336487D01*
X177111782Y-118339669D01*
X177099858Y-118339531D01*
X177099857Y-118339530D01*
X177094016Y-118339463D01*
X177094012Y-118339464D01*
X177051374Y-118350359D01*
X177042903Y-118352210D01*
X177029211Y-118354703D01*
X177013068Y-118356560D01*
X176988226Y-118357777D01*
X176988222Y-118357778D01*
X176964373Y-118365435D01*
X176963992Y-118365557D01*
X176956452Y-118367950D01*
X176924032Y-118373855D01*
X176895817Y-118387202D01*
X176887858Y-118389730D01*
X176884004Y-118389814D01*
X176872076Y-118393623D01*
X176850544Y-118397458D01*
X176826913Y-118408525D01*
X176812246Y-118414288D01*
X176787397Y-118422268D01*
X176767364Y-118435180D01*
X176752792Y-118443241D01*
X176750653Y-118444243D01*
X176733832Y-118450678D01*
X176714282Y-118456569D01*
X176714280Y-118456570D01*
X176714279Y-118456570D01*
X176689194Y-118472103D01*
X176676513Y-118478969D01*
X176649797Y-118491482D01*
X176649791Y-118491486D01*
X176634174Y-118504635D01*
X176619619Y-118515186D01*
X176618439Y-118515916D01*
X176617302Y-118516620D01*
X176599929Y-118525572D01*
X176584638Y-118531980D01*
X176584631Y-118531984D01*
X176558278Y-118552377D01*
X176558279Y-118552378D01*
X176553161Y-118556338D01*
X176519338Y-118577284D01*
X176501282Y-118596488D01*
X176493540Y-118602480D01*
X176493533Y-118602487D01*
X176477708Y-118614734D01*
X176459642Y-118626361D01*
X176449417Y-118631750D01*
X176449411Y-118631755D01*
X176421282Y-118657794D01*
X176412943Y-118664857D01*
X176382626Y-118688320D01*
X176382624Y-118688322D01*
X176375628Y-118697518D01*
X176361181Y-118713430D01*
X176341823Y-118731350D01*
X176323401Y-118745447D01*
X176317292Y-118749272D01*
X176317285Y-118749278D01*
X176288232Y-118780490D01*
X176288233Y-118780491D01*
X176285083Y-118783875D01*
X176250410Y-118815974D01*
X176240356Y-118831931D01*
X176232419Y-118840459D01*
X176232416Y-118840460D01*
X176180981Y-118895724D01*
X176162114Y-118912269D01*
X176160204Y-118913628D01*
X176129973Y-118950213D01*
X176125156Y-118955704D01*
X176092800Y-118990470D01*
X176092792Y-118990480D01*
X176091692Y-118992555D01*
X176077748Y-119013415D01*
X176012949Y-119091835D01*
X176012950Y-119091836D01*
X176004822Y-119101672D01*
X175993605Y-119110654D01*
X175962978Y-119152312D01*
X175960738Y-119155024D01*
X175930035Y-119192184D01*
X175930032Y-119192189D01*
X175929364Y-119193651D01*
X175916501Y-119215535D01*
X175642087Y-119588814D01*
X175642086Y-119588813D01*
X175633796Y-119600089D01*
X175626666Y-119606246D01*
X175594869Y-119653041D01*
X175593506Y-119654897D01*
X175593493Y-119654916D01*
X175561330Y-119698667D01*
X175557415Y-119705784D01*
X175557100Y-119705611D01*
X175550042Y-119719018D01*
X175191929Y-120246085D01*
X175187179Y-120253075D01*
X175186803Y-120253403D01*
X175150036Y-120307744D01*
X175123194Y-120347250D01*
X175109584Y-120367282D01*
X175108480Y-120369162D01*
X175100358Y-120381167D01*
X175098554Y-120383763D01*
X174942829Y-120601750D01*
X174940180Y-120605320D01*
X174773753Y-120821465D01*
X174771112Y-120824776D01*
X174584026Y-121051307D01*
X174581415Y-121054365D01*
X174525979Y-121117199D01*
X174381139Y-121281364D01*
X174378538Y-121284221D01*
X174266801Y-121403179D01*
X174173150Y-121502883D01*
X174157113Y-121519956D01*
X174154537Y-121522617D01*
X173919961Y-121757862D01*
X173917417Y-121760342D01*
X173661886Y-122002325D01*
X173659370Y-122004642D01*
X173391034Y-122245066D01*
X173388551Y-122247232D01*
X173100442Y-122491885D01*
X173097984Y-122493918D01*
X172848933Y-122694613D01*
X172848932Y-122694614D01*
X172841209Y-122700838D01*
X172839228Y-122701735D01*
X172789967Y-122742129D01*
X172789532Y-122742480D01*
X172789530Y-122742480D01*
X172740177Y-122782252D01*
X172739163Y-122783334D01*
X172739164Y-122783335D01*
X172737326Y-122785295D01*
X172700414Y-122836763D01*
X172699797Y-122837616D01*
X172662572Y-122888597D01*
X172661249Y-122891021D01*
X172661247Y-122891022D01*
X172660573Y-122892257D01*
X172638238Y-122951529D01*
X172637861Y-122952514D01*
X172615053Y-123011510D01*
X172614442Y-123014029D01*
X172614428Y-123014091D01*
X172614068Y-123015571D01*
X172608648Y-123070392D01*
X172607780Y-123079171D01*
X172600967Y-123142540D01*
X172601301Y-123144686D01*
X172600325Y-123154562D01*
X172580986Y-123350151D01*
X172580607Y-123353519D01*
X172500518Y-123986334D01*
X172499496Y-123992962D01*
X172403509Y-124520527D01*
X172401809Y-124528406D01*
X172285166Y-124994945D01*
X172282676Y-125003568D01*
X172142865Y-125429176D01*
X172139522Y-125438162D01*
X171971705Y-125840992D01*
X171968691Y-125847667D01*
X171885833Y-126017545D01*
X171882374Y-126024128D01*
X171670180Y-126400136D01*
X171664873Y-126408706D01*
X171421901Y-126767624D01*
X171416015Y-126775610D01*
X171130691Y-127131988D01*
X171126016Y-127137491D01*
X170973424Y-127306851D01*
X170970211Y-127310284D01*
X170801389Y-127483940D01*
X170798131Y-127487170D01*
X170617173Y-127660029D01*
X170613893Y-127663051D01*
X170419603Y-127835718D01*
X170416319Y-127838535D01*
X170207906Y-128011124D01*
X170204640Y-128013737D01*
X169981711Y-128186011D01*
X169978477Y-128188428D01*
X169739126Y-128361246D01*
X169735939Y-128363471D01*
X169480947Y-128535686D01*
X169477818Y-128537731D01*
X169204044Y-128710850D01*
X169200986Y-128712723D01*
X168910194Y-128885040D01*
X168907184Y-128886767D01*
X168578733Y-129069179D01*
X168575900Y-129070705D01*
X168230546Y-129250940D01*
X168226784Y-129252823D01*
X167469281Y-129616010D01*
X167465013Y-129617957D01*
X166639380Y-129976058D01*
X166635831Y-129977533D01*
X165743926Y-130331954D01*
X165740960Y-130333089D01*
X164788308Y-130683682D01*
X164785823Y-130684567D01*
X163777578Y-131031448D01*
X163775491Y-131032145D01*
X162717033Y-131375426D01*
X162715284Y-131375979D01*
X161611649Y-131715945D01*
X161610186Y-131716386D01*
X160466237Y-132053401D01*
X160465024Y-132053751D01*
X159287029Y-132387796D01*
X159285633Y-132388183D01*
X156840295Y-133050853D01*
X156839054Y-133051183D01*
X154313504Y-133707589D01*
X154312908Y-133707742D01*
X152094577Y-134272564D01*
X152024753Y-134270030D01*
X152016805Y-134267073D01*
X151990883Y-134256409D01*
X151990330Y-134256180D01*
X151930599Y-134231269D01*
X151929971Y-134231103D01*
X151929355Y-134230938D01*
X151928327Y-134230659D01*
X151864497Y-134222413D01*
X151863933Y-134222339D01*
X151858173Y-134221566D01*
X151800019Y-134213767D01*
X151798488Y-134213764D01*
X151798487Y-134213763D01*
X151797614Y-134213761D01*
X151733758Y-134222325D01*
X151733317Y-134222384D01*
X151669322Y-134230652D01*
X151668179Y-134231122D01*
X151666957Y-134231286D01*
X151666954Y-134231286D01*
X151666954Y-134231287D01*
X151607618Y-134256033D01*
X151607063Y-134256263D01*
X151580561Y-134267165D01*
X151511073Y-134274465D01*
X151502838Y-134272667D01*
X150002996Y-133891410D01*
X150002477Y-133891277D01*
X146861497Y-133078386D01*
X146860203Y-133078044D01*
X144430770Y-132421248D01*
X144429000Y-132420755D01*
X142427810Y-131847775D01*
X142425627Y-131847128D01*
X140736661Y-131329813D01*
X140734074Y-131328990D01*
X139293860Y-130853128D01*
X139290850Y-130852090D01*
X138058651Y-130409561D01*
X138055187Y-130408259D01*
X137001609Y-129993987D01*
X136997652Y-129992351D01*
X136100100Y-129603134D01*
X136095603Y-129601076D01*
X135633580Y-129378430D01*
X135335520Y-129234797D01*
X135330441Y-129232204D01*
X135307700Y-129219925D01*
X134687616Y-128885105D01*
X134683667Y-128882879D01*
X134464004Y-128753684D01*
X134461338Y-128752070D01*
X134185477Y-128580347D01*
X134182391Y-128578362D01*
X133923708Y-128406509D01*
X133920554Y-128404343D01*
X133783990Y-128307416D01*
X133678672Y-128232666D01*
X133675474Y-128230318D01*
X133620295Y-128188428D01*
X133448737Y-128058186D01*
X133445523Y-128055661D01*
X133409725Y-128026553D01*
X149457264Y-128026553D01*
X149457264Y-128307416D01*
X149488706Y-128586479D01*
X149488709Y-128586497D01*
X149551203Y-128860302D01*
X149551207Y-128860314D01*
X149643964Y-129125396D01*
X149765817Y-129378427D01*
X149784005Y-129407373D01*
X149915241Y-129616233D01*
X150090348Y-129835810D01*
X150288939Y-130034401D01*
X150508516Y-130209508D01*
X150746319Y-130358930D01*
X150999356Y-130480786D01*
X151159561Y-130536844D01*
X151264434Y-130573541D01*
X151264446Y-130573545D01*
X151538255Y-130636040D01*
X151538261Y-130636040D01*
X151538269Y-130636042D01*
X151724311Y-130657003D01*
X151817333Y-130667484D01*
X151817336Y-130667485D01*
X151817339Y-130667485D01*
X152098192Y-130667485D01*
X152098193Y-130667484D01*
X152240819Y-130651414D01*
X152377258Y-130636042D01*
X152377263Y-130636041D01*
X152377273Y-130636040D01*
X152651082Y-130573545D01*
X152916172Y-130480786D01*
X153169209Y-130358930D01*
X153407012Y-130209508D01*
X153626589Y-130034401D01*
X153825180Y-129835810D01*
X154000287Y-129616233D01*
X154149709Y-129378430D01*
X154271565Y-129125393D01*
X154364324Y-128860303D01*
X154426819Y-128586494D01*
X154427736Y-128578362D01*
X154447403Y-128403804D01*
X154458264Y-128307410D01*
X154458264Y-128026560D01*
X154442088Y-127882990D01*
X154426821Y-127747490D01*
X154426818Y-127747472D01*
X154364324Y-127473667D01*
X154364320Y-127473655D01*
X154339958Y-127404032D01*
X154271565Y-127208577D01*
X154149709Y-126955540D01*
X154000287Y-126717737D01*
X153825180Y-126498160D01*
X153626589Y-126299569D01*
X153407012Y-126124462D01*
X153169209Y-125975040D01*
X153169206Y-125975038D01*
X152916175Y-125853185D01*
X152651093Y-125760428D01*
X152651081Y-125760424D01*
X152377276Y-125697930D01*
X152377258Y-125697927D01*
X152098195Y-125666485D01*
X152098189Y-125666485D01*
X151817339Y-125666485D01*
X151817332Y-125666485D01*
X151538269Y-125697927D01*
X151538251Y-125697930D01*
X151264446Y-125760424D01*
X151264434Y-125760428D01*
X150999352Y-125853185D01*
X150746321Y-125975038D01*
X150508517Y-126124461D01*
X150288939Y-126299568D01*
X150090347Y-126498160D01*
X149915240Y-126717738D01*
X149765817Y-126955542D01*
X149643964Y-127208573D01*
X149551207Y-127473655D01*
X149551203Y-127473667D01*
X149488709Y-127747472D01*
X149488706Y-127747490D01*
X149457264Y-128026553D01*
X133409725Y-128026553D01*
X133233345Y-127883133D01*
X133230115Y-127880412D01*
X133226610Y-127877355D01*
X133118659Y-127783197D01*
X133032038Y-127707643D01*
X133028746Y-127704666D01*
X132843182Y-127530735D01*
X132839902Y-127527545D01*
X132667414Y-127353478D01*
X132664160Y-127350067D01*
X132502179Y-127173670D01*
X132498978Y-127170044D01*
X132466675Y-127131988D01*
X132349187Y-126993576D01*
X132346069Y-126989751D01*
X132343384Y-126986319D01*
X132204984Y-126809411D01*
X132201961Y-126805380D01*
X132184890Y-126781628D01*
X132072256Y-126624915D01*
X132069357Y-126620700D01*
X132018846Y-126543904D01*
X131946736Y-126434268D01*
X131943978Y-126429877D01*
X131832070Y-126243170D01*
X131829489Y-126238651D01*
X131723170Y-126042983D01*
X131720765Y-126038325D01*
X131630084Y-125853185D01*
X131626596Y-125846065D01*
X131623720Y-125839750D01*
X131590236Y-125760428D01*
X131473550Y-125484007D01*
X131471046Y-125477578D01*
X131390803Y-125253249D01*
X131389193Y-125248441D01*
X131317730Y-125019554D01*
X131316340Y-125014765D01*
X131245909Y-124752553D01*
X131244755Y-124747899D01*
X131243422Y-124742042D01*
X131185033Y-124485438D01*
X131184078Y-124480838D01*
X131173953Y-124426932D01*
X131180924Y-124357411D01*
X131192403Y-124335628D01*
X131216397Y-124299357D01*
X131216412Y-124299367D01*
X131216488Y-124299218D01*
X131252761Y-124244557D01*
X131252875Y-124244215D01*
X131253075Y-124243914D01*
X131273884Y-124181670D01*
X131294723Y-124119632D01*
X131294723Y-124119629D01*
X131294859Y-124118932D01*
X131294860Y-124118930D01*
X131298840Y-124053582D01*
X131302922Y-123988103D01*
X131302919Y-123988092D01*
X131302871Y-123987396D01*
X131302872Y-123987390D01*
X131289884Y-123923636D01*
X131289899Y-123923454D01*
X131289850Y-123923465D01*
X131276799Y-123858935D01*
X131276780Y-123858879D01*
X131276631Y-123858579D01*
X131276566Y-123858257D01*
X131247383Y-123799762D01*
X131218135Y-123740927D01*
X131218133Y-123740925D01*
X131217738Y-123740338D01*
X131217735Y-123740335D01*
X131217735Y-123740334D01*
X131174366Y-123691339D01*
X131130927Y-123642125D01*
X131130564Y-123641809D01*
X131130562Y-123641805D01*
X131130395Y-123641661D01*
X131130388Y-123641656D01*
X131130387Y-123641655D01*
X131089050Y-123614310D01*
X131075725Y-123605495D01*
X131075578Y-123605398D01*
X131060764Y-123595568D01*
X130948561Y-123521113D01*
X130857049Y-123460388D01*
X130854785Y-123458849D01*
X130853379Y-123457870D01*
X130817665Y-123431544D01*
X130812810Y-123429641D01*
X130802129Y-123422209D01*
X130802006Y-123422056D01*
X130801116Y-123421497D01*
X130307138Y-123070392D01*
X130189905Y-122987066D01*
X130185067Y-122983446D01*
X129588876Y-122514121D01*
X129584038Y-122510109D01*
X129531399Y-122464158D01*
X129036497Y-122032132D01*
X129031680Y-122027698D01*
X128533463Y-121544134D01*
X128528699Y-121539248D01*
X128079920Y-121052934D01*
X128075239Y-121047560D01*
X128062002Y-121031450D01*
X127675470Y-120561009D01*
X127670918Y-120555116D01*
X127491416Y-120307744D01*
X127312932Y-120061773D01*
X127310925Y-120058924D01*
X127267471Y-119995308D01*
X127260500Y-119983807D01*
X127257813Y-119978777D01*
X127257811Y-119978772D01*
X127223480Y-119930849D01*
X127221921Y-119928621D01*
X127188690Y-119879970D01*
X127188689Y-119879969D01*
X127184877Y-119875711D01*
X127176463Y-119865218D01*
X127071728Y-119719018D01*
X126860600Y-119424303D01*
X126854312Y-119410243D01*
X126822346Y-119370904D01*
X126792825Y-119329695D01*
X126790591Y-119327861D01*
X126773032Y-119310215D01*
X126769817Y-119306259D01*
X126603729Y-119101860D01*
X126566744Y-119056344D01*
X126566744Y-119056343D01*
X126560138Y-119048213D01*
X126548537Y-119027657D01*
X126518750Y-118997281D01*
X126491922Y-118964264D01*
X126481285Y-118956563D01*
X126465464Y-118942940D01*
X126436721Y-118913628D01*
X126304267Y-118778552D01*
X126284192Y-118751910D01*
X126258326Y-118731701D01*
X126235351Y-118708271D01*
X126213574Y-118695411D01*
X126200285Y-118686352D01*
X126065777Y-118581262D01*
X126065776Y-118581262D01*
X126061536Y-118577949D01*
X126029226Y-118547848D01*
X126009811Y-118537536D01*
X125992488Y-118524002D01*
X125992486Y-118524001D01*
X125956793Y-118508849D01*
X125947084Y-118504221D01*
X125813149Y-118433087D01*
X125810567Y-118431715D01*
X125764033Y-118404119D01*
X125752532Y-118400892D01*
X125741979Y-118395288D01*
X125692070Y-118383790D01*
X125686447Y-118382354D01*
X125554026Y-118345208D01*
X125512109Y-118329532D01*
X125490833Y-118327481D01*
X125490783Y-118327467D01*
X125480214Y-118324502D01*
X125480213Y-118324501D01*
X125470245Y-118321705D01*
X125430703Y-118321242D01*
X125420262Y-118320679D01*
X125416000Y-118320268D01*
X125403578Y-118319071D01*
X125386104Y-118316114D01*
X125365566Y-118311107D01*
X125365565Y-118311106D01*
X125336795Y-118311758D01*
X125336722Y-118311759D01*
X125336439Y-118311766D01*
X125329352Y-118311917D01*
X125293443Y-118308457D01*
X125264452Y-118313305D01*
X125255484Y-118313497D01*
X125251053Y-118312298D01*
X125237584Y-118312584D01*
X125218194Y-118310181D01*
X125188792Y-118314278D01*
X125174491Y-118315432D01*
X125144810Y-118316104D01*
X125144806Y-118316105D01*
X125125386Y-118321783D01*
X125107704Y-118325579D01*
X125100527Y-118326579D01*
X125081425Y-118327749D01*
X125063888Y-118327467D01*
X125063884Y-118327467D01*
X125032478Y-118335343D01*
X125032477Y-118335342D01*
X125026017Y-118336962D01*
X124987379Y-118342348D01*
X124962382Y-118352923D01*
X124953069Y-118355258D01*
X124953067Y-118355258D01*
X124953067Y-118355259D01*
X124946041Y-118357021D01*
X124926060Y-118360327D01*
X124911398Y-118361534D01*
X124911394Y-118361535D01*
X124878260Y-118373403D01*
X124878261Y-118373404D01*
X124872517Y-118375461D01*
X124832483Y-118385503D01*
X124810755Y-118397585D01*
X124801187Y-118401013D01*
X124801185Y-118401013D01*
X124773504Y-118410929D01*
X124752305Y-118416467D01*
X124747113Y-118417342D01*
X124741970Y-118418209D01*
X124706131Y-118434592D01*
X124701349Y-118436778D01*
X124659305Y-118451839D01*
X124641652Y-118464063D01*
X124631646Y-118468638D01*
X124631647Y-118468638D01*
X124600058Y-118483078D01*
X124578314Y-118490666D01*
X124570902Y-118492501D01*
X124533929Y-118512916D01*
X124529815Y-118515187D01*
X124487150Y-118534691D01*
X124472350Y-118546919D01*
X124462222Y-118552512D01*
X124462221Y-118552512D01*
X124462220Y-118552513D01*
X124361632Y-118608055D01*
X124338607Y-118617882D01*
X124336232Y-118618622D01*
X124336231Y-118618622D01*
X124296234Y-118643918D01*
X124289899Y-118647666D01*
X124248450Y-118670554D01*
X124246658Y-118672280D01*
X124226951Y-118687737D01*
X124114032Y-118759153D01*
X124114031Y-118759153D01*
X124101929Y-118766806D01*
X124094287Y-118769459D01*
X124046380Y-118801938D01*
X124044702Y-118803000D01*
X124008881Y-118825655D01*
X124001931Y-118829741D01*
X124001848Y-118829785D01*
X124001777Y-118829838D01*
X124001776Y-118829837D01*
X123998512Y-118832213D01*
X123997399Y-118832919D01*
X123997097Y-118833244D01*
X123993157Y-118836114D01*
X123993145Y-118836125D01*
X123957129Y-118862365D01*
X123953699Y-118864776D01*
X123907895Y-118895831D01*
X123901822Y-118901231D01*
X123901490Y-118900858D01*
X123890802Y-118910687D01*
X123721214Y-119034238D01*
X123709645Y-119042665D01*
X123702166Y-119045827D01*
X123656533Y-119081359D01*
X123654910Y-119082542D01*
X123654903Y-119082548D01*
X123609703Y-119115479D01*
X123603819Y-119121078D01*
X123603421Y-119120660D01*
X123593311Y-119130588D01*
X123367712Y-119306259D01*
X123356433Y-119315040D01*
X123348994Y-119318472D01*
X123304550Y-119355441D01*
X123302974Y-119356669D01*
X123258922Y-119390971D01*
X123253219Y-119396757D01*
X123252816Y-119396360D01*
X123242991Y-119406649D01*
X122551270Y-119982057D01*
X122551269Y-119982058D01*
X122549167Y-119983807D01*
X122540445Y-119991062D01*
X122532362Y-119995145D01*
X122489898Y-120033107D01*
X122488221Y-120034503D01*
X122488205Y-120034517D01*
X122446093Y-120069548D01*
X122440580Y-120075514D01*
X122440270Y-120075228D01*
X122430373Y-120086325D01*
X121842528Y-120611879D01*
X121842527Y-120611878D01*
X121835688Y-120617991D01*
X121834526Y-120618587D01*
X121786728Y-120661764D01*
X121786393Y-120662065D01*
X121786246Y-120662198D01*
X121734894Y-120708108D01*
X121730913Y-120712186D01*
X121315532Y-121087430D01*
X121311797Y-121090671D01*
X120775451Y-121537677D01*
X120769961Y-121541996D01*
X120324787Y-121872378D01*
X120317717Y-121877255D01*
X119947346Y-122114221D01*
X119938298Y-122119485D01*
X119631917Y-122280836D01*
X119620459Y-122286144D01*
X119369651Y-122387149D01*
X119355416Y-122391903D01*
X119152784Y-122446186D01*
X119135644Y-122449505D01*
X118973140Y-122469237D01*
X118953463Y-122470051D01*
X118807057Y-122464462D01*
X118791229Y-122462836D01*
X118744942Y-122455054D01*
X118734283Y-122452776D01*
X118677846Y-122438094D01*
X118667319Y-122434850D01*
X118610510Y-122414538D01*
X118600418Y-122410420D01*
X118543984Y-122384435D01*
X118534446Y-122379532D01*
X118473478Y-122344779D01*
X118464716Y-122339288D01*
X118402441Y-122296538D01*
X118394523Y-122290624D01*
X118324720Y-122234005D01*
X118317714Y-122227871D01*
X118287963Y-122199782D01*
X118246110Y-122160265D01*
X118239989Y-122154064D01*
X118159084Y-122066124D01*
X118153830Y-122060028D01*
X118070330Y-121956527D01*
X118066284Y-121951226D01*
X117948967Y-121788641D01*
X117945955Y-121784272D01*
X117791642Y-121549898D01*
X117789284Y-121546174D01*
X117622835Y-121272676D01*
X117620969Y-121269507D01*
X117593456Y-121221125D01*
X117419410Y-120915060D01*
X117417903Y-120912329D01*
X117411029Y-120899499D01*
X117205318Y-120515532D01*
X117204124Y-120513244D01*
X116958777Y-120030428D01*
X116957738Y-120028334D01*
X116944453Y-120000912D01*
X116703312Y-119503146D01*
X116702423Y-119501268D01*
X116698646Y-119493125D01*
X116422152Y-118896962D01*
X116421425Y-118895366D01*
X116135174Y-118252610D01*
X116134482Y-118251025D01*
X116032565Y-118013290D01*
X115833812Y-117549672D01*
X115833255Y-117548348D01*
X115531032Y-116817068D01*
X115530479Y-116815706D01*
X115227689Y-116056569D01*
X115227237Y-116055415D01*
X114928391Y-115279281D01*
X114927653Y-115277311D01*
X114360289Y-113723092D01*
X114359346Y-113720413D01*
X114278895Y-113482854D01*
X118331900Y-113482854D01*
X118331900Y-113640547D01*
X118362661Y-113795190D01*
X118362664Y-113795202D01*
X118423002Y-113940873D01*
X118423009Y-113940886D01*
X118510610Y-114071989D01*
X118510613Y-114071993D01*
X118622107Y-114183487D01*
X118622111Y-114183490D01*
X118753214Y-114271091D01*
X118753227Y-114271098D01*
X118822135Y-114299640D01*
X118898903Y-114331438D01*
X118932305Y-114338082D01*
X118994214Y-114370466D01*
X119028789Y-114431181D01*
X119025050Y-114500951D01*
X118984184Y-114557623D01*
X118980706Y-114560229D01*
X118920460Y-114603731D01*
X118803829Y-114734789D01*
X118720562Y-114889216D01*
X118675154Y-115058680D01*
X118670052Y-115234049D01*
X118705530Y-115405865D01*
X118705530Y-115405867D01*
X118747821Y-115500114D01*
X118747830Y-115500133D01*
X118877388Y-115724533D01*
X119122832Y-116149654D01*
X119122834Y-116149659D01*
X119122838Y-116149665D01*
X119122839Y-116149666D01*
X119183327Y-116233434D01*
X119183329Y-116233436D01*
X119183331Y-116233438D01*
X119314384Y-116350065D01*
X119314385Y-116350066D01*
X119314387Y-116350067D01*
X119468811Y-116433332D01*
X119638275Y-116478740D01*
X119641595Y-116478836D01*
X119643777Y-116479546D01*
X119645426Y-116479788D01*
X119645384Y-116480069D01*
X119708035Y-116500456D01*
X119752240Y-116554565D01*
X119760174Y-116623982D01*
X119747149Y-116661625D01*
X119745565Y-116664562D01*
X119700156Y-116834030D01*
X119695054Y-117009399D01*
X119730532Y-117181215D01*
X119730532Y-117181217D01*
X119762006Y-117251357D01*
X119772832Y-117275483D01*
X119973313Y-117622726D01*
X120147834Y-117925004D01*
X120147836Y-117925009D01*
X120147840Y-117925015D01*
X120147841Y-117925016D01*
X120208329Y-118008784D01*
X120208331Y-118008786D01*
X120208333Y-118008788D01*
X120339386Y-118125415D01*
X120339387Y-118125416D01*
X120339389Y-118125417D01*
X120493813Y-118208682D01*
X120663277Y-118254090D01*
X120838644Y-118259192D01*
X120873716Y-118251950D01*
X120943349Y-118257670D01*
X120986472Y-118285707D01*
X121107888Y-118407123D01*
X121141373Y-118468446D01*
X121141824Y-118470612D01*
X121172724Y-118625954D01*
X121172727Y-118625964D01*
X121233065Y-118771635D01*
X121233072Y-118771648D01*
X121320673Y-118902751D01*
X121320676Y-118902755D01*
X121432170Y-119014249D01*
X121432174Y-119014252D01*
X121563277Y-119101853D01*
X121563290Y-119101860D01*
X121677238Y-119149058D01*
X121708966Y-119162200D01*
X121859700Y-119192183D01*
X121863616Y-119192962D01*
X121863619Y-119192963D01*
X121863621Y-119192963D01*
X122021307Y-119192963D01*
X122021308Y-119192962D01*
X122175960Y-119162200D01*
X122300404Y-119110654D01*
X122321635Y-119101860D01*
X122321635Y-119101859D01*
X122321642Y-119101857D01*
X122452752Y-119014252D01*
X122564252Y-118902752D01*
X122651857Y-118771642D01*
X122712200Y-118625960D01*
X122742963Y-118471305D01*
X122742963Y-118313621D01*
X122742963Y-118313618D01*
X122742962Y-118313616D01*
X122741936Y-118308457D01*
X122712200Y-118158966D01*
X122697524Y-118123534D01*
X122651860Y-118013290D01*
X122651853Y-118013277D01*
X122564252Y-117882174D01*
X122564249Y-117882170D01*
X122452755Y-117770676D01*
X122452747Y-117770670D01*
X122440614Y-117762563D01*
X122440564Y-117762530D01*
X122321648Y-117683072D01*
X122321635Y-117683065D01*
X122279265Y-117665515D01*
X180697278Y-117665515D01*
X180697278Y-117823208D01*
X180728039Y-117977851D01*
X180728042Y-117977863D01*
X180788380Y-118123534D01*
X180788387Y-118123547D01*
X180875988Y-118254650D01*
X180875991Y-118254654D01*
X180987485Y-118366148D01*
X180987489Y-118366151D01*
X181118592Y-118453752D01*
X181118605Y-118453759D01*
X181261425Y-118512916D01*
X181264281Y-118514099D01*
X181382106Y-118537536D01*
X181418931Y-118544861D01*
X181418934Y-118544862D01*
X181418936Y-118544862D01*
X181576622Y-118544862D01*
X181576623Y-118544861D01*
X181731275Y-118514099D01*
X181852066Y-118464066D01*
X181876950Y-118453759D01*
X181876950Y-118453758D01*
X181876957Y-118453756D01*
X182008067Y-118366151D01*
X182119567Y-118254651D01*
X182207172Y-118123541D01*
X182267515Y-117977859D01*
X182287669Y-117876540D01*
X182298416Y-117822512D01*
X182330801Y-117760601D01*
X182332300Y-117759074D01*
X182813997Y-117277376D01*
X182869582Y-117245284D01*
X182939134Y-117226648D01*
X183006185Y-117208683D01*
X183035317Y-117192975D01*
X183160611Y-117125417D01*
X183291671Y-117008784D01*
X183291672Y-117008782D01*
X183291673Y-117008782D01*
X183338977Y-116943272D01*
X183352159Y-116925017D01*
X183727167Y-116275483D01*
X183769468Y-116181215D01*
X183804945Y-116009397D01*
X183799843Y-115834030D01*
X183776205Y-115745813D01*
X183754435Y-115664564D01*
X183752855Y-115661634D01*
X183752378Y-115659388D01*
X183751769Y-115657853D01*
X183752031Y-115657748D01*
X183738364Y-115593283D01*
X183763128Y-115527949D01*
X183819282Y-115486375D01*
X183858401Y-115478836D01*
X183861725Y-115478740D01*
X184031189Y-115433332D01*
X184185613Y-115350067D01*
X184316673Y-115233434D01*
X184316674Y-115233432D01*
X184316675Y-115233432D01*
X184344156Y-115195373D01*
X184377161Y-115149667D01*
X184752169Y-114500133D01*
X184794470Y-114405865D01*
X184829947Y-114234047D01*
X184824845Y-114058680D01*
X184798165Y-113959111D01*
X184799828Y-113889264D01*
X184830260Y-113839337D01*
X184874396Y-113795202D01*
X184923415Y-113746183D01*
X184994603Y-113639641D01*
X185043639Y-113521258D01*
X185047576Y-113501467D01*
X185068638Y-113395583D01*
X185068638Y-113305696D01*
X185069381Y-113298941D01*
X185080319Y-113272714D01*
X185088323Y-113245459D01*
X185089504Y-113243653D01*
X185127532Y-113186742D01*
X185129278Y-113182528D01*
X185183587Y-113051412D01*
X185187875Y-113041060D01*
X185218638Y-112886405D01*
X185218638Y-112728721D01*
X185218638Y-112728718D01*
X185218637Y-112728716D01*
X185187876Y-112574073D01*
X185187875Y-112574066D01*
X185146651Y-112474542D01*
X185127535Y-112428390D01*
X185127528Y-112428377D01*
X185039927Y-112297274D01*
X185039924Y-112297270D01*
X184928430Y-112185776D01*
X184928426Y-112185773D01*
X184797323Y-112098172D01*
X184797310Y-112098165D01*
X184651639Y-112037827D01*
X184651627Y-112037824D01*
X184496983Y-112007063D01*
X184496980Y-112007063D01*
X184339296Y-112007063D01*
X184339293Y-112007063D01*
X184184648Y-112037824D01*
X184184636Y-112037827D01*
X184038965Y-112098165D01*
X184038952Y-112098172D01*
X183907849Y-112185773D01*
X183907845Y-112185776D01*
X183796351Y-112297270D01*
X183796348Y-112297274D01*
X183708747Y-112428377D01*
X183708740Y-112428390D01*
X183648402Y-112574061D01*
X183648399Y-112574073D01*
X183617638Y-112728716D01*
X183617638Y-112865683D01*
X183597953Y-112932722D01*
X183545149Y-112978477D01*
X183475991Y-112988421D01*
X183468563Y-112987121D01*
X183363646Y-112965457D01*
X183188279Y-112970559D01*
X183018815Y-113015967D01*
X182864391Y-113099233D01*
X182733330Y-113215866D01*
X182733328Y-113215867D01*
X182672847Y-113299626D01*
X182672836Y-113299643D01*
X182297837Y-113949163D01*
X182297827Y-113949183D01*
X182255534Y-114043434D01*
X182220056Y-114215250D01*
X182225158Y-114390619D01*
X182270567Y-114560087D01*
X182272148Y-114563019D01*
X182272623Y-114565263D01*
X182273233Y-114566797D01*
X182272970Y-114566901D01*
X182286636Y-114631370D01*
X182261871Y-114696704D01*
X182205715Y-114738276D01*
X182166608Y-114745813D01*
X182163278Y-114745909D01*
X181993813Y-114791317D01*
X181839389Y-114874583D01*
X181708328Y-114991216D01*
X181708326Y-114991217D01*
X181647845Y-115074976D01*
X181647834Y-115074993D01*
X181272835Y-115724513D01*
X181272825Y-115724533D01*
X181230532Y-115818784D01*
X181195054Y-115990600D01*
X181200156Y-116165969D01*
X181245564Y-116335433D01*
X181245565Y-116335434D01*
X181328830Y-116489858D01*
X181445463Y-116620918D01*
X181517018Y-116672588D01*
X181559844Y-116727792D01*
X181566027Y-116797387D01*
X181533601Y-116859277D01*
X181532105Y-116860799D01*
X181483115Y-116909788D01*
X181421792Y-116943272D01*
X181419627Y-116943723D01*
X181264286Y-116974623D01*
X181264276Y-116974626D01*
X181118605Y-117034964D01*
X181118592Y-117034971D01*
X180987489Y-117122572D01*
X180987485Y-117122575D01*
X180875991Y-117234069D01*
X180875988Y-117234073D01*
X180788387Y-117365176D01*
X180788380Y-117365189D01*
X180728042Y-117510860D01*
X180728039Y-117510872D01*
X180697278Y-117665515D01*
X122279265Y-117665515D01*
X122240344Y-117649394D01*
X122185940Y-117605553D01*
X122163875Y-117539259D01*
X122178652Y-117475982D01*
X122254434Y-117335436D01*
X122270498Y-117275488D01*
X122299843Y-117165970D01*
X122304945Y-116990603D01*
X122304944Y-116990602D01*
X122304945Y-116990600D01*
X122278143Y-116860799D01*
X122269468Y-116818785D01*
X122268724Y-116817128D01*
X122229001Y-116728602D01*
X122227168Y-116724517D01*
X121852164Y-116074993D01*
X121852163Y-116074990D01*
X121837949Y-116055305D01*
X121791671Y-115991216D01*
X121791667Y-115991213D01*
X121791666Y-115991211D01*
X121660613Y-115874584D01*
X121506186Y-115791317D01*
X121336722Y-115745909D01*
X121333391Y-115745813D01*
X121331204Y-115745101D01*
X121329572Y-115744862D01*
X121329612Y-115744583D01*
X121266953Y-115724186D01*
X121222753Y-115670074D01*
X121214825Y-115600655D01*
X121227855Y-115563010D01*
X121229433Y-115560084D01*
X121274841Y-115390620D01*
X121279943Y-115215253D01*
X121279942Y-115215252D01*
X121279943Y-115215250D01*
X121250980Y-115074983D01*
X121244466Y-115043435D01*
X121219085Y-114986873D01*
X121202174Y-114949185D01*
X121202166Y-114949167D01*
X120827162Y-114299643D01*
X120827161Y-114299640D01*
X120806546Y-114271091D01*
X120766669Y-114215866D01*
X120766665Y-114215863D01*
X120766664Y-114215861D01*
X120635611Y-114099235D01*
X120635609Y-114099233D01*
X120481185Y-114015968D01*
X120465226Y-114011691D01*
X120451417Y-114007991D01*
X120395833Y-113975898D01*
X119966973Y-113547038D01*
X119933488Y-113485715D01*
X119933037Y-113483548D01*
X119916656Y-113401197D01*
X119902137Y-113328204D01*
X119880051Y-113274883D01*
X119841797Y-113182528D01*
X119841790Y-113182515D01*
X119754189Y-113051412D01*
X119754186Y-113051408D01*
X119642692Y-112939914D01*
X119642688Y-112939911D01*
X119511585Y-112852310D01*
X119511572Y-112852303D01*
X119365901Y-112791965D01*
X119365889Y-112791962D01*
X119211245Y-112761201D01*
X119211242Y-112761201D01*
X119053558Y-112761201D01*
X119053555Y-112761201D01*
X118898910Y-112791962D01*
X118898898Y-112791965D01*
X118753227Y-112852303D01*
X118753214Y-112852310D01*
X118622111Y-112939911D01*
X118622107Y-112939914D01*
X118510613Y-113051408D01*
X118510610Y-113051412D01*
X118423009Y-113182515D01*
X118423002Y-113182528D01*
X118362664Y-113328199D01*
X118362661Y-113328211D01*
X118331900Y-113482854D01*
X114278895Y-113482854D01*
X113854420Y-112229441D01*
X113853474Y-112226528D01*
X113602933Y-111421773D01*
X113424363Y-110848192D01*
X113423923Y-110846746D01*
X113359325Y-110629871D01*
X113269849Y-110329470D01*
X113269784Y-110327604D01*
X113251031Y-110266293D01*
X113232762Y-110204957D01*
X113232760Y-110204955D01*
X113231774Y-110201642D01*
X113228965Y-110194151D01*
X112661627Y-108339258D01*
X112661339Y-108334062D01*
X112642377Y-108276321D01*
X112624605Y-108218214D01*
X112624603Y-108218211D01*
X112624602Y-108218207D01*
X112622762Y-108214169D01*
X112617784Y-108201428D01*
X112473891Y-107763248D01*
X112268762Y-107138591D01*
X112267973Y-107129848D01*
X112248238Y-107076091D01*
X112230384Y-107021722D01*
X112230382Y-107021719D01*
X112226863Y-107014400D01*
X112227286Y-107014196D01*
X112220705Y-107001094D01*
X111993740Y-106382852D01*
X111991681Y-106368836D01*
X111971102Y-106321188D01*
X111953209Y-106272447D01*
X111952422Y-106271329D01*
X111939967Y-106249097D01*
X111935636Y-106239070D01*
X111826122Y-105985498D01*
X111790329Y-105902621D01*
X111790329Y-105902620D01*
X111786066Y-105892750D01*
X111780835Y-105870872D01*
X111760042Y-105832495D01*
X111757856Y-105827433D01*
X111757854Y-105827429D01*
X111742736Y-105792422D01*
X111740666Y-105789807D01*
X111735446Y-105783211D01*
X111723657Y-105765335D01*
X111613046Y-105561174D01*
X111600058Y-105528180D01*
X111581788Y-105503479D01*
X111567157Y-105476473D01*
X111547962Y-105456209D01*
X111538292Y-105444672D01*
X111533262Y-105437871D01*
X111445552Y-105319286D01*
X111414675Y-105273565D01*
X111406461Y-105266433D01*
X111399993Y-105257688D01*
X111358905Y-105224991D01*
X111354820Y-105221595D01*
X111320045Y-105191401D01*
X111265486Y-105144029D01*
X111221785Y-105104003D01*
X111215805Y-105100891D01*
X111210717Y-105096474D01*
X111158925Y-105071250D01*
X111156019Y-105069786D01*
X111134074Y-105058369D01*
X111126112Y-105053846D01*
X111089699Y-105031341D01*
X111089691Y-105031337D01*
X111082957Y-105029315D01*
X111080288Y-105028481D01*
X111070514Y-105025303D01*
X111055153Y-105017311D01*
X111028773Y-105011469D01*
X111028713Y-105011434D01*
X111023389Y-105009982D01*
X111023358Y-105009972D01*
X110972835Y-104996195D01*
X110969787Y-104995322D01*
X110914332Y-104978664D01*
X110907990Y-104977635D01*
X110901570Y-104976760D01*
X110843645Y-104976502D01*
X110843170Y-104976499D01*
X110841807Y-104976487D01*
X110782604Y-104974712D01*
X110777343Y-104975952D01*
X110764087Y-104975843D01*
X110763276Y-104975597D01*
X110759199Y-104975706D01*
X110713911Y-104973542D01*
X110713910Y-104973542D01*
X110713909Y-104973542D01*
X110705810Y-104974217D01*
X110705801Y-104974111D01*
X110700206Y-104974700D01*
X110700220Y-104974805D01*
X110692158Y-104975830D01*
X110641525Y-104989155D01*
X110636303Y-104990409D01*
X110600221Y-104998251D01*
X110582845Y-105000756D01*
X110563515Y-105002156D01*
X110561350Y-105002313D01*
X110561349Y-105002313D01*
X110561345Y-105002314D01*
X110534541Y-105011615D01*
X110534542Y-105011616D01*
X110527503Y-105014058D01*
X110492507Y-105021666D01*
X110465530Y-105035566D01*
X110457208Y-105038455D01*
X110457206Y-105038455D01*
X110441160Y-105044024D01*
X110419946Y-105049344D01*
X110409512Y-105051000D01*
X110409504Y-105051002D01*
X110373590Y-105067002D01*
X110363788Y-105070878D01*
X110326654Y-105083766D01*
X110326644Y-105083771D01*
X110317896Y-105089702D01*
X110298780Y-105100331D01*
X110258114Y-105118449D01*
X110235070Y-105126112D01*
X110233698Y-105126423D01*
X110230744Y-105127093D01*
X110190576Y-105148246D01*
X110183265Y-105151795D01*
X110141784Y-105170276D01*
X110138332Y-105173073D01*
X110118065Y-105186431D01*
X110067038Y-105213303D01*
X110043006Y-105222907D01*
X110042692Y-105222995D01*
X110042688Y-105222997D01*
X110000177Y-105248321D01*
X109994498Y-105251505D01*
X109950712Y-105274564D01*
X109950703Y-105274570D01*
X109950477Y-105274780D01*
X109929739Y-105290280D01*
X109861770Y-105330769D01*
X109846461Y-105337779D01*
X109846462Y-105337780D01*
X109839156Y-105341330D01*
X109797458Y-105368843D01*
X109796141Y-105369713D01*
X109796139Y-105369714D01*
X109796138Y-105369713D01*
X109793731Y-105371300D01*
X109747049Y-105399110D01*
X109738914Y-105407469D01*
X109727701Y-105414868D01*
X109727698Y-105414872D01*
X109645835Y-105468887D01*
X109623990Y-105480359D01*
X109620828Y-105481636D01*
X109620824Y-105481638D01*
X109583755Y-105509561D01*
X109577444Y-105514014D01*
X109538691Y-105539585D01*
X109538680Y-105539594D01*
X109536411Y-105542152D01*
X109518282Y-105558880D01*
X109258995Y-105754198D01*
X109258994Y-105754199D01*
X109249791Y-105761132D01*
X109246255Y-105762623D01*
X109197232Y-105800723D01*
X109196429Y-105801328D01*
X109196426Y-105801328D01*
X109147593Y-105838116D01*
X109146934Y-105838764D01*
X109136139Y-105848205D01*
X108959489Y-105985498D01*
X108952590Y-105990489D01*
X108728204Y-106141380D01*
X108661589Y-106162455D01*
X108594154Y-106144170D01*
X108547311Y-106092329D01*
X108544604Y-106086310D01*
X108529900Y-106051137D01*
X108467494Y-105901860D01*
X108465956Y-105898000D01*
X108461465Y-105886152D01*
X108331956Y-105544479D01*
X108330925Y-105541651D01*
X108166112Y-105071570D01*
X108165300Y-105069175D01*
X108164588Y-105067002D01*
X107993382Y-104544777D01*
X107992454Y-104541822D01*
X107991069Y-104537207D01*
X107637007Y-103357381D01*
X107635990Y-103353794D01*
X107328700Y-102204620D01*
X107327749Y-102200822D01*
X107099567Y-101224086D01*
X107098651Y-101219825D01*
X107094569Y-101199065D01*
X107018051Y-100809881D01*
X107017424Y-100806433D01*
X107006519Y-100741046D01*
X113464634Y-100741046D01*
X113464634Y-100898739D01*
X113495395Y-101053382D01*
X113495398Y-101053394D01*
X113555736Y-101199065D01*
X113555740Y-101199072D01*
X113593736Y-101255937D01*
X113614614Y-101322614D01*
X113614634Y-101324828D01*
X113614634Y-102013197D01*
X113603016Y-102065601D01*
X113547584Y-102184475D01*
X113547584Y-102184476D01*
X113512107Y-102356288D01*
X113514709Y-102445685D01*
X113517211Y-102531659D01*
X113537196Y-102610836D01*
X113542500Y-102631846D01*
X113799020Y-103336625D01*
X113844040Y-103429620D01*
X113844046Y-103429628D01*
X113952857Y-103567242D01*
X113952859Y-103567244D01*
X114090471Y-103676054D01*
X114090473Y-103676055D01*
X114090478Y-103676059D01*
X114249482Y-103750204D01*
X114252731Y-103750875D01*
X114254752Y-103751950D01*
X114256341Y-103752477D01*
X114256251Y-103752748D01*
X114314407Y-103783704D01*
X114348543Y-103844667D01*
X114344301Y-103914408D01*
X114324939Y-103949214D01*
X114322874Y-103951825D01*
X114322868Y-103951835D01*
X114248723Y-104110839D01*
X114213247Y-104282650D01*
X114216227Y-104385025D01*
X114218351Y-104458021D01*
X114240257Y-104544809D01*
X114243640Y-104558208D01*
X114500160Y-105262987D01*
X114545180Y-105355982D01*
X114545186Y-105355990D01*
X114653997Y-105493604D01*
X114653999Y-105493606D01*
X114791611Y-105602416D01*
X114791613Y-105602417D01*
X114791618Y-105602421D01*
X114950622Y-105676566D01*
X114950623Y-105676566D01*
X114950625Y-105676567D01*
X115129512Y-105713503D01*
X115128877Y-105716578D01*
X115180847Y-105736866D01*
X115192718Y-105747312D01*
X115475766Y-106030360D01*
X115509251Y-106091683D01*
X115509702Y-106093849D01*
X115540602Y-106249191D01*
X115540605Y-106249201D01*
X115600943Y-106394872D01*
X115600949Y-106394883D01*
X115688551Y-106525988D01*
X115688554Y-106525992D01*
X115800048Y-106637486D01*
X115800052Y-106637489D01*
X115931155Y-106725090D01*
X115931168Y-106725097D01*
X116076839Y-106785435D01*
X116076844Y-106785437D01*
X116231494Y-106816199D01*
X116231497Y-106816200D01*
X116231499Y-106816200D01*
X116389185Y-106816200D01*
X116389186Y-106816199D01*
X116543838Y-106785437D01*
X116656507Y-106738767D01*
X116689513Y-106725097D01*
X116689513Y-106725096D01*
X116689520Y-106725094D01*
X116820630Y-106637489D01*
X116883018Y-106575101D01*
X185790525Y-106575101D01*
X185790525Y-106732794D01*
X185821286Y-106887437D01*
X185821289Y-106887449D01*
X185881627Y-107033120D01*
X185881634Y-107033133D01*
X185969235Y-107164236D01*
X185969238Y-107164240D01*
X186080732Y-107275734D01*
X186080736Y-107275737D01*
X186211839Y-107363338D01*
X186211852Y-107363345D01*
X186335008Y-107414357D01*
X186357528Y-107423685D01*
X186501726Y-107452368D01*
X186512178Y-107454447D01*
X186512181Y-107454448D01*
X186512183Y-107454448D01*
X186669869Y-107454448D01*
X186669870Y-107454447D01*
X186824522Y-107423685D01*
X186970204Y-107363342D01*
X187101314Y-107275737D01*
X187212814Y-107164237D01*
X187300419Y-107033127D01*
X187360762Y-106887445D01*
X187391525Y-106732790D01*
X187391525Y-106575106D01*
X187391525Y-106575103D01*
X187391524Y-106575101D01*
X187382341Y-106528935D01*
X187360762Y-106420451D01*
X187306039Y-106288338D01*
X187298571Y-106218871D01*
X187329846Y-106156392D01*
X187389935Y-106120740D01*
X187450951Y-106120660D01*
X187501053Y-106133307D01*
X187501057Y-106133308D01*
X187676425Y-106138410D01*
X187808939Y-106111049D01*
X187848238Y-106102935D01*
X187848238Y-106102934D01*
X187848242Y-106102934D01*
X188007246Y-106028789D01*
X188109833Y-105947673D01*
X188144864Y-105919974D01*
X188144866Y-105919972D01*
X188209077Y-105838764D01*
X188253681Y-105782354D01*
X188298704Y-105689356D01*
X188523811Y-105070878D01*
X188555221Y-104984580D01*
X188555221Y-104984577D01*
X188555224Y-104984571D01*
X188580513Y-104884389D01*
X188585616Y-104709021D01*
X188585615Y-104709020D01*
X188585616Y-104709018D01*
X188550140Y-104537207D01*
X188513216Y-104458022D01*
X188475994Y-104378200D01*
X188475990Y-104378195D01*
X188475989Y-104378193D01*
X188473927Y-104375585D01*
X188473069Y-104373459D01*
X188472202Y-104372053D01*
X188472442Y-104371904D01*
X188447787Y-104310790D01*
X188460828Y-104242148D01*
X188508910Y-104191453D01*
X188546125Y-104177237D01*
X188549378Y-104176566D01*
X188708382Y-104102421D01*
X188846001Y-103993605D01*
X188954817Y-103855986D01*
X188999840Y-103762988D01*
X189232263Y-103124410D01*
X189256357Y-103058212D01*
X189256357Y-103058209D01*
X189256360Y-103058203D01*
X189281649Y-102958021D01*
X189286752Y-102782653D01*
X189286751Y-102782652D01*
X189286752Y-102782650D01*
X189251276Y-102610839D01*
X189214355Y-102531660D01*
X189177130Y-102451832D01*
X189177126Y-102451827D01*
X189173338Y-102445685D01*
X189174428Y-102445012D01*
X189151093Y-102387161D01*
X189150500Y-102375052D01*
X189150500Y-102004935D01*
X189170185Y-101937896D01*
X189171366Y-101936090D01*
X189209394Y-101879179D01*
X189269737Y-101733497D01*
X189300500Y-101578842D01*
X189300500Y-101421158D01*
X189300500Y-101421155D01*
X189300499Y-101421153D01*
X189291698Y-101376908D01*
X189269737Y-101266503D01*
X189251293Y-101221974D01*
X189209397Y-101120827D01*
X189209390Y-101120814D01*
X189121789Y-100989711D01*
X189121786Y-100989707D01*
X189010292Y-100878213D01*
X189010288Y-100878210D01*
X188879185Y-100790609D01*
X188879172Y-100790602D01*
X188733501Y-100730264D01*
X188733489Y-100730261D01*
X188578845Y-100699500D01*
X188578842Y-100699500D01*
X188421158Y-100699500D01*
X188421155Y-100699500D01*
X188266510Y-100730261D01*
X188266498Y-100730264D01*
X188120827Y-100790602D01*
X188120814Y-100790609D01*
X187989711Y-100878210D01*
X187989707Y-100878213D01*
X187878213Y-100989707D01*
X187878210Y-100989711D01*
X187790609Y-101120814D01*
X187790602Y-101120827D01*
X187730264Y-101266498D01*
X187730261Y-101266510D01*
X187699500Y-101421153D01*
X187699500Y-101421158D01*
X187699500Y-101578842D01*
X187699500Y-101578844D01*
X187699499Y-101578844D01*
X187712398Y-101643686D01*
X187706171Y-101713278D01*
X187663308Y-101768455D01*
X187615856Y-101789316D01*
X187450624Y-101823433D01*
X187291621Y-101897577D01*
X187291611Y-101897583D01*
X187153999Y-102006393D01*
X187153997Y-102006395D01*
X187045185Y-102144010D01*
X187045180Y-102144017D01*
X187000162Y-102237006D01*
X186743642Y-102941787D01*
X186718351Y-103041979D01*
X186713247Y-103217349D01*
X186748723Y-103389160D01*
X186822868Y-103548164D01*
X186822870Y-103548168D01*
X186824938Y-103550783D01*
X186825797Y-103552912D01*
X186826662Y-103554315D01*
X186826422Y-103554462D01*
X186851076Y-103615579D01*
X186838034Y-103684221D01*
X186789951Y-103734915D01*
X186752744Y-103749129D01*
X186749488Y-103749801D01*
X186590485Y-103823945D01*
X186590475Y-103823951D01*
X186452863Y-103932761D01*
X186452861Y-103932763D01*
X186344049Y-104070378D01*
X186344044Y-104070385D01*
X186299026Y-104163374D01*
X186042506Y-104868155D01*
X186017215Y-104968347D01*
X186012111Y-105143718D01*
X186047009Y-105312730D01*
X186041288Y-105382365D01*
X186032965Y-105399792D01*
X186031451Y-105402413D01*
X186031448Y-105402420D01*
X186017613Y-105454053D01*
X185990524Y-105555150D01*
X185990524Y-105555152D01*
X185990524Y-105723253D01*
X185990525Y-105723266D01*
X185990525Y-106074182D01*
X185970840Y-106141221D01*
X185969627Y-106143073D01*
X185881634Y-106274762D01*
X185881627Y-106274775D01*
X185821289Y-106420446D01*
X185821286Y-106420458D01*
X185790525Y-106575101D01*
X116883018Y-106575101D01*
X116932130Y-106525989D01*
X116941619Y-106511788D01*
X116949415Y-106500122D01*
X117019733Y-106394883D01*
X117019738Y-106394872D01*
X117033960Y-106360536D01*
X117080078Y-106249197D01*
X117110841Y-106094542D01*
X117110841Y-105936858D01*
X117110841Y-105936855D01*
X117110840Y-105936853D01*
X117080078Y-105782203D01*
X117055666Y-105723266D01*
X117019738Y-105636527D01*
X117019731Y-105636514D01*
X116932130Y-105505411D01*
X116932127Y-105505407D01*
X116820633Y-105393913D01*
X116820629Y-105393910D01*
X116689526Y-105306309D01*
X116689513Y-105306302D01*
X116678003Y-105301535D01*
X116623599Y-105257695D01*
X116601534Y-105191401D01*
X116618813Y-105123701D01*
X116628184Y-105110069D01*
X116677130Y-105048168D01*
X116751275Y-104889164D01*
X116751975Y-104885775D01*
X116786752Y-104717349D01*
X116786510Y-104709018D01*
X116781649Y-104541979D01*
X116756362Y-104441798D01*
X116499840Y-103737013D01*
X116470328Y-103676054D01*
X116454819Y-103644017D01*
X116454813Y-103644009D01*
X116346002Y-103506395D01*
X116346000Y-103506393D01*
X116208388Y-103397583D01*
X116208384Y-103397580D01*
X116208382Y-103397579D01*
X116190327Y-103389160D01*
X116168227Y-103378854D01*
X116049378Y-103323434D01*
X116049376Y-103323433D01*
X116049375Y-103323433D01*
X116046120Y-103322761D01*
X116044096Y-103321683D01*
X116042519Y-103321161D01*
X116042608Y-103320891D01*
X115984446Y-103289927D01*
X115950314Y-103228961D01*
X115954561Y-103159220D01*
X115973931Y-103124410D01*
X115975990Y-103121806D01*
X116050135Y-102962802D01*
X116051122Y-102958021D01*
X116085612Y-102790987D01*
X116085612Y-102790985D01*
X116080509Y-102615617D01*
X116055222Y-102515436D01*
X115798700Y-101810651D01*
X115761344Y-101733489D01*
X115753679Y-101717655D01*
X115753673Y-101717647D01*
X115644862Y-101580033D01*
X115644860Y-101580031D01*
X115507248Y-101471221D01*
X115507244Y-101471218D01*
X115507242Y-101471217D01*
X115399891Y-101421158D01*
X115348234Y-101397070D01*
X115176423Y-101361595D01*
X115095395Y-101363953D01*
X115027811Y-101346226D01*
X114980540Y-101294774D01*
X114968590Y-101225934D01*
X114977226Y-101192556D01*
X115034871Y-101053390D01*
X115065634Y-100898735D01*
X115065634Y-100741051D01*
X115065634Y-100741048D01*
X115065633Y-100741046D01*
X115034872Y-100586403D01*
X115034871Y-100586396D01*
X115034869Y-100586391D01*
X114974531Y-100440720D01*
X114974524Y-100440707D01*
X114886923Y-100309604D01*
X114886920Y-100309600D01*
X114775426Y-100198106D01*
X114775422Y-100198103D01*
X114644319Y-100110502D01*
X114644306Y-100110495D01*
X114498635Y-100050157D01*
X114498623Y-100050154D01*
X114343979Y-100019393D01*
X114343976Y-100019393D01*
X114186292Y-100019393D01*
X114186289Y-100019393D01*
X114031644Y-100050154D01*
X114031632Y-100050157D01*
X113885961Y-100110495D01*
X113885948Y-100110502D01*
X113754845Y-100198103D01*
X113754841Y-100198106D01*
X113643347Y-100309600D01*
X113643344Y-100309604D01*
X113555743Y-100440707D01*
X113555736Y-100440720D01*
X113495398Y-100586391D01*
X113495395Y-100586403D01*
X113464634Y-100741046D01*
X107006519Y-100741046D01*
X106946957Y-100383892D01*
X106946525Y-100381096D01*
X106882303Y-99929725D01*
X106881957Y-99927083D01*
X106819845Y-99410950D01*
X106819577Y-99408518D01*
X106780868Y-99022846D01*
X106765280Y-98867537D01*
X106765080Y-98865340D01*
X106759069Y-98792070D01*
X106716291Y-98270634D01*
X106716145Y-98268655D01*
X106676338Y-97655443D01*
X106676227Y-97653479D01*
X106649883Y-97113607D01*
X106644709Y-97007588D01*
X106644638Y-97005841D01*
X106622879Y-96352666D01*
X106622818Y-96349903D01*
X106609044Y-95086855D01*
X106608389Y-95026769D01*
X106608403Y-95023207D01*
X106632162Y-93757593D01*
X106632290Y-93753841D01*
X106688018Y-92634410D01*
X150905482Y-92634410D01*
X150905482Y-92792103D01*
X150936243Y-92946746D01*
X150936246Y-92946758D01*
X150996584Y-93092429D01*
X150996591Y-93092442D01*
X151084192Y-93223545D01*
X151084195Y-93223549D01*
X151195689Y-93335043D01*
X151195693Y-93335046D01*
X151326796Y-93422647D01*
X151326809Y-93422654D01*
X151472480Y-93482992D01*
X151472485Y-93482994D01*
X151627135Y-93513756D01*
X151627138Y-93513757D01*
X151627140Y-93513757D01*
X151784826Y-93513757D01*
X151784827Y-93513756D01*
X151939479Y-93482994D01*
X152085161Y-93422651D01*
X152216271Y-93335046D01*
X152327771Y-93223546D01*
X152415376Y-93092436D01*
X152475719Y-92946754D01*
X152506482Y-92792099D01*
X152506482Y-92634415D01*
X152506482Y-92634412D01*
X152506481Y-92634410D01*
X152500287Y-92603270D01*
X152475719Y-92479760D01*
X152468265Y-92461765D01*
X152415379Y-92334084D01*
X152415372Y-92334071D01*
X152327771Y-92202968D01*
X152327768Y-92202964D01*
X152216274Y-92091470D01*
X152216270Y-92091467D01*
X152085167Y-92003866D01*
X152085154Y-92003859D01*
X151939483Y-91943521D01*
X151939471Y-91943518D01*
X151784827Y-91912757D01*
X151784824Y-91912757D01*
X151627140Y-91912757D01*
X151627137Y-91912757D01*
X151472492Y-91943518D01*
X151472480Y-91943521D01*
X151326809Y-92003859D01*
X151326796Y-92003866D01*
X151195693Y-92091467D01*
X151195689Y-92091470D01*
X151084195Y-92202964D01*
X151084192Y-92202968D01*
X150996591Y-92334071D01*
X150996584Y-92334084D01*
X150936246Y-92479755D01*
X150936243Y-92479767D01*
X150905482Y-92634410D01*
X106688018Y-92634410D01*
X106689571Y-92603223D01*
X106689846Y-92599111D01*
X106772627Y-91613183D01*
X111737709Y-91613183D01*
X111737709Y-91770876D01*
X111768470Y-91925519D01*
X111768473Y-91925531D01*
X111828811Y-92071202D01*
X111828818Y-92071215D01*
X111916419Y-92202318D01*
X111916422Y-92202322D01*
X112027916Y-92313816D01*
X112027920Y-92313819D01*
X112159023Y-92401420D01*
X112159036Y-92401427D01*
X112304707Y-92461765D01*
X112304712Y-92461767D01*
X112387398Y-92478214D01*
X112435828Y-92487848D01*
X112435829Y-92487848D01*
X112459367Y-92492530D01*
X112617051Y-92492530D01*
X112640146Y-92487935D01*
X112640148Y-92487936D01*
X112685392Y-92478935D01*
X112771706Y-92461767D01*
X112917388Y-92401424D01*
X113048498Y-92313819D01*
X113159998Y-92202319D01*
X113247603Y-92071209D01*
X113307946Y-91925527D01*
X113338709Y-91770872D01*
X113338709Y-91770870D01*
X113338846Y-91770182D01*
X113371230Y-91708271D01*
X113372671Y-91706803D01*
X113480520Y-91598955D01*
X113502296Y-91561238D01*
X113530661Y-91512108D01*
X113530661Y-91512107D01*
X113548325Y-91481512D01*
X113559577Y-91462024D01*
X113600500Y-91309296D01*
X113600500Y-91204998D01*
X113620185Y-91137959D01*
X113672989Y-91092204D01*
X113678698Y-91089767D01*
X113745341Y-91063293D01*
X113889054Y-90962664D01*
X114005686Y-90831604D01*
X114088952Y-90677179D01*
X114117142Y-90577776D01*
X114247380Y-89839154D01*
X114254889Y-89736103D01*
X114229461Y-89562513D01*
X114229460Y-89562511D01*
X114229460Y-89562509D01*
X114164691Y-89399474D01*
X114164688Y-89399466D01*
X114097602Y-89303657D01*
X114064060Y-89255754D01*
X114064058Y-89255752D01*
X114061570Y-89253538D01*
X114060354Y-89251590D01*
X114059256Y-89250356D01*
X114059466Y-89250168D01*
X114024576Y-89194266D01*
X114025499Y-89124403D01*
X114064046Y-89066129D01*
X114098225Y-89045666D01*
X114101315Y-89044439D01*
X114245028Y-88943810D01*
X114361660Y-88812750D01*
X114444926Y-88658325D01*
X114473116Y-88558922D01*
X114603354Y-87820300D01*
X114610863Y-87717249D01*
X114585435Y-87543659D01*
X114585434Y-87543657D01*
X114585434Y-87543655D01*
X114520665Y-87380620D01*
X114520662Y-87380612D01*
X114420033Y-87236899D01*
X114367422Y-87190080D01*
X114330428Y-87130808D01*
X114331351Y-87060944D01*
X114350802Y-87022853D01*
X114356026Y-87015915D01*
X114400196Y-86971746D01*
X114434001Y-86921153D01*
X187699500Y-86921153D01*
X187699500Y-87078846D01*
X187730261Y-87233489D01*
X187730264Y-87233501D01*
X187790602Y-87379172D01*
X187790606Y-87379179D01*
X187828602Y-87436044D01*
X187849480Y-87502721D01*
X187849500Y-87504935D01*
X187849500Y-87841852D01*
X187836773Y-87892275D01*
X187837978Y-87892754D01*
X187770539Y-88062509D01*
X187745111Y-88236104D01*
X187752618Y-88339148D01*
X187882857Y-89077767D01*
X187882860Y-89077779D01*
X187911045Y-89177172D01*
X187911047Y-89177176D01*
X187911048Y-89177179D01*
X187989579Y-89322822D01*
X187994316Y-89331607D01*
X188104620Y-89455556D01*
X188110946Y-89462664D01*
X188254659Y-89563293D01*
X188257744Y-89564518D01*
X188259545Y-89565927D01*
X188261021Y-89566723D01*
X188260885Y-89566975D01*
X188312779Y-89607559D01*
X188335810Y-89673524D01*
X188319521Y-89741468D01*
X188294409Y-89772384D01*
X188291923Y-89774596D01*
X188291917Y-89774602D01*
X188191291Y-89918312D01*
X188191286Y-89918322D01*
X188126517Y-90081357D01*
X188101089Y-90254952D01*
X188108596Y-90357996D01*
X188238835Y-91096615D01*
X188238838Y-91096627D01*
X188267023Y-91196020D01*
X188267025Y-91196024D01*
X188267026Y-91196027D01*
X188328101Y-91309296D01*
X188350294Y-91350455D01*
X188466922Y-91481510D01*
X188466921Y-91481510D01*
X188486043Y-91494899D01*
X188610637Y-91582141D01*
X188680213Y-91609780D01*
X188735247Y-91652823D01*
X188752824Y-91688152D01*
X188755477Y-91696671D01*
X188755477Y-91697670D01*
X188796401Y-91850398D01*
X188804575Y-91864555D01*
X188811477Y-91876511D01*
X188811479Y-91876515D01*
X188875453Y-91987322D01*
X188875459Y-91987330D01*
X188920174Y-92032045D01*
X188953659Y-92093368D01*
X188954110Y-92095534D01*
X188985009Y-92250874D01*
X188985012Y-92250884D01*
X189045350Y-92396555D01*
X189045357Y-92396568D01*
X189132958Y-92527671D01*
X189132961Y-92527675D01*
X189244455Y-92639169D01*
X189244459Y-92639172D01*
X189375562Y-92726773D01*
X189375575Y-92726780D01*
X189521246Y-92787118D01*
X189521251Y-92787120D01*
X189675901Y-92817882D01*
X189675904Y-92817883D01*
X189675906Y-92817883D01*
X189833592Y-92817883D01*
X189833593Y-92817882D01*
X189988245Y-92787120D01*
X190133927Y-92726777D01*
X190265037Y-92639172D01*
X190376537Y-92527672D01*
X190464142Y-92396562D01*
X190524485Y-92250880D01*
X190555248Y-92096225D01*
X190555248Y-91938541D01*
X190555248Y-91938538D01*
X190555247Y-91938536D01*
X190524486Y-91783893D01*
X190524485Y-91783886D01*
X190519096Y-91770876D01*
X190464145Y-91638210D01*
X190464138Y-91638197D01*
X190376537Y-91507094D01*
X190376534Y-91507090D01*
X190360851Y-91491407D01*
X190327366Y-91430084D01*
X190332350Y-91360392D01*
X190366098Y-91311095D01*
X190420037Y-91263095D01*
X190520666Y-91119382D01*
X190582925Y-90962664D01*
X190585438Y-90956338D01*
X190585438Y-90956337D01*
X190585439Y-90956335D01*
X190610867Y-90782745D01*
X190603359Y-90679695D01*
X190473119Y-89941073D01*
X190448562Y-89854477D01*
X190444932Y-89841675D01*
X190444931Y-89841673D01*
X190444930Y-89841669D01*
X190361664Y-89687244D01*
X190361661Y-89687241D01*
X190361661Y-89687240D01*
X190245033Y-89556185D01*
X190245030Y-89556182D01*
X190111473Y-89462665D01*
X190101319Y-89455555D01*
X190101314Y-89455553D01*
X190101310Y-89455551D01*
X190098229Y-89454327D01*
X190096427Y-89452917D01*
X190094957Y-89452125D01*
X190095092Y-89451873D01*
X190043194Y-89411283D01*
X190020167Y-89345317D01*
X190036459Y-89277373D01*
X190061581Y-89246452D01*
X190064059Y-89244247D01*
X190164688Y-89100534D01*
X190229461Y-88937487D01*
X190254889Y-88763897D01*
X190247381Y-88660847D01*
X190117141Y-87922225D01*
X190088952Y-87822821D01*
X190005686Y-87668396D01*
X190005683Y-87668393D01*
X190005683Y-87668392D01*
X189889055Y-87537337D01*
X189889052Y-87537334D01*
X189789061Y-87467320D01*
X189745341Y-87436707D01*
X189745336Y-87436705D01*
X189745332Y-87436703D01*
X189582297Y-87371934D01*
X189408698Y-87346505D01*
X189407262Y-87346610D01*
X189406392Y-87346421D01*
X189401940Y-87346260D01*
X189401968Y-87345465D01*
X189338971Y-87331841D01*
X189289506Y-87282496D01*
X189274571Y-87214241D01*
X189276647Y-87198755D01*
X189299624Y-87083246D01*
X189300500Y-87078844D01*
X189300500Y-86921155D01*
X189300499Y-86921153D01*
X189284483Y-86840636D01*
X189269737Y-86766503D01*
X189259326Y-86741369D01*
X189209397Y-86620827D01*
X189209390Y-86620814D01*
X189121789Y-86489711D01*
X189121786Y-86489707D01*
X189010292Y-86378213D01*
X189010288Y-86378210D01*
X188879185Y-86290609D01*
X188879172Y-86290602D01*
X188733501Y-86230264D01*
X188733489Y-86230261D01*
X188578845Y-86199500D01*
X188578842Y-86199500D01*
X188421158Y-86199500D01*
X188421155Y-86199500D01*
X188266510Y-86230261D01*
X188266498Y-86230264D01*
X188120827Y-86290602D01*
X188120814Y-86290609D01*
X187989711Y-86378210D01*
X187989707Y-86378213D01*
X187878213Y-86489707D01*
X187878210Y-86489711D01*
X187790609Y-86620814D01*
X187790602Y-86620827D01*
X187730264Y-86766498D01*
X187730261Y-86766510D01*
X187699500Y-86921153D01*
X114434001Y-86921153D01*
X114487801Y-86840636D01*
X114548144Y-86694954D01*
X114578907Y-86540299D01*
X114578907Y-86382615D01*
X114578907Y-86382612D01*
X114578906Y-86382610D01*
X114548602Y-86230263D01*
X114548144Y-86227960D01*
X114488344Y-86083588D01*
X114487804Y-86082284D01*
X114487797Y-86082271D01*
X114400196Y-85951168D01*
X114400193Y-85951164D01*
X114288699Y-85839670D01*
X114288695Y-85839667D01*
X114157592Y-85752066D01*
X114157579Y-85752059D01*
X114011908Y-85691721D01*
X114011896Y-85691718D01*
X113857252Y-85660957D01*
X113857249Y-85660957D01*
X113699565Y-85660957D01*
X113699562Y-85660957D01*
X113544917Y-85691718D01*
X113544905Y-85691721D01*
X113399234Y-85752059D01*
X113399221Y-85752066D01*
X113268118Y-85839667D01*
X113268114Y-85839670D01*
X113156620Y-85951164D01*
X113156617Y-85951168D01*
X113069016Y-86082271D01*
X113069009Y-86082284D01*
X113008671Y-86227955D01*
X113008668Y-86227965D01*
X112977769Y-86383305D01*
X112951105Y-86438862D01*
X112947637Y-86442990D01*
X112875454Y-86515174D01*
X112855476Y-86549778D01*
X112850039Y-86559194D01*
X112850038Y-86559196D01*
X112796396Y-86652105D01*
X112796396Y-86652106D01*
X112754953Y-86806769D01*
X112718588Y-86866429D01*
X112680961Y-86889913D01*
X112610638Y-86917850D01*
X112610631Y-86917854D01*
X112466921Y-87018480D01*
X112466918Y-87018483D01*
X112350290Y-87149538D01*
X112267022Y-87303966D01*
X112267021Y-87303968D01*
X112238834Y-87403359D01*
X112238830Y-87403376D01*
X112108593Y-88141994D01*
X112108593Y-88141998D01*
X112101085Y-88245041D01*
X112126513Y-88418636D01*
X112191282Y-88581671D01*
X112191286Y-88581680D01*
X112191287Y-88581681D01*
X112291913Y-88725391D01*
X112291915Y-88725393D01*
X112294402Y-88727606D01*
X112295617Y-88729553D01*
X112296718Y-88730790D01*
X112296506Y-88730978D01*
X112331397Y-88786878D01*
X112330475Y-88856742D01*
X112291927Y-88915016D01*
X112257756Y-88935476D01*
X112254667Y-88936703D01*
X112254657Y-88936708D01*
X112110947Y-89037334D01*
X112110944Y-89037337D01*
X111994316Y-89168392D01*
X111911048Y-89322820D01*
X111911047Y-89322822D01*
X111882860Y-89422213D01*
X111882856Y-89422230D01*
X111752619Y-90160848D01*
X111752619Y-90160852D01*
X111745111Y-90263895D01*
X111770539Y-90437490D01*
X111835308Y-90600525D01*
X111835312Y-90600534D01*
X111835313Y-90600535D01*
X111935939Y-90744245D01*
X111935945Y-90744252D01*
X112064795Y-90858915D01*
X112101790Y-90918187D01*
X112100867Y-90988050D01*
X112062320Y-91046324D01*
X112051255Y-91054647D01*
X112027925Y-91070236D01*
X112027916Y-91070243D01*
X111916422Y-91181737D01*
X111916419Y-91181741D01*
X111828818Y-91312844D01*
X111828811Y-91312857D01*
X111768473Y-91458528D01*
X111768470Y-91458540D01*
X111737709Y-91613183D01*
X106772627Y-91613183D01*
X106773618Y-91601378D01*
X106774114Y-91596587D01*
X106876454Y-90767860D01*
X106877288Y-90762194D01*
X106991540Y-90094867D01*
X106992309Y-90090798D01*
X107052305Y-89800104D01*
X107052715Y-89798198D01*
X107065383Y-89741468D01*
X107159746Y-89318876D01*
X107160286Y-89316569D01*
X107276476Y-88840989D01*
X107277062Y-88838690D01*
X107402816Y-88365130D01*
X107403439Y-88362873D01*
X107538615Y-87891874D01*
X107539308Y-87889550D01*
X107540926Y-87884311D01*
X107684124Y-87420420D01*
X107684862Y-87418112D01*
X107697258Y-87380620D01*
X107839094Y-86951617D01*
X107839834Y-86949448D01*
X108003885Y-86484456D01*
X108004642Y-86482375D01*
X108178085Y-86020177D01*
X108178920Y-86018015D01*
X108362304Y-85557235D01*
X108363156Y-85555156D01*
X108555959Y-85097208D01*
X108556859Y-85095124D01*
X108759764Y-84638490D01*
X108760764Y-84636300D01*
X108828842Y-84490835D01*
X108973094Y-84182600D01*
X108974132Y-84180440D01*
X109002229Y-84123331D01*
X109196745Y-83727959D01*
X109197766Y-83725934D01*
X109429961Y-83276226D01*
X109431062Y-83274146D01*
X109673715Y-82825642D01*
X109674804Y-82823675D01*
X109927092Y-82378028D01*
X109928221Y-82376078D01*
X110191211Y-81931542D01*
X110192417Y-81929547D01*
X110197598Y-81921158D01*
X110197601Y-81921153D01*
X143199500Y-81921153D01*
X143199500Y-82078846D01*
X143230261Y-82233489D01*
X143230264Y-82233501D01*
X143290602Y-82379172D01*
X143290609Y-82379185D01*
X143378210Y-82510288D01*
X143378213Y-82510292D01*
X143489707Y-82621786D01*
X143489711Y-82621789D01*
X143620814Y-82709390D01*
X143620827Y-82709397D01*
X143726465Y-82753153D01*
X143766503Y-82769737D01*
X143921153Y-82800499D01*
X143921156Y-82800500D01*
X143921158Y-82800500D01*
X144078844Y-82800500D01*
X144078845Y-82800499D01*
X144233497Y-82769737D01*
X144379179Y-82709394D01*
X144436059Y-82671388D01*
X144502736Y-82650510D01*
X144504950Y-82650490D01*
X144811261Y-82650490D01*
X144878300Y-82670175D01*
X144924055Y-82722979D01*
X144928966Y-82735484D01*
X144940178Y-82769318D01*
X144940181Y-82769326D01*
X144940435Y-82769737D01*
X145032282Y-82918646D01*
X145156338Y-83042702D01*
X145305660Y-83134804D01*
X145472197Y-83189989D01*
X145574985Y-83200490D01*
X146325002Y-83200489D01*
X146325010Y-83200488D01*
X146325013Y-83200488D01*
X146381296Y-83194738D01*
X146427791Y-83189989D01*
X146594328Y-83134804D01*
X146743650Y-83042702D01*
X146867706Y-82918646D01*
X146869450Y-82915818D01*
X146871154Y-82914285D01*
X146872187Y-82912979D01*
X146872410Y-82913155D01*
X146921390Y-82869091D01*
X146990351Y-82857861D01*
X147054436Y-82885697D01*
X147080529Y-82915805D01*
X147080541Y-82915824D01*
X147082288Y-82918656D01*
X147206344Y-83042712D01*
X147355666Y-83134814D01*
X147522203Y-83189999D01*
X147624991Y-83200500D01*
X148087769Y-83200499D01*
X148154808Y-83220183D01*
X148175450Y-83236818D01*
X148645861Y-83707228D01*
X148741805Y-83803172D01*
X148750397Y-83811764D01*
X148873310Y-83893892D01*
X148873323Y-83893899D01*
X148917774Y-83912311D01*
X148926973Y-83916121D01*
X149009900Y-83950471D01*
X149126053Y-83973575D01*
X149149807Y-83978300D01*
X149154893Y-83979312D01*
X149154894Y-83979312D01*
X149154895Y-83979312D01*
X149302730Y-83979312D01*
X151041984Y-83979312D01*
X151089432Y-83988749D01*
X151113091Y-83998549D01*
X151113096Y-83998550D01*
X151113099Y-83998551D01*
X151267741Y-84029311D01*
X151267744Y-84029312D01*
X151267746Y-84029312D01*
X151425432Y-84029312D01*
X151425433Y-84029311D01*
X151503509Y-84013781D01*
X151580076Y-83998551D01*
X151580077Y-83998550D01*
X151580085Y-83998549D01*
X151603743Y-83988749D01*
X151651192Y-83979312D01*
X153795112Y-83979312D01*
X153892654Y-83959908D01*
X153940105Y-83950470D01*
X154076687Y-83893896D01*
X154141483Y-83850601D01*
X154141486Y-83850598D01*
X154141488Y-83850598D01*
X154170739Y-83831052D01*
X154199608Y-83811764D01*
X154774542Y-83236827D01*
X154835865Y-83203343D01*
X154862223Y-83200509D01*
X155324996Y-83200509D01*
X155325002Y-83200509D01*
X155427791Y-83190009D01*
X155594328Y-83134824D01*
X155743650Y-83042722D01*
X155867706Y-82918666D01*
X155869461Y-82915821D01*
X155871173Y-82914281D01*
X155872187Y-82912999D01*
X155872406Y-82913172D01*
X155921404Y-82869097D01*
X155990366Y-82857872D01*
X156054450Y-82885712D01*
X156080537Y-82915817D01*
X156082288Y-82918656D01*
X156206344Y-83042712D01*
X156355666Y-83134814D01*
X156522203Y-83189999D01*
X156624991Y-83200500D01*
X157375008Y-83200499D01*
X157375016Y-83200498D01*
X157375019Y-83200498D01*
X157431302Y-83194748D01*
X157477797Y-83189999D01*
X157644334Y-83134814D01*
X157793656Y-83042712D01*
X157917712Y-82918656D01*
X158009814Y-82769334D01*
X158037595Y-82685495D01*
X158077368Y-82628051D01*
X158141884Y-82601228D01*
X158155301Y-82600500D01*
X158420234Y-82600500D01*
X158487273Y-82620185D01*
X158489125Y-82621398D01*
X158620814Y-82709390D01*
X158620827Y-82709397D01*
X158726465Y-82753153D01*
X158766503Y-82769737D01*
X158921153Y-82800499D01*
X158921156Y-82800500D01*
X158921158Y-82800500D01*
X159078844Y-82800500D01*
X159078845Y-82800499D01*
X159233497Y-82769737D01*
X159379179Y-82709394D01*
X159510289Y-82621789D01*
X159621789Y-82510289D01*
X159709394Y-82379179D01*
X159769737Y-82233497D01*
X159800500Y-82078842D01*
X159800500Y-81921158D01*
X159800500Y-81921155D01*
X159800499Y-81921153D01*
X159769738Y-81766510D01*
X159769737Y-81766503D01*
X159758804Y-81740107D01*
X159709397Y-81620827D01*
X159709390Y-81620814D01*
X159621789Y-81489711D01*
X159621786Y-81489707D01*
X159510292Y-81378213D01*
X159510288Y-81378210D01*
X159379185Y-81290609D01*
X159379172Y-81290602D01*
X159233501Y-81230264D01*
X159233489Y-81230261D01*
X159078845Y-81199500D01*
X159078842Y-81199500D01*
X158921158Y-81199500D01*
X158921155Y-81199500D01*
X158766510Y-81230261D01*
X158766498Y-81230264D01*
X158620827Y-81290602D01*
X158620814Y-81290609D01*
X158489125Y-81378602D01*
X158422447Y-81399480D01*
X158420234Y-81399500D01*
X158155301Y-81399500D01*
X158088262Y-81379815D01*
X158042507Y-81327011D01*
X158037595Y-81314504D01*
X158029675Y-81290602D01*
X158009814Y-81230666D01*
X157917712Y-81081344D01*
X157793656Y-80957288D01*
X157644352Y-80865197D01*
X157644336Y-80865187D01*
X157644331Y-80865185D01*
X157642862Y-80864698D01*
X157477797Y-80810001D01*
X157477795Y-80810000D01*
X157375010Y-80799500D01*
X156624998Y-80799500D01*
X156624980Y-80799501D01*
X156522203Y-80810000D01*
X156522200Y-80810001D01*
X156355668Y-80865185D01*
X156355663Y-80865187D01*
X156206342Y-80957289D01*
X156082288Y-81081343D01*
X156082284Y-81081348D01*
X156080526Y-81084199D01*
X156078811Y-81085741D01*
X156077807Y-81087011D01*
X156077589Y-81086839D01*
X156028574Y-81130919D01*
X155959611Y-81142135D01*
X155895531Y-81114286D01*
X155869453Y-81084186D01*
X155867706Y-81081354D01*
X155743650Y-80957298D01*
X155594328Y-80865196D01*
X155427791Y-80810011D01*
X155427789Y-80810010D01*
X155325004Y-80799510D01*
X154574992Y-80799510D01*
X154574974Y-80799511D01*
X154472197Y-80810010D01*
X154472194Y-80810011D01*
X154305662Y-80865195D01*
X154305657Y-80865197D01*
X154156336Y-80957299D01*
X154032283Y-81081352D01*
X153940181Y-81230673D01*
X153940179Y-81230678D01*
X153920322Y-81290602D01*
X153884995Y-81397213D01*
X153884995Y-81397214D01*
X153884994Y-81397214D01*
X153874494Y-81499993D01*
X153874494Y-81962780D01*
X153854809Y-82029819D01*
X153838175Y-82050461D01*
X153446643Y-82441993D01*
X153385320Y-82475478D01*
X153358962Y-82478312D01*
X151651192Y-82478312D01*
X151603743Y-82468874D01*
X151580085Y-82459075D01*
X151580081Y-82459074D01*
X151580076Y-82459072D01*
X151425433Y-82428312D01*
X151425430Y-82428312D01*
X151267746Y-82428312D01*
X151267743Y-82428312D01*
X151113099Y-82459072D01*
X151113094Y-82459074D01*
X151113092Y-82459074D01*
X151113091Y-82459075D01*
X151089432Y-82468874D01*
X151041984Y-82478312D01*
X149591041Y-82478312D01*
X149524002Y-82458627D01*
X149503360Y-82441993D01*
X149111818Y-82050450D01*
X149078333Y-81989127D01*
X149075499Y-81962769D01*
X149075499Y-81499998D01*
X149075498Y-81499981D01*
X149064999Y-81397203D01*
X149064998Y-81397200D01*
X149052693Y-81360067D01*
X149009814Y-81230666D01*
X148917712Y-81081344D01*
X148793656Y-80957288D01*
X148644352Y-80865197D01*
X148644336Y-80865187D01*
X148644331Y-80865185D01*
X148642862Y-80864698D01*
X148477797Y-80810001D01*
X148477795Y-80810000D01*
X148375010Y-80799500D01*
X147624998Y-80799500D01*
X147624980Y-80799501D01*
X147522203Y-80810000D01*
X147522200Y-80810001D01*
X147355668Y-80865185D01*
X147355663Y-80865187D01*
X147206342Y-80957289D01*
X147082285Y-81081346D01*
X147080537Y-81084182D01*
X147078829Y-81085717D01*
X147077807Y-81087011D01*
X147077585Y-81086836D01*
X147028589Y-81130905D01*
X146959626Y-81142126D01*
X146895544Y-81114282D01*
X146869462Y-81084180D01*
X146867708Y-81081337D01*
X146867705Y-81081333D01*
X146743651Y-80957279D01*
X146743650Y-80957278D01*
X146594362Y-80865197D01*
X146594330Y-80865177D01*
X146594325Y-80865175D01*
X146592856Y-80864688D01*
X146427791Y-80809991D01*
X146427789Y-80809990D01*
X146325004Y-80799490D01*
X145574992Y-80799490D01*
X145574974Y-80799491D01*
X145472197Y-80809990D01*
X145472194Y-80809991D01*
X145305662Y-80865175D01*
X145305657Y-80865177D01*
X145156336Y-80957279D01*
X145032283Y-81081332D01*
X144940181Y-81230653D01*
X144940178Y-81230661D01*
X144928966Y-81264496D01*
X144889193Y-81321940D01*
X144824677Y-81348762D01*
X144811261Y-81349490D01*
X144504920Y-81349490D01*
X144437881Y-81329805D01*
X144436076Y-81328623D01*
X144379179Y-81290606D01*
X144379172Y-81290602D01*
X144233501Y-81230264D01*
X144233489Y-81230261D01*
X144078845Y-81199500D01*
X144078842Y-81199500D01*
X143921158Y-81199500D01*
X143921155Y-81199500D01*
X143766510Y-81230261D01*
X143766498Y-81230264D01*
X143620827Y-81290602D01*
X143620814Y-81290609D01*
X143489711Y-81378210D01*
X143489707Y-81378213D01*
X143378213Y-81489707D01*
X143378210Y-81489711D01*
X143290609Y-81620814D01*
X143290602Y-81620827D01*
X143230264Y-81766498D01*
X143230261Y-81766510D01*
X143199500Y-81921153D01*
X110197601Y-81921153D01*
X110465033Y-81488071D01*
X110466254Y-81486135D01*
X110549595Y-81356694D01*
X110749968Y-81045485D01*
X110751150Y-81043687D01*
X111044495Y-80606283D01*
X111045791Y-80604389D01*
X111061141Y-80582395D01*
X111350516Y-80167776D01*
X111351781Y-80165998D01*
X111666216Y-79732716D01*
X111667457Y-79731038D01*
X111993641Y-79298432D01*
X111994897Y-79296797D01*
X112040802Y-79238158D01*
X117254148Y-79238158D01*
X117254148Y-79395851D01*
X117284909Y-79550494D01*
X117284912Y-79550506D01*
X117345250Y-79696177D01*
X117345257Y-79696190D01*
X117432858Y-79827293D01*
X117432861Y-79827297D01*
X117544355Y-79938791D01*
X117544359Y-79938794D01*
X117675462Y-80026395D01*
X117675475Y-80026402D01*
X117821146Y-80086740D01*
X117821151Y-80086742D01*
X117975801Y-80117504D01*
X117975804Y-80117505D01*
X117975806Y-80117505D01*
X118133492Y-80117505D01*
X118133493Y-80117504D01*
X118288145Y-80086742D01*
X118433827Y-80026399D01*
X118564937Y-79938794D01*
X118676437Y-79827294D01*
X118764042Y-79696184D01*
X118783085Y-79650206D01*
X118809962Y-79609982D01*
X119137243Y-79282701D01*
X119198564Y-79249218D01*
X119263922Y-79252677D01*
X119387493Y-79293625D01*
X119422514Y-79296689D01*
X119562261Y-79308916D01*
X119562263Y-79308915D01*
X119562267Y-79308916D01*
X119735856Y-79283488D01*
X119735859Y-79283486D01*
X119735862Y-79283486D01*
X119888628Y-79222796D01*
X119898903Y-79218714D01*
X119984393Y-79160687D01*
X119984403Y-79160678D01*
X119984406Y-79160677D01*
X120236378Y-78949246D01*
X120558939Y-78678585D01*
X120630930Y-78604470D01*
X120723033Y-78455148D01*
X120778218Y-78288611D01*
X120793509Y-78113837D01*
X120793026Y-78110542D01*
X120793346Y-78108270D01*
X120793299Y-78106625D01*
X120793580Y-78106616D01*
X120802784Y-78041361D01*
X120848396Y-77988434D01*
X120915383Y-77968569D01*
X120954720Y-77974863D01*
X120957877Y-77975909D01*
X121132645Y-77991200D01*
X121132647Y-77991199D01*
X121132651Y-77991200D01*
X121306240Y-77965772D01*
X121306243Y-77965770D01*
X121306246Y-77965770D01*
X121469279Y-77901001D01*
X121469287Y-77900998D01*
X121554777Y-77842971D01*
X121554787Y-77842962D01*
X121554790Y-77842961D01*
X121796162Y-77640425D01*
X122129323Y-77360869D01*
X122130054Y-77360117D01*
X122130587Y-77359568D01*
X128999500Y-77359568D01*
X128999500Y-77640431D01*
X129030942Y-77919494D01*
X129030945Y-77919512D01*
X129093439Y-78193317D01*
X129093443Y-78193329D01*
X129186200Y-78458411D01*
X129308053Y-78711442D01*
X129326179Y-78740289D01*
X129457477Y-78949248D01*
X129567228Y-79086871D01*
X129606829Y-79136530D01*
X129632584Y-79168825D01*
X129831175Y-79367416D01*
X130050752Y-79542523D01*
X130288555Y-79691945D01*
X130541592Y-79813801D01*
X130723665Y-79877511D01*
X130806670Y-79906556D01*
X130806682Y-79906560D01*
X131080491Y-79969055D01*
X131080497Y-79969055D01*
X131080505Y-79969057D01*
X131259115Y-79989181D01*
X131359569Y-80000499D01*
X131359572Y-80000500D01*
X131359575Y-80000500D01*
X131640428Y-80000500D01*
X131640429Y-80000499D01*
X131783055Y-79984429D01*
X131919494Y-79969057D01*
X131919499Y-79969056D01*
X131919509Y-79969055D01*
X132193318Y-79906560D01*
X132458408Y-79813801D01*
X132711445Y-79691945D01*
X132949248Y-79542523D01*
X133168825Y-79367416D01*
X133367416Y-79168825D01*
X133542523Y-78949248D01*
X133691945Y-78711445D01*
X133813801Y-78458408D01*
X133906560Y-78193318D01*
X133969055Y-77919509D01*
X133970031Y-77910853D01*
X134000499Y-77640431D01*
X134000500Y-77640427D01*
X134000500Y-77359572D01*
X134000499Y-77359568D01*
X169499500Y-77359568D01*
X169499500Y-77640431D01*
X169530942Y-77919494D01*
X169530945Y-77919512D01*
X169593439Y-78193317D01*
X169593443Y-78193329D01*
X169686200Y-78458411D01*
X169808053Y-78711442D01*
X169826179Y-78740289D01*
X169957477Y-78949248D01*
X170067228Y-79086871D01*
X170106829Y-79136530D01*
X170132584Y-79168825D01*
X170331175Y-79367416D01*
X170550752Y-79542523D01*
X170788555Y-79691945D01*
X171041592Y-79813801D01*
X171223665Y-79877511D01*
X171306670Y-79906556D01*
X171306682Y-79906560D01*
X171580491Y-79969055D01*
X171580497Y-79969055D01*
X171580505Y-79969057D01*
X171759115Y-79989181D01*
X171859569Y-80000499D01*
X171859572Y-80000500D01*
X171859575Y-80000500D01*
X172140428Y-80000500D01*
X172140429Y-80000499D01*
X172283055Y-79984429D01*
X172419494Y-79969057D01*
X172419499Y-79969056D01*
X172419509Y-79969055D01*
X172693318Y-79906560D01*
X172958408Y-79813801D01*
X173211445Y-79691945D01*
X173449248Y-79542523D01*
X173668825Y-79367416D01*
X173867416Y-79168825D01*
X174042523Y-78949248D01*
X174191945Y-78711445D01*
X174313801Y-78458408D01*
X174406560Y-78193318D01*
X174469055Y-77919509D01*
X174470031Y-77910853D01*
X174500499Y-77640431D01*
X174500500Y-77640427D01*
X174500500Y-77359572D01*
X174500499Y-77359568D01*
X174469057Y-77080505D01*
X174469054Y-77080487D01*
X174467832Y-77075135D01*
X174406560Y-76806682D01*
X174324399Y-76571880D01*
X180836343Y-76571880D01*
X180836343Y-76729573D01*
X180867104Y-76884216D01*
X180867107Y-76884228D01*
X180927445Y-77029899D01*
X180927452Y-77029912D01*
X181015053Y-77161015D01*
X181015056Y-77161019D01*
X181126550Y-77272513D01*
X181126554Y-77272516D01*
X181257657Y-77360117D01*
X181257670Y-77360124D01*
X181403341Y-77420462D01*
X181403346Y-77420464D01*
X181467990Y-77433322D01*
X181558692Y-77451365D01*
X181620603Y-77483750D01*
X181622182Y-77485301D01*
X181631694Y-77494813D01*
X181665179Y-77556136D01*
X181660976Y-77614904D01*
X181663404Y-77615555D01*
X181661536Y-77622526D01*
X181636106Y-77796126D01*
X181651397Y-77970893D01*
X181706582Y-78137429D01*
X181706587Y-78137440D01*
X181798686Y-78286754D01*
X181834679Y-78323810D01*
X181870676Y-78360869D01*
X182445223Y-78842970D01*
X182508857Y-78886163D01*
X182530713Y-78900998D01*
X182530720Y-78901001D01*
X182693753Y-78965770D01*
X182693758Y-78965771D01*
X182693760Y-78965772D01*
X182867349Y-78991200D01*
X183042123Y-78975909D01*
X183045276Y-78974863D01*
X183047567Y-78974785D01*
X183049195Y-78974449D01*
X183049252Y-78974727D01*
X183115104Y-78972460D01*
X183175147Y-79008190D01*
X183206341Y-79070710D01*
X183206975Y-79110534D01*
X183206490Y-79113840D01*
X183221781Y-79288609D01*
X183276966Y-79455145D01*
X183276971Y-79455156D01*
X183369070Y-79604470D01*
X183413497Y-79650209D01*
X183441060Y-79678585D01*
X184015607Y-80160686D01*
X184023370Y-80165955D01*
X184101097Y-80218714D01*
X184101104Y-80218717D01*
X184264137Y-80283486D01*
X184264142Y-80283487D01*
X184264144Y-80283488D01*
X184437733Y-80308916D01*
X184612507Y-80293625D01*
X184657973Y-80278558D01*
X184727801Y-80276157D01*
X184787843Y-80311889D01*
X184818594Y-80372073D01*
X184831449Y-80436701D01*
X184831452Y-80436711D01*
X184891790Y-80582382D01*
X184891797Y-80582395D01*
X184979398Y-80713498D01*
X184979401Y-80713502D01*
X185090895Y-80824996D01*
X185090899Y-80824999D01*
X185222002Y-80912600D01*
X185222015Y-80912607D01*
X185329913Y-80957299D01*
X185367691Y-80972947D01*
X185522341Y-81003709D01*
X185522344Y-81003710D01*
X185522346Y-81003710D01*
X185680032Y-81003710D01*
X185680033Y-81003709D01*
X185834685Y-80972947D01*
X185980367Y-80912604D01*
X186111477Y-80824999D01*
X186222977Y-80713499D01*
X186310582Y-80582389D01*
X186370925Y-80436707D01*
X186401688Y-80282052D01*
X186401688Y-80124368D01*
X186401688Y-80124365D01*
X186401687Y-80124363D01*
X186394203Y-80086740D01*
X186370925Y-79969713D01*
X186370653Y-79969057D01*
X186310585Y-79824037D01*
X186310578Y-79824024D01*
X186222977Y-79692921D01*
X186222974Y-79692917D01*
X186111480Y-79581423D01*
X186111476Y-79581420D01*
X185980373Y-79493819D01*
X185980360Y-79493812D01*
X185834689Y-79433474D01*
X185834679Y-79433471D01*
X185776402Y-79421879D01*
X185714491Y-79389494D01*
X185679917Y-79328778D01*
X185683658Y-79259008D01*
X185697995Y-79230624D01*
X185703307Y-79222799D01*
X185737579Y-79136530D01*
X185768079Y-79059758D01*
X185768080Y-79059754D01*
X185768079Y-79059754D01*
X185768081Y-79059752D01*
X185793509Y-78886163D01*
X185793508Y-78886159D01*
X185793509Y-78886157D01*
X185778218Y-78711390D01*
X185772859Y-78695218D01*
X185723033Y-78544852D01*
X185723029Y-78544846D01*
X185723028Y-78544843D01*
X185655914Y-78436036D01*
X185630930Y-78395530D01*
X185597254Y-78360860D01*
X185558948Y-78321423D01*
X185558943Y-78321418D01*
X185558942Y-78321417D01*
X185558940Y-78321415D01*
X184984393Y-77839314D01*
X184968625Y-77828611D01*
X184898902Y-77781285D01*
X184898895Y-77781282D01*
X184735862Y-77716513D01*
X184735858Y-77716512D01*
X184562260Y-77691083D01*
X184387493Y-77706374D01*
X184387486Y-77706376D01*
X184384326Y-77707423D01*
X184382035Y-77707501D01*
X184380421Y-77707835D01*
X184380363Y-77707558D01*
X184314497Y-77709819D01*
X184254458Y-77674082D01*
X184223271Y-77611559D01*
X184222642Y-77571743D01*
X184223125Y-77568447D01*
X184207834Y-77393673D01*
X184152649Y-77227136D01*
X184152645Y-77227130D01*
X184152644Y-77227127D01*
X184097317Y-77137429D01*
X184060546Y-77077814D01*
X184052547Y-77069579D01*
X183988564Y-77003707D01*
X183988559Y-77003702D01*
X183988558Y-77003701D01*
X183988556Y-77003699D01*
X183414009Y-76521598D01*
X183381291Y-76499390D01*
X183328518Y-76463569D01*
X183328511Y-76463566D01*
X183165478Y-76398797D01*
X183165474Y-76398796D01*
X182997638Y-76374211D01*
X182991883Y-76373368D01*
X182991876Y-76373367D01*
X182817110Y-76388658D01*
X182650574Y-76443843D01*
X182650560Y-76443850D01*
X182588859Y-76481907D01*
X182521467Y-76500347D01*
X182454804Y-76479424D01*
X182410035Y-76425781D01*
X182408953Y-76422839D01*
X182408911Y-76422857D01*
X182346240Y-76271554D01*
X182346233Y-76271541D01*
X182258632Y-76140438D01*
X182258629Y-76140434D01*
X182147135Y-76028940D01*
X182147131Y-76028937D01*
X182016028Y-75941336D01*
X182016015Y-75941329D01*
X181870344Y-75880991D01*
X181870332Y-75880988D01*
X181715688Y-75850227D01*
X181715685Y-75850227D01*
X181558001Y-75850227D01*
X181557998Y-75850227D01*
X181403353Y-75880988D01*
X181403341Y-75880991D01*
X181257670Y-75941329D01*
X181257657Y-75941336D01*
X181126554Y-76028937D01*
X181126550Y-76028940D01*
X181015056Y-76140434D01*
X181015053Y-76140438D01*
X180927452Y-76271541D01*
X180927445Y-76271554D01*
X180867107Y-76417225D01*
X180867104Y-76417237D01*
X180836343Y-76571880D01*
X174324399Y-76571880D01*
X174313801Y-76541592D01*
X174191945Y-76288555D01*
X174042523Y-76050752D01*
X173867416Y-75831175D01*
X173668825Y-75632584D01*
X173449248Y-75457477D01*
X173211445Y-75308055D01*
X173211442Y-75308053D01*
X172958411Y-75186200D01*
X172693329Y-75093443D01*
X172693317Y-75093439D01*
X172419512Y-75030945D01*
X172419494Y-75030942D01*
X172140431Y-74999500D01*
X172140425Y-74999500D01*
X171859575Y-74999500D01*
X171859568Y-74999500D01*
X171580505Y-75030942D01*
X171580487Y-75030945D01*
X171306682Y-75093439D01*
X171306670Y-75093443D01*
X171041588Y-75186200D01*
X170788557Y-75308053D01*
X170550753Y-75457476D01*
X170331175Y-75632583D01*
X170132583Y-75831175D01*
X169957476Y-76050753D01*
X169808053Y-76288557D01*
X169686200Y-76541588D01*
X169593443Y-76806670D01*
X169593439Y-76806682D01*
X169530945Y-77080487D01*
X169530942Y-77080505D01*
X169499500Y-77359568D01*
X134000499Y-77359568D01*
X133969057Y-77080505D01*
X133969054Y-77080487D01*
X133967832Y-77075135D01*
X133906560Y-76806682D01*
X133813801Y-76541592D01*
X133691945Y-76288555D01*
X133542523Y-76050752D01*
X133367416Y-75831175D01*
X133168825Y-75632584D01*
X132949248Y-75457477D01*
X132711445Y-75308055D01*
X132711442Y-75308053D01*
X132458411Y-75186200D01*
X132193329Y-75093443D01*
X132193317Y-75093439D01*
X131919512Y-75030945D01*
X131919494Y-75030942D01*
X131640431Y-74999500D01*
X131640425Y-74999500D01*
X131359575Y-74999500D01*
X131359568Y-74999500D01*
X131080505Y-75030942D01*
X131080487Y-75030945D01*
X130806682Y-75093439D01*
X130806670Y-75093443D01*
X130541588Y-75186200D01*
X130288557Y-75308053D01*
X130050753Y-75457476D01*
X129831175Y-75632583D01*
X129632583Y-75831175D01*
X129457476Y-76050753D01*
X129308053Y-76288557D01*
X129186200Y-76541588D01*
X129093443Y-76806670D01*
X129093439Y-76806682D01*
X129030945Y-77080487D01*
X129030942Y-77080505D01*
X128999500Y-77359568D01*
X122130587Y-77359568D01*
X122201309Y-77286759D01*
X122201314Y-77286754D01*
X122293417Y-77137432D01*
X122348602Y-76970895D01*
X122358603Y-76856582D01*
X122363893Y-76796126D01*
X122363892Y-76796124D01*
X122363893Y-76796121D01*
X122349664Y-76698986D01*
X122359425Y-76629802D01*
X122384674Y-76593334D01*
X122456414Y-76521594D01*
X122478619Y-76499389D01*
X122539941Y-76465905D01*
X122542108Y-76465454D01*
X122542797Y-76465317D01*
X122542798Y-76465317D01*
X122697453Y-76434554D01*
X122843135Y-76374211D01*
X122974245Y-76286606D01*
X123085745Y-76175106D01*
X123173350Y-76043996D01*
X123233693Y-75898314D01*
X123264456Y-75743659D01*
X123264456Y-75585975D01*
X123264456Y-75585972D01*
X123264455Y-75585970D01*
X123257967Y-75553351D01*
X123233693Y-75431320D01*
X123220221Y-75398796D01*
X123173353Y-75285644D01*
X123173346Y-75285631D01*
X123085745Y-75154528D01*
X123085742Y-75154524D01*
X122974248Y-75043030D01*
X122974244Y-75043027D01*
X122843141Y-74955426D01*
X122843128Y-74955419D01*
X122697457Y-74895081D01*
X122697445Y-74895078D01*
X122542801Y-74864317D01*
X122542798Y-74864317D01*
X122385114Y-74864317D01*
X122385111Y-74864317D01*
X122230466Y-74895078D01*
X122230454Y-74895081D01*
X122084783Y-74955419D01*
X122084770Y-74955426D01*
X121953667Y-75043027D01*
X121953663Y-75043030D01*
X121842169Y-75154524D01*
X121842166Y-75154528D01*
X121754565Y-75285631D01*
X121754558Y-75285644D01*
X121694220Y-75431315D01*
X121694217Y-75431325D01*
X121689137Y-75456866D01*
X121656752Y-75518777D01*
X121596036Y-75553351D01*
X121526266Y-75549610D01*
X121502423Y-75538213D01*
X121498751Y-75535948D01*
X121498750Y-75535947D01*
X121349428Y-75443844D01*
X121320877Y-75434383D01*
X121182889Y-75388658D01*
X121182890Y-75388658D01*
X121008122Y-75373367D01*
X120834525Y-75398796D01*
X120834521Y-75398797D01*
X120671488Y-75463566D01*
X120671481Y-75463569D01*
X120585981Y-75521604D01*
X120585977Y-75521606D01*
X120011442Y-76003701D01*
X120011435Y-76003707D01*
X119939458Y-76077808D01*
X119939454Y-76077813D01*
X119847355Y-76227127D01*
X119847350Y-76227138D01*
X119792165Y-76393674D01*
X119776874Y-76568445D01*
X119776874Y-76568446D01*
X119777358Y-76571747D01*
X119777037Y-76574020D01*
X119777085Y-76575659D01*
X119776804Y-76575667D01*
X119767595Y-76640931D01*
X119721978Y-76693854D01*
X119654990Y-76713714D01*
X119615670Y-76707422D01*
X119612511Y-76706375D01*
X119612506Y-76706374D01*
X119437738Y-76691083D01*
X119264141Y-76716512D01*
X119264137Y-76716513D01*
X119101104Y-76781282D01*
X119101097Y-76781285D01*
X119015597Y-76839320D01*
X119015593Y-76839322D01*
X118441058Y-77321417D01*
X118441051Y-77321423D01*
X118369074Y-77395524D01*
X118369070Y-77395529D01*
X118276971Y-77544843D01*
X118276966Y-77544854D01*
X118221781Y-77711390D01*
X118206490Y-77886157D01*
X118231919Y-78059754D01*
X118231920Y-78059758D01*
X118283800Y-78190348D01*
X118290258Y-78259919D01*
X118258077Y-78321936D01*
X118256243Y-78323810D01*
X118099866Y-78480187D01*
X118038546Y-78513671D01*
X118012187Y-78516505D01*
X117975803Y-78516505D01*
X117821158Y-78547266D01*
X117821146Y-78547269D01*
X117675475Y-78607607D01*
X117675462Y-78607614D01*
X117544359Y-78695215D01*
X117544355Y-78695218D01*
X117432861Y-78806712D01*
X117432858Y-78806716D01*
X117345257Y-78937819D01*
X117345250Y-78937832D01*
X117284912Y-79083503D01*
X117284909Y-79083515D01*
X117254148Y-79238158D01*
X112040802Y-79238158D01*
X112330943Y-78867534D01*
X112332126Y-78866051D01*
X112680057Y-78437699D01*
X112681399Y-78436076D01*
X113039224Y-78011236D01*
X113040592Y-78009641D01*
X113410682Y-77585659D01*
X113411982Y-77584196D01*
X113792093Y-77163800D01*
X113793523Y-77162247D01*
X113794673Y-77161019D01*
X114186204Y-76742776D01*
X114187461Y-76741456D01*
X114590463Y-76325484D01*
X114591737Y-76324192D01*
X115007503Y-75909356D01*
X115008833Y-75908050D01*
X115434834Y-75497036D01*
X115436228Y-75495713D01*
X115875490Y-75085760D01*
X115876802Y-75084555D01*
X116326327Y-74678621D01*
X116327781Y-74677331D01*
X116746348Y-74311510D01*
X116790862Y-74272604D01*
X116792246Y-74271414D01*
X117266566Y-73870104D01*
X117267572Y-73869265D01*
X117477988Y-73695868D01*
X117479184Y-73694897D01*
X117885219Y-73370068D01*
X117887036Y-73368644D01*
X118298633Y-73051928D01*
X118300443Y-73050561D01*
X118719957Y-72740159D01*
X118721670Y-72738916D01*
X119147873Y-72435780D01*
X119149629Y-72434557D01*
X119450883Y-72228670D01*
X119583716Y-72137888D01*
X119585636Y-72136601D01*
X119598672Y-72128044D01*
X120026402Y-71847271D01*
X120028199Y-71846116D01*
X120477141Y-71563202D01*
X120478985Y-71562064D01*
X120934538Y-71286613D01*
X120936379Y-71285523D01*
X121400324Y-71016525D01*
X121402095Y-71015520D01*
X121872551Y-70754129D01*
X121874450Y-70753097D01*
X122353447Y-70498256D01*
X122355294Y-70497295D01*
X122840761Y-70250177D01*
X122842716Y-70249203D01*
X123336900Y-70008738D01*
X123338735Y-70007865D01*
X123839606Y-69775125D01*
X123841417Y-69774304D01*
X124350912Y-69548465D01*
X124352750Y-69547668D01*
X124868972Y-69329653D01*
X124870833Y-69328886D01*
X125092426Y-69239840D01*
X148107127Y-69239840D01*
X148107127Y-69583771D01*
X148140837Y-69926055D01*
X148207935Y-70263378D01*
X148307777Y-70592512D01*
X148439397Y-70910270D01*
X148439399Y-70910275D01*
X148601520Y-71213581D01*
X148601531Y-71213599D01*
X148792602Y-71499557D01*
X148792612Y-71499571D01*
X149010803Y-71765438D01*
X149253994Y-72008629D01*
X149253999Y-72008633D01*
X149254000Y-72008634D01*
X149519867Y-72226825D01*
X149805840Y-72417906D01*
X149805849Y-72417911D01*
X149805851Y-72417912D01*
X150109157Y-72580033D01*
X150109159Y-72580033D01*
X150109165Y-72580037D01*
X150426922Y-72711656D01*
X150756049Y-72811496D01*
X151093377Y-72878595D01*
X151435658Y-72912306D01*
X151435661Y-72912306D01*
X151779593Y-72912306D01*
X151779596Y-72912306D01*
X152121877Y-72878595D01*
X152459205Y-72811496D01*
X152788332Y-72711656D01*
X153106089Y-72580037D01*
X153409414Y-72417906D01*
X153695387Y-72226825D01*
X153961254Y-72008634D01*
X154204455Y-71765433D01*
X154422646Y-71499566D01*
X154613727Y-71213593D01*
X154775858Y-70910268D01*
X154907477Y-70592511D01*
X155007317Y-70263384D01*
X155074416Y-69926056D01*
X155108127Y-69583775D01*
X155108127Y-69239837D01*
X155091786Y-69073920D01*
X159249499Y-69073920D01*
X159278340Y-69218907D01*
X159278343Y-69218917D01*
X159334912Y-69355488D01*
X159334919Y-69355501D01*
X159417048Y-69478415D01*
X159417051Y-69478419D01*
X159521580Y-69582948D01*
X159521584Y-69582951D01*
X159644498Y-69665080D01*
X159644511Y-69665087D01*
X159781082Y-69721656D01*
X159781087Y-69721658D01*
X159781091Y-69721658D01*
X159781092Y-69721659D01*
X159926079Y-69750500D01*
X159926082Y-69750500D01*
X160073920Y-69750500D01*
X160171462Y-69731096D01*
X160218913Y-69721658D01*
X160355495Y-69665084D01*
X160478416Y-69582951D01*
X160582951Y-69478416D01*
X160665084Y-69355495D01*
X160721658Y-69218913D01*
X160739312Y-69130161D01*
X160750500Y-69073920D01*
X166049499Y-69073920D01*
X166078340Y-69218907D01*
X166078343Y-69218917D01*
X166134912Y-69355488D01*
X166134919Y-69355501D01*
X166217048Y-69478415D01*
X166217051Y-69478419D01*
X166321580Y-69582948D01*
X166321584Y-69582951D01*
X166444498Y-69665080D01*
X166444511Y-69665087D01*
X166581082Y-69721656D01*
X166581087Y-69721658D01*
X166581091Y-69721658D01*
X166581092Y-69721659D01*
X166726079Y-69750500D01*
X166726082Y-69750500D01*
X166873920Y-69750500D01*
X166971462Y-69731096D01*
X167018913Y-69721658D01*
X167155495Y-69665084D01*
X167278416Y-69582951D01*
X167382951Y-69478416D01*
X167465084Y-69355495D01*
X167521658Y-69218913D01*
X167539312Y-69130161D01*
X167550500Y-69073920D01*
X167550500Y-68926079D01*
X167521659Y-68781092D01*
X167521658Y-68781091D01*
X167521658Y-68781087D01*
X167521656Y-68781082D01*
X167465087Y-68644511D01*
X167465080Y-68644498D01*
X167382951Y-68521584D01*
X167382948Y-68521580D01*
X167278419Y-68417051D01*
X167278415Y-68417048D01*
X167155501Y-68334919D01*
X167155488Y-68334912D01*
X167018917Y-68278343D01*
X167018907Y-68278340D01*
X166873920Y-68249500D01*
X166873918Y-68249500D01*
X166726082Y-68249500D01*
X166726080Y-68249500D01*
X166581092Y-68278340D01*
X166581082Y-68278343D01*
X166444511Y-68334912D01*
X166444498Y-68334919D01*
X166321584Y-68417048D01*
X166321580Y-68417051D01*
X166217051Y-68521580D01*
X166217048Y-68521584D01*
X166134919Y-68644498D01*
X166134912Y-68644511D01*
X166078343Y-68781082D01*
X166078340Y-68781092D01*
X166049500Y-68926079D01*
X166049500Y-68926082D01*
X166049500Y-69073918D01*
X166049500Y-69073920D01*
X166049499Y-69073920D01*
X160750500Y-69073920D01*
X160750500Y-68926079D01*
X160721659Y-68781092D01*
X160721658Y-68781091D01*
X160721658Y-68781087D01*
X160721656Y-68781082D01*
X160665087Y-68644511D01*
X160665080Y-68644498D01*
X160582951Y-68521584D01*
X160582948Y-68521580D01*
X160478419Y-68417051D01*
X160478415Y-68417048D01*
X160355501Y-68334919D01*
X160355488Y-68334912D01*
X160218917Y-68278343D01*
X160218907Y-68278340D01*
X160073920Y-68249500D01*
X160073918Y-68249500D01*
X159926082Y-68249500D01*
X159926080Y-68249500D01*
X159781092Y-68278340D01*
X159781082Y-68278343D01*
X159644511Y-68334912D01*
X159644498Y-68334919D01*
X159521584Y-68417048D01*
X159521580Y-68417051D01*
X159417051Y-68521580D01*
X159417048Y-68521584D01*
X159334919Y-68644498D01*
X159334912Y-68644511D01*
X159278343Y-68781082D01*
X159278340Y-68781092D01*
X159249500Y-68926079D01*
X159249500Y-68926082D01*
X159249500Y-69073918D01*
X159249500Y-69073920D01*
X159249499Y-69073920D01*
X155091786Y-69073920D01*
X155091786Y-69073918D01*
X155077823Y-68932144D01*
X155077823Y-68932142D01*
X155074416Y-68897556D01*
X155007318Y-68560233D01*
X155007317Y-68560232D01*
X155007317Y-68560228D01*
X154907477Y-68231101D01*
X154775858Y-67913344D01*
X154766237Y-67895345D01*
X154613733Y-67610030D01*
X154613732Y-67610028D01*
X154613727Y-67610019D01*
X154422646Y-67324046D01*
X154204455Y-67058179D01*
X154204454Y-67058178D01*
X154204450Y-67058173D01*
X153961259Y-66814982D01*
X153695392Y-66596791D01*
X153695391Y-66596790D01*
X153695387Y-66596787D01*
X153409414Y-66405706D01*
X153409409Y-66405703D01*
X153409402Y-66405699D01*
X153106096Y-66243578D01*
X153106091Y-66243576D01*
X152788333Y-66111956D01*
X152459199Y-66012114D01*
X152121875Y-65945016D01*
X152121876Y-65945016D01*
X151864083Y-65919627D01*
X151779596Y-65911306D01*
X151435658Y-65911306D01*
X151357593Y-65918994D01*
X151093377Y-65945016D01*
X150756054Y-66012114D01*
X150426920Y-66111956D01*
X150109162Y-66243576D01*
X150109157Y-66243578D01*
X149805851Y-66405699D01*
X149805833Y-66405710D01*
X149519875Y-66596781D01*
X149519861Y-66596791D01*
X149253994Y-66814982D01*
X149010803Y-67058173D01*
X148792612Y-67324040D01*
X148792602Y-67324054D01*
X148601531Y-67610012D01*
X148601520Y-67610030D01*
X148439399Y-67913336D01*
X148439397Y-67913341D01*
X148307777Y-68231099D01*
X148207935Y-68560233D01*
X148140837Y-68897556D01*
X148114815Y-69161772D01*
X148109188Y-69218917D01*
X148107127Y-69239840D01*
X125092426Y-69239840D01*
X125395812Y-69117926D01*
X125397778Y-69117155D01*
X125932743Y-68912905D01*
X127428480Y-68353165D01*
X127440274Y-68349538D01*
X127441313Y-68349135D01*
X127441316Y-68349135D01*
X127500107Y-68326360D01*
X127559102Y-68304284D01*
X127561477Y-68302588D01*
X128733753Y-67848487D01*
X128747301Y-67844968D01*
X128747136Y-67844370D01*
X128754957Y-67842206D01*
X128754970Y-67842205D01*
X128808479Y-67819541D01*
X128862677Y-67798547D01*
X128869050Y-67793886D01*
X129442401Y-67551045D01*
X129466313Y-67543662D01*
X129468800Y-67543163D01*
X129514487Y-67520515D01*
X129561418Y-67500638D01*
X129573330Y-67491345D01*
X129867616Y-67345464D01*
X129885622Y-67338234D01*
X129901712Y-67333196D01*
X129920196Y-67321469D01*
X129929617Y-67315494D01*
X129940960Y-67309107D01*
X129970574Y-67294428D01*
X129983230Y-67283282D01*
X129998756Y-67271634D01*
X130153798Y-67173280D01*
X130153797Y-67173280D01*
X130158294Y-67170428D01*
X130197679Y-67149954D01*
X130213729Y-67135262D01*
X130232102Y-67123608D01*
X130258557Y-67094848D01*
X130266072Y-67087352D01*
X130359450Y-67001882D01*
X130398286Y-66970671D01*
X130407908Y-66957529D01*
X130419922Y-66946533D01*
X130444579Y-66907875D01*
X130449048Y-66901340D01*
X130459443Y-66887144D01*
X130467364Y-66877405D01*
X130490253Y-66852007D01*
X130497394Y-66838005D01*
X130507802Y-66821097D01*
X130517094Y-66808409D01*
X130529469Y-66776522D01*
X130534591Y-66765080D01*
X130540865Y-66752780D01*
X130544098Y-66746850D01*
X130568622Y-66704649D01*
X130572254Y-66691244D01*
X130578564Y-66678874D01*
X130589438Y-66627823D01*
X130605020Y-66570312D01*
X130607303Y-66562832D01*
X130622160Y-66519165D01*
X130622404Y-66515476D01*
X130626449Y-66491230D01*
X130627420Y-66487649D01*
X130627549Y-66441519D01*
X130627820Y-66433678D01*
X130628319Y-66426133D01*
X130630161Y-66398316D01*
X130632265Y-66382359D01*
X130637186Y-66357593D01*
X130635561Y-66332914D01*
X130635360Y-66328796D01*
X130635165Y-66322724D01*
X130637200Y-66292019D01*
X130633604Y-66273882D01*
X130633280Y-66263716D01*
X130634237Y-66260020D01*
X130633643Y-66249483D01*
X130634022Y-66244927D01*
X130628592Y-66214898D01*
X130626881Y-66200977D01*
X130624878Y-66170524D01*
X130618636Y-66152153D01*
X130614026Y-66134333D01*
X130604413Y-66081160D01*
X130602441Y-66057911D01*
X130602507Y-66051029D01*
X130591778Y-66009406D01*
X130589837Y-66000540D01*
X130589776Y-66000201D01*
X130582194Y-65958264D01*
X130579253Y-65952027D01*
X130571332Y-65930087D01*
X130566491Y-65911306D01*
X130546045Y-65831985D01*
X130545642Y-65820591D01*
X130529640Y-65768341D01*
X130515998Y-65715416D01*
X130515993Y-65715407D01*
X130512959Y-65707880D01*
X130513001Y-65707863D01*
X130506438Y-65692581D01*
X130456107Y-65528237D01*
X130455515Y-65519686D01*
X130436846Y-65465347D01*
X130420026Y-65410424D01*
X130416653Y-65403032D01*
X130417111Y-65402822D01*
X130410867Y-65389729D01*
X130409204Y-65384889D01*
X130342072Y-65189484D01*
X130340933Y-65179170D01*
X130320708Y-65127302D01*
X130302624Y-65074662D01*
X130302620Y-65074656D01*
X130299001Y-65067383D01*
X130299185Y-65067290D01*
X130291831Y-65053240D01*
X130092420Y-64541820D01*
X130087941Y-64530334D01*
X130087356Y-64525783D01*
X130064026Y-64468999D01*
X130063611Y-64467935D01*
X130041736Y-64411835D01*
X130041734Y-64411829D01*
X130041728Y-64411821D01*
X130040382Y-64409372D01*
X130034336Y-64396738D01*
X130034193Y-64396391D01*
X129886855Y-64037773D01*
X129837448Y-63917519D01*
X129835682Y-63912968D01*
X129827812Y-63891439D01*
X129679609Y-63486005D01*
X129676522Y-63476352D01*
X129610005Y-63234583D01*
X129606744Y-63218756D01*
X129601255Y-63179249D01*
X129611526Y-63110141D01*
X129657531Y-63057554D01*
X129698073Y-63040943D01*
X129755463Y-63028638D01*
X129764679Y-63027025D01*
X129895334Y-63009250D01*
X129902942Y-63008454D01*
X130151746Y-62990237D01*
X130157386Y-62989955D01*
X130464861Y-62981590D01*
X130469086Y-62981548D01*
X131273749Y-62987380D01*
X131277045Y-62987447D01*
X132496036Y-63028771D01*
X132498895Y-63028902D01*
X133138072Y-63065665D01*
X133139919Y-63065785D01*
X133787506Y-63113124D01*
X133789218Y-63113263D01*
X134451054Y-63171782D01*
X134452755Y-63171945D01*
X135119021Y-63240925D01*
X135120822Y-63241126D01*
X135796791Y-63321202D01*
X135798491Y-63321417D01*
X136477132Y-63411858D01*
X136478762Y-63412087D01*
X137162350Y-63513238D01*
X137164082Y-63513507D01*
X137846451Y-63624481D01*
X137848945Y-63624914D01*
X139218911Y-63877797D01*
X139222334Y-63878479D01*
X140576319Y-64168295D01*
X140579685Y-64169065D01*
X141906974Y-64492912D01*
X141910378Y-64493795D01*
X143199131Y-64847886D01*
X143202630Y-64848902D01*
X143665466Y-64990852D01*
X144448253Y-65230929D01*
X144449630Y-65231360D01*
X144991853Y-65404585D01*
X144991852Y-65404585D01*
X145002383Y-65407949D01*
X145005251Y-65409738D01*
X145065165Y-65428006D01*
X145124704Y-65447027D01*
X145124707Y-65447027D01*
X145124898Y-65447088D01*
X145138637Y-65450407D01*
X146335126Y-65815222D01*
X146341818Y-65819119D01*
X146398057Y-65834410D01*
X146404341Y-65836326D01*
X146453776Y-65851400D01*
X146461797Y-65852736D01*
X146461690Y-65853376D01*
X146475410Y-65855442D01*
X146865014Y-65961376D01*
X146884755Y-65970697D01*
X146928360Y-65978600D01*
X146971120Y-65990227D01*
X146982032Y-65990266D01*
X147003678Y-65992251D01*
X147047582Y-66000209D01*
X147050805Y-66000840D01*
X147106987Y-66012619D01*
X147106991Y-66012618D01*
X147106994Y-66012619D01*
X147113934Y-66012235D01*
X147120767Y-66013475D01*
X147179602Y-66008610D01*
X147238572Y-66005356D01*
X147239602Y-66005018D01*
X147245178Y-66003188D01*
X147252104Y-66002617D01*
X147307687Y-65982686D01*
X147338555Y-65972560D01*
X147341622Y-65971600D01*
X147344641Y-65970697D01*
X147396895Y-65955069D01*
X147397384Y-65954767D01*
X147402591Y-65951557D01*
X147408945Y-65949474D01*
X147458591Y-65917036D01*
X147529269Y-65873467D01*
X147548953Y-65863628D01*
X147558489Y-65859879D01*
X147590363Y-65836320D01*
X147598989Y-65830489D01*
X147602342Y-65828422D01*
X147632724Y-65809694D01*
X147639758Y-65802241D01*
X147656222Y-65787644D01*
X147749234Y-65718900D01*
X147759049Y-65714553D01*
X147802092Y-65679833D01*
X147846580Y-65646953D01*
X147846583Y-65646948D01*
X147852431Y-65641309D01*
X147852535Y-65641416D01*
X147863908Y-65629971D01*
X148044657Y-65484176D01*
X148056008Y-65475020D01*
X148062362Y-65471993D01*
X148107214Y-65433716D01*
X148153106Y-65396700D01*
X148153107Y-65396699D01*
X148158712Y-65390816D01*
X148159276Y-65391353D01*
X148168339Y-65381554D01*
X148418488Y-65168082D01*
X148425123Y-65164679D01*
X148468520Y-65125386D01*
X148513059Y-65087378D01*
X148513060Y-65087377D01*
X148518501Y-65081339D01*
X148519022Y-65081808D01*
X148528012Y-65071520D01*
X149228160Y-64437595D01*
X149229404Y-64436949D01*
X149277053Y-64393327D01*
X149324815Y-64350083D01*
X149324817Y-64350078D01*
X149328197Y-64347019D01*
X149332390Y-64342666D01*
X149539173Y-64153361D01*
X149541318Y-64151444D01*
X149838095Y-63892389D01*
X149840303Y-63890510D01*
X150128802Y-63651068D01*
X150132473Y-63648138D01*
X150637809Y-63260427D01*
X150643934Y-63256020D01*
X150993027Y-63020794D01*
X151002412Y-63015062D01*
X151153803Y-62931578D01*
X151183457Y-62915225D01*
X151200495Y-62907446D01*
X151244405Y-62891288D01*
X151265101Y-62885651D01*
X151366063Y-62867352D01*
X151382853Y-62865480D01*
X151496091Y-62860642D01*
X151513712Y-62861144D01*
X151533926Y-62863167D01*
X151546219Y-62865024D01*
X151582751Y-62872435D01*
X151594677Y-62875479D01*
X151643750Y-62890638D01*
X151654457Y-62894492D01*
X151689683Y-62909034D01*
X151716038Y-62919913D01*
X151725365Y-62924223D01*
X151818374Y-62971981D01*
X151825985Y-62976234D01*
X151874701Y-63005750D01*
X151939519Y-63045022D01*
X151945695Y-63049020D01*
X152121322Y-63170227D01*
X152125999Y-63173618D01*
X152334068Y-63332052D01*
X152338428Y-63335530D01*
X152947944Y-63844919D01*
X152950578Y-63847185D01*
X153412947Y-64256529D01*
X153722223Y-64530337D01*
X153735306Y-64541919D01*
X153737595Y-64545263D01*
X153784567Y-64585531D01*
X153830940Y-64626586D01*
X153830943Y-64626587D01*
X153830944Y-64626588D01*
X153832159Y-64627409D01*
X153843492Y-64636046D01*
X154082645Y-64841066D01*
X154390015Y-65104568D01*
X154397217Y-65114095D01*
X154439890Y-65147326D01*
X154442102Y-65149223D01*
X154442111Y-65149229D01*
X154480996Y-65182565D01*
X154480997Y-65182565D01*
X154480999Y-65182567D01*
X154486421Y-65186103D01*
X154502310Y-65195937D01*
X154937856Y-65535119D01*
X154948164Y-65547118D01*
X154989679Y-65575476D01*
X155029350Y-65606370D01*
X155032490Y-65607697D01*
X155054161Y-65619523D01*
X155281252Y-65774644D01*
X155294833Y-65783921D01*
X155294834Y-65783922D01*
X155300275Y-65787639D01*
X155302823Y-65789379D01*
X155322379Y-65807780D01*
X155357003Y-65826389D01*
X155359981Y-65828424D01*
X155389469Y-65848566D01*
X155405685Y-65854256D01*
X155423320Y-65862032D01*
X155514998Y-65911306D01*
X155542665Y-65926176D01*
X155542666Y-65926177D01*
X155544325Y-65927068D01*
X155594809Y-65956210D01*
X155602253Y-65958203D01*
X155609040Y-65961851D01*
X155609048Y-65961855D01*
X155650416Y-65971600D01*
X155663960Y-65974790D01*
X155667569Y-65975698D01*
X155691846Y-65982201D01*
X155707070Y-65987359D01*
X155730463Y-65997017D01*
X155754885Y-66000203D01*
X155770916Y-66003381D01*
X155794708Y-66009754D01*
X155828066Y-66009750D01*
X155861140Y-66014066D01*
X155893670Y-66009744D01*
X155926492Y-66009742D01*
X155948186Y-66003926D01*
X155984333Y-65999763D01*
X155996463Y-66000159D01*
X156031080Y-65992080D01*
X156042897Y-65989922D01*
X156078120Y-65985245D01*
X156091393Y-65979728D01*
X156110786Y-65973482D01*
X156137077Y-65967347D01*
X156159095Y-65964630D01*
X156162416Y-65964136D01*
X156162421Y-65964136D01*
X156213960Y-65949408D01*
X156266160Y-65937228D01*
X156277150Y-65931351D01*
X156496467Y-65868678D01*
X156510135Y-65866440D01*
X156510020Y-65865795D01*
X156518008Y-65864359D01*
X156518019Y-65864359D01*
X156571846Y-65847196D01*
X156575350Y-65846138D01*
X156629632Y-65830627D01*
X156629634Y-65830626D01*
X156637094Y-65827391D01*
X156637355Y-65827994D01*
X156649975Y-65822285D01*
X156968589Y-65720700D01*
X156975781Y-65720158D01*
X157031242Y-65700723D01*
X157087271Y-65682860D01*
X157087273Y-65682858D01*
X157094632Y-65679398D01*
X157094948Y-65680070D01*
X157107067Y-65674153D01*
X158085188Y-65331415D01*
X158085389Y-65331346D01*
X158672396Y-65129696D01*
X158676012Y-65128516D01*
X159153692Y-64980950D01*
X159156064Y-64980245D01*
X159677465Y-64831095D01*
X159679587Y-64830509D01*
X160302696Y-64664597D01*
X160304447Y-64664146D01*
X160966760Y-64499356D01*
X160968352Y-64498972D01*
X161723026Y-64322939D01*
X161724598Y-64322583D01*
X162509846Y-64150536D01*
X162511295Y-64150228D01*
X163359097Y-63975506D01*
X163360466Y-63975232D01*
X164224498Y-63807769D01*
X164225639Y-63807555D01*
X165104397Y-63647510D01*
X165105515Y-63647312D01*
X165980712Y-63497948D01*
X165982744Y-63497620D01*
X167643957Y-63242527D01*
X167646749Y-63242131D01*
X169102158Y-63053705D01*
X169105444Y-63053324D01*
X170298645Y-62931576D01*
X170302715Y-62931230D01*
X171222426Y-62868114D01*
X171227749Y-62867864D01*
X171895972Y-62850869D01*
X171902099Y-62850866D01*
X172231557Y-62858833D01*
G37*
%TD.AperFunction*%
%TD*%
M02*
