%TF.GenerationSoftware,KiCad,Pcbnew,10.0.0*%
%TF.CreationDate,2026-09-27T19:40:20+10:00*%
%TF.ProjectId,USRC_Keychain_Workshop,55535243-5f4b-4657-9963-6861696e5f57,rev?*%
%TF.SameCoordinates,Original*%
%TF.FileFunction,Legend,Top*%
%TF.FilePolarity,Positive*%
%FSLAX46Y46*%
G04 Gerber Fmt 4.6, Leading zero omitted, Abs format (unit mm)*
G04 Created by KiCad (PCBNEW 10.0.0) date 2026-09-27 19:40:20*
%MOMM*%
%LPD*%
G01*
G04 APERTURE LIST*
%ADD10C,0.120000*%
G04 APERTURE END LIST*
%TO.C,D1*%
D10*
X147974992Y-81039998D02*
X145114995Y-81039991D01*
X145114998Y-82959995D02*
X147974998Y-82959995D01*
X145114995Y-81039991D02*
X145114998Y-82959995D01*
%TO.C,D8*%
X188058925Y-88691318D02*
X188555559Y-91507868D01*
X188555559Y-91507868D02*
X190446394Y-91174465D01*
X190446394Y-91174465D02*
X189949754Y-88357919D01*
%TO.C,D9*%
X187915382Y-106039354D02*
X188893553Y-103351835D01*
X186111167Y-105382672D02*
X187915382Y-106039354D01*
X187089348Y-102695151D02*
X186111167Y-105382672D01*
%TO.C,D5*%
X119156119Y-115726303D02*
X120586113Y-118203135D01*
X120586113Y-118203135D02*
X122248884Y-117243130D01*
X122248884Y-117243130D02*
X120818882Y-114766299D01*
%TO.C,D4*%
X114883480Y-105612989D02*
X116687692Y-104956307D01*
X113905309Y-102925470D02*
X114883480Y-105612989D01*
X116687692Y-104956307D02*
X115709514Y-102268786D01*
%TO.C,D2*%
X122327114Y-76880961D02*
X121092958Y-75410150D01*
X120136226Y-78719327D02*
X122327114Y-76880961D01*
X121092958Y-75410150D02*
X118902071Y-77248528D01*
%TO.C,D3*%
X111909582Y-90655614D02*
X113800418Y-90989016D01*
X112406222Y-87839068D02*
X111909582Y-90655614D01*
X113800418Y-90989016D02*
X114297051Y-88172467D01*
%TO.C,D6*%
X157834999Y-81040002D02*
X154974996Y-81040005D01*
X157834999Y-82960005D02*
X157834999Y-81040002D01*
X154974996Y-82960005D02*
X157834999Y-82960005D01*
%TO.C,D7*%
X181672886Y-77880961D02*
X183863774Y-79719327D01*
X182907044Y-76410155D02*
X181672886Y-77880961D01*
X185097929Y-78248527D02*
X182907044Y-76410155D01*
%TO.C,D10*%
X182913887Y-117203135D02*
X184343881Y-114726303D01*
X182681117Y-113766299D02*
X181251114Y-116243131D01*
X181251114Y-116243131D02*
X182913887Y-117203135D01*
%TD*%
M02*
