  0
SECTION
  2
HEADER
  9
$ACADVER
  1
AC1014
  9
$HANDSEED
  5
FFFF
  9
$INSUNITS
 70
     4
  9
$MEASUREMENT
 70
     1
  0
ENDSEC
  0
SECTION
  2
TABLES
  0
TABLE
  2
VPORT
  5
8
330
0
100
AcDbSymbolTable
 70
     4
  0
VPORT
  5
2E
330
8
100
AcDbSymbolTableRecord
100
AcDbViewportTableRecord
  2
*ACTIVE
 70
     0
 10
0.0
 20
0.0
 11
1.0
 21
1.0
 12
210.0
 22
148.5
 13
0.0
 23
0.0
 14
10.0
 24
10.0
 15
10.0
 25
10.0
 16
0.0
 26
0.0
 36
1.0
 17
0.0
 27
0.0
 37
0.0
 40
341.0
 41
1.24
 42
50.0
 43
0.0
 44
0.0
 50
0.0
 51
0.0
 71
     0
 72
   100
 73
     1
 74
     3
 75
     0
 76
     0
 77
     0
 78
     0
  0
ENDTAB
  0
TABLE
  2
LTYPE
  5
5
330
0
100
AcDbSymbolTable
 70
     1
  0
LTYPE
  5
14
330
5
100
AcDbSymbolTableRecord
100
AcDbLinetypeTableRecord
  2
BYBLOCK
 70
     0
  3

 72
    65
 73
     0
 40
0.0
  0
LTYPE
  5
15
330
5
100
AcDbSymbolTableRecord
100
AcDbLinetypeTableRecord
  2
BYLAYER
 70
     0
  3

 72
    65
 73
     0
 40
0.0
  0
LTYPE
  5
16
330
5
100
AcDbSymbolTableRecord
100
AcDbLinetypeTableRecord
  2
CONTINUOUS
 70
     0
  3
Solid line
 72
    65
 73
     0
 40
0.0
  0
ENDTAB
  0
TABLE
  2
LAYER
  5
2
100
AcDbSymbolTable
 70
2
  0
LAYER
  5
50
100
AcDbSymbolTableRecord
100
AcDbLayerTableRecord
  2
0
 70
0
  6
CONTINUOUS
  0
LAYER
  5
51
100
AcDbSymbolTableRecord
100
AcDbLayerTableRecord
  2
Layer_5
 70
0
  6
CONTINUOUS
  0
ENDTAB
  0
TABLE
  2
STYLE
  5
3
330
0
100
AcDbSymbolTable
 70
     1
  0
STYLE
  5
11
330
3
100
AcDbSymbolTableRecord
100
AcDbTextStyleTableRecord
  2
STANDARD
 70
     0
 40
0.0
 41
1.0
 50
0.0
 71
     0
 42
2.5
  3
txt
  4

  0
ENDTAB
  0
TABLE
  2
VIEW
  5
6
330
0
100
AcDbSymbolTable
 70
     0
  0
ENDTAB
  0
TABLE
  2
UCS
  5
7
330
0
100
AcDbSymbolTable
 70
     0
  0
ENDTAB
  0
TABLE
  2
APPID
  5
9
330
0
100
AcDbSymbolTable
 70
     2
  0
APPID
  5
12
330
9
100
AcDbSymbolTableRecord
100
AcDbRegAppTableRecord
  2
ACAD
 70
     0
  0
ENDTAB
  0
TABLE
  2
DIMSTYLE
  5
A
330
0
100
AcDbSymbolTable
 70
     1
  0
DIMSTYLE
105
27
330
A
100
AcDbSymbolTableRecord
100
AcDbDimStyleTableRecord
  2
ISO-25
 70
     0
  3

  4

  5

  6

  7

 40
1.0
 41
2.5
 42
0.625
 43
3.75
 44
1.25
 45
0.0
 46
0.0
 47
0.0
 48
0.0
140
2.5
141
2.5
142
0.0
143
0.03937007874016
144
1.0
145
0.0
146
1.0
147
0.625
 71
     0
 72
     0
 73
     0
 74
     0
 75
     0
 76
     0
 77
     1
 78
     8
170
     0
171
     3
172
     1
173
     0
174
     0
175
     0
176
     0
177
     0
178
     0
270
     2
271
     2
272
     2
273
     2
274
     3
340
11
275
     0
280
     0
281
     0
282
     0
283
     0
284
     8
285
     0
286
     0
287
     3
288
     0
  0
ENDTAB
  0
TABLE
  2
BLOCK_RECORD
  5
1
330
0
100
AcDbSymbolTable
 70
     1
  0
BLOCK_RECORD
  5
1F
330
1
100
AcDbSymbolTableRecord
100
AcDbBlockTableRecord
  2
*MODEL_SPACE
  0
BLOCK_RECORD
  5
1B
330
1
100
AcDbSymbolTableRecord
100
AcDbBlockTableRecord
  2
*PAPER_SPACE
  0
ENDTAB
  0
ENDSEC
  0
SECTION
  2
BLOCKS
  0
BLOCK
  5
20
330
1F
100
AcDbEntity
  8
0
100
AcDbBlockBegin
  2
*MODEL_SPACE
 70
     0
 10
0.0
 20
0.0
 30
0.0
  3
*MODEL_SPACE
  1

  0
ENDBLK
  5
21
330
1F
100
AcDbEntity
  8
0
100
AcDbBlockEnd
  0
BLOCK
  5
1C
330
1B
100
AcDbEntity
 67
     1
  8
0
100
AcDbBlockBegin
  2
*PAPER_SPACE
  1

  0
ENDBLK
  5
1D
330
1B
100
AcDbEntity
 67
     1
  8
0
100
AcDbBlockEnd
  0
ENDSEC
  0
SECTION
  2
ENTITIES
  0
SPLINE
  5
100
100
AcDbEntity
  8
Layer_5
 62
7
100
AcDbSpline
 70
8
 71
3
 72
8
 73
4
 74
0
 40
0
 40
0
 40
0
 40
0
 40
1
 40
1
 40
1
 40
1
 10
133.255260
 20
204.516952
 30
0.0
 10
129.251380
 20
204.526952
 30
0.0
 10
118.858120
 20
202.735572
 30
0.0
 10
114.618670
 20
201.172452
 30
0.0
  0
SPLINE
  5
101
100
AcDbEntity
  8
Layer_5
 62
7
100
AcDbSpline
 70
8
 71
3
 72
8
 73
4
 74
0
 40
0
 40
0
 40
0
 40
0
 40
1
 40
1
 40
1
 40
1
 10
114.618670
 20
201.172452
 30
0.0
 10
113.324160
 20
200.695142
 30
0.0
 10
112.087770
 20
200.304806
 30
0.0
 10
111.871040
 20
200.304806
 30
0.0
  0
SPLINE
  5
102
100
AcDbEntity
  8
Layer_5
 62
7
100
AcDbSpline
 70
8
 71
3
 72
8
 73
4
 74
0
 40
0
 40
0
 40
0
 40
0
 40
1
 40
1
 40
1
 40
1
 10
111.871040
 20
200.304806
 30
0.0
 10
111.654310
 20
200.304806
 30
0.0
 10
110.605970
 20
201.085372
 30
0.0
 10
109.541460
 20
202.039582
 30
0.0
  0
SPLINE
  5
103
100
AcDbEntity
  8
Layer_5
 62
7
100
AcDbSpline
 70
8
 71
3
 72
8
 73
4
 74
0
 40
0
 40
0
 40
0
 40
0
 40
1
 40
1
 40
1
 40
1
 10
109.541460
 20
202.039582
 30
0.0
 10
106.886080
 20
204.419832
 30
0.0
 10
106.491600
 20
204.657932
 30
0.0
 10
105.553590
 20
204.446672
 30
0.0
  0
SPLINE
  5
104
100
AcDbEntity
  8
Layer_5
 62
7
100
AcDbSpline
 70
8
 71
3
 72
8
 73
4
 74
0
 40
0
 40
0
 40
0
 40
0
 40
1
 40
1
 40
1
 40
1
 10
105.553590
 20
204.446672
 30
0.0
 10
105.116590
 20
204.348272
 30
0.0
 10
103.807190
 20
203.375972
 30
0.0
 10
102.643690
 20
202.286082
 30
0.0
  0
SPLINE
  5
105
100
AcDbEntity
  8
Layer_5
 62
7
100
AcDbSpline
 70
8
 71
3
 72
8
 73
4
 74
0
 40
0
 40
0
 40
0
 40
0
 40
1
 40
1
 40
1
 40
1
 10
102.643690
 20
202.286082
 30
0.0
 10
101.480180
 20
201.196202
 30
0.0
 10
100.403230
 20
200.304806
 30
0.0
 10
100.250560
 20
200.304806
 30
0.0
  0
SPLINE
  5
106
100
AcDbEntity
  8
Layer_5
 62
7
100
AcDbSpline
 70
8
 71
3
 72
8
 73
4
 74
0
 40
0
 40
0
 40
0
 40
0
 40
1
 40
1
 40
1
 40
1
 10
100.250560
 20
200.304806
 30
0.0
 10
100.097880
 20
200.304806
 30
0.0
 10
98.569749
 20
200.758122
 30
0.0
 10
96.854899
 20
201.312492
 30
0.0
  0
SPLINE
  5
107
100
AcDbEntity
  8
Layer_5
 62
7
100
AcDbSpline
 70
8
 71
3
 72
8
 73
4
 74
0
 40
0
 40
0
 40
0
 40
0
 40
1
 40
1
 40
1
 40
1
 10
96.854899
 20
201.312492
 30
0.0
 10
91.194879
 20
203.142262
 30
0.0
 10
84.784749
 20
204.233582
 30
0.0
 10
79.104560
 20
204.334532
 30
0.0
  0
SPLINE
  5
108
100
AcDbEntity
  8
Layer_5
 62
7
100
AcDbSpline
 70
8
 71
3
 72
8
 73
4
 74
0
 40
0
 40
0
 40
0
 40
0
 40
1
 40
1
 40
1
 40
1
 10
79.104560
 20
204.334532
 30
0.0
 10
75.783461
 20
204.393532
 30
0.0
 10
75.673665
 20
204.253132
 30
0.0
 10
76.856118
 20
201.443752
 30
0.0
  0
SPLINE
  5
109
100
AcDbEntity
  8
Layer_5
 62
7
100
AcDbSpline
 70
8
 71
3
 72
8
 73
4
 74
0
 40
0
 40
0
 40
0
 40
0
 40
1
 40
1
 40
1
 40
1
 10
76.856118
 20
201.443752
 30
0.0
 10
77.247608
 20
200.513612
 30
0.0
 10
77.568219
 20
199.511666
 30
0.0
 10
77.568219
 20
199.217536
 30
0.0
  0
SPLINE
  5
10a
100
AcDbEntity
  8
Layer_5
 62
7
100
AcDbSpline
 70
8
 71
3
 72
8
 73
4
 74
0
 40
0
 40
0
 40
0
 40
0
 40
1
 40
1
 40
1
 40
1
 10
77.568219
 20
199.217536
 30
0.0
 10
77.568219
 20
198.608916
 30
0.0
 10
77.150377
 20
198.406476
 30
0.0
 10
71.731366
 20
196.390840
 30
0.0
  0
SPLINE
  5
10b
100
AcDbEntity
  8
Layer_5
 62
7
100
AcDbSpline
 70
8
 71
3
 72
8
 73
4
 74
0
 40
0
 40
0
 40
0
 40
0
 40
1
 40
1
 40
1
 40
1
 10
71.731366
 20
196.390840
 30
0.0
 10
67.316937
 20
194.748870
 30
0.0
 10
63.380927
 20
192.496830
 30
0.0
 10
59.985313
 20
189.669800
 30
0.0
  0
SPLINE
  5
10c
100
AcDbEntity
  8
Layer_5
 62
7
100
AcDbSpline
 70
8
 71
3
 72
8
 73
4
 74
0
 40
0
 40
0
 40
0
 40
0
 40
1
 40
1
 40
1
 40
1
 10
59.985313
 20
189.669800
 30
0.0
 10
52.430836
 20
183.380290
 30
0.0
 10
47.709776
 20
175.916590
 30
0.0
 10
46.056965
 20
167.650470
 30
0.0
  0
SPLINE
  5
10d
100
AcDbEntity
  8
Layer_5
 62
7
100
AcDbSpline
 70
8
 71
3
 72
8
 73
4
 74
0
 40
0
 40
0
 40
0
 40
0
 40
1
 40
1
 40
1
 40
1
 10
46.056965
 20
167.650470
 30
0.0
 10
45.302330
 20
163.876350
 30
0.0
 10
45.374722
 20
156.414120
 30
0.0
 10
46.203209
 20
152.547520
 30
0.0
  0
SPLINE
  5
10e
100
AcDbEntity
  8
Layer_5
 62
7
100
AcDbSpline
 70
8
 71
3
 72
8
 73
4
 74
0
 40
0
 40
0
 40
0
 40
0
 40
1
 40
1
 40
1
 40
1
 10
46.203209
 20
152.547520
 30
0.0
 10
46.817639
 20
149.679930
 30
0.0
 10
48.077777
 20
145.735160
 30
0.0
 10
48.535883
 20
145.246160
 30
0.0
  0
SPLINE
  5
10f
100
AcDbEntity
  8
Layer_5
 62
7
100
AcDbSpline
 70
8
 71
3
 72
8
 73
4
 74
0
 40
0
 40
0
 40
0
 40
0
 40
1
 40
1
 40
1
 40
1
 10
48.535883
 20
145.246160
 30
0.0
 10
48.665936
 20
145.107330
 30
0.0
 10
49.342151
 20
145.465590
 30
0.0
 10
50.058787
 20
146.052820
 30
0.0
  0
SPLINE
  5
110
100
AcDbEntity
  8
Layer_5
 62
7
100
AcDbSpline
 70
8
 71
3
 72
8
 73
4
 74
0
 40
0
 40
0
 40
0
 40
0
 40
1
 40
1
 40
1
 40
1
 10
50.058787
 20
146.052820
 30
0.0
 10
50.767627
 20
146.633660
 30
0.0
 10
51.566688
 20
147.066520
 30
0.0
 10
51.834906
 20
147.014520
 30
0.0
  0
SPLINE
  5
111
100
AcDbEntity
  8
Layer_5
 62
7
100
AcDbSpline
 70
8
 71
3
 72
8
 73
4
 74
0
 40
0
 40
0
 40
0
 40
0
 40
1
 40
1
 40
1
 40
1
 10
51.834906
 20
147.014520
 30
0.0
 10
52.371225
 20
146.910470
 30
0.0
 10
52.939417
 20
145.426170
 30
0.0
 10
54.650755
 20
139.659420
 30
0.0
  0
SPLINE
  5
112
100
AcDbEntity
  8
Layer_5
 62
7
100
AcDbSpline
 70
8
 71
3
 72
8
 73
4
 74
0
 40
0
 40
0
 40
0
 40
0
 40
1
 40
1
 40
1
 40
1
 10
54.650755
 20
139.659420
 30
0.0
 10
56.389909
 20
133.798930
 30
0.0
 10
59.343467
 20
126.757730
 30
0.0
 10
60.950629
 20
124.640180
 30
0.0
  0
SPLINE
  5
113
100
AcDbEntity
  8
Layer_5
 62
7
100
AcDbSpline
 70
8
 71
3
 72
8
 73
4
 74
0
 40
0
 40
0
 40
0
 40
0
 40
1
 40
1
 40
1
 40
1
 10
60.950629
 20
124.640180
 30
0.0
 10
62.201768
 20
122.991710
 30
0.0
 10
63.845061
 20
123.443410
 30
0.0
 10
66.885151
 20
126.271600
 30
0.0
  0
SPLINE
  5
114
100
AcDbEntity
  8
Layer_5
 62
7
100
AcDbSpline
 70
8
 71
3
 72
8
 73
4
 74
0
 40
0
 40
0
 40
0
 40
0
 40
1
 40
1
 40
1
 40
1
 10
66.885151
 20
126.271600
 30
0.0
 10
67.862440
 20
127.180770
 30
0.0
 10
69.182227
 20
128.268950
 30
0.0
 10
69.817788
 20
128.689540
 30
0.0
  0
SPLINE
  5
115
100
AcDbEntity
  8
Layer_5
 62
7
100
AcDbSpline
 70
8
 71
3
 72
8
 73
4
 74
0
 40
0
 40
0
 40
0
 40
0
 40
1
 40
1
 40
1
 40
1
 10
69.817788
 20
128.689540
 30
0.0
 10
71.268679
 20
129.649700
 30
0.0
 10
71.721674
 20
129.451740
 30
0.0
 10
73.260472
 20
127.185760
 30
0.0
  0
SPLINE
  5
116
100
AcDbEntity
  8
Layer_5
 62
7
100
AcDbSpline
 70
8
 71
3
 72
8
 73
4
 74
0
 40
0
 40
0
 40
0
 40
0
 40
1
 40
1
 40
1
 40
1
 10
73.260472
 20
127.185760
 30
0.0
 10
74.492980
 20
125.370810
 30
0.0
 10
76.286547
 20
123.700930
 30
0.0
 10
78.456021
 20
122.286830
 30
0.0
  0
SPLINE
  5
117
100
AcDbEntity
  8
Layer_5
 62
7
100
AcDbSpline
 70
8
 71
3
 72
8
 73
4
 74
0
 40
0
 40
0
 40
0
 40
0
 40
1
 40
1
 40
1
 40
1
 10
78.456021
 20
122.286830
 30
0.0
 10
78.354949
 20
122.352730
 30
0.0
 10
78.254685
 20
122.418810
 30
0.0
 10
78.155264
 20
122.485790
 30
0.0
  0
SPLINE
  5
118
100
AcDbEntity
  8
Layer_5
 62
7
100
AcDbSpline
 70
8
 71
3
 72
8
 73
4
 74
0
 40
0
 40
0
 40
0
 40
0
 40
1
 40
1
 40
1
 40
1
 10
78.155264
 20
122.485790
 30
0.0
 10
78.285878
 20
121.523360
 30
0.0
 10
78.502160
 20
120.546830
 30
0.0
 10
78.949530
 20
119.583120
 30
0.0
  0
SPLINE
  5
119
100
AcDbEntity
  8
Layer_5
 62
7
100
AcDbSpline
 70
8
 71
3
 72
8
 73
4
 74
0
 40
0
 40
0
 40
0
 40
0
 40
1
 40
1
 40
1
 40
1
 10
78.949530
 20
119.583120
 30
0.0
 10
79.656144
 20
118.060950
 30
0.0
 10
80.931729
 20
116.588640
 30
0.0
 10
83.309988
 20
115.223700
 30
0.0
  0
SPLINE
  5
11a
100
AcDbEntity
  8
Layer_5
 62
7
100
AcDbSpline
 70
8
 71
3
 72
8
 73
4
 74
0
 40
0
 40
0
 40
0
 40
0
 40
1
 40
1
 40
1
 40
1
 10
83.309988
 20
115.223700
 30
0.0
 10
88.066509
 20
112.493810
 30
0.0
 10
97.246759
 20
110.168110
 30
0.0
 10
106.431060
 20
107.837590
 30
0.0
  0
SPLINE
  5
11b
100
AcDbEntity
  8
Layer_5
 62
7
100
AcDbSpline
 70
8
 71
3
 72
8
 73
4
 74
0
 40
0
 40
0
 40
0
 40
0
 40
1
 40
1
 40
1
 40
1
 10
106.479660
 20
107.837590
 30
0.0
 10
115.663950
 20
110.168110
 30
0.0
 10
124.844210
 20
112.493810
 30
0.0
 10
129.600730
 20
115.223700
 30
0.0
  0
SPLINE
  5
11c
100
AcDbEntity
  8
Layer_5
 62
7
100
AcDbSpline
 70
8
 71
3
 72
8
 73
4
 74
0
 40
0
 40
0
 40
0
 40
0
 40
1
 40
1
 40
1
 40
1
 10
129.600730
 20
115.223700
 30
0.0
 10
131.978980
 20
116.588640
 30
0.0
 10
133.252500
 20
118.060950
 30
0.0
 10
133.959120
 20
119.583120
 30
0.0
  0
SPLINE
  5
11d
100
AcDbEntity
  8
Layer_5
 62
7
100
AcDbSpline
 70
8
 71
3
 72
8
 73
4
 74
0
 40
0
 40
0
 40
0
 40
0
 40
1
 40
1
 40
1
 40
1
 10
133.959120
 20
119.583120
 30
0.0
 10
134.560920
 20
120.879510
 30
0.0
 10
134.745170
 20
122.199370
 30
0.0
 10
134.864490
 20
123.476430
 30
0.0
  0
SPLINE
  5
11e
100
AcDbEntity
  8
Layer_5
 62
7
100
AcDbSpline
 70
8
 71
3
 72
8
 73
4
 74
0
 40
0
 40
0
 40
0
 40
0
 40
1
 40
1
 40
1
 40
1
 10
134.864490
 20
123.476430
 30
0.0
 10
136.241230
 20
124.557820
 30
0.0
 10
137.376700
 20
125.716990
 30
0.0
 10
138.142850
 20
126.865880
 30
0.0
  0
SPLINE
  5
11f
100
AcDbEntity
  8
Layer_5
 62
7
100
AcDbSpline
 70
8
 71
3
 72
8
 73
4
 74
0
 40
0
 40
0
 40
0
 40
0
 40
1
 40
1
 40
1
 40
1
 10
138.142850
 20
126.865880
 30
0.0
 10
139.774630
 20
129.312830
 30
0.0
 10
140.050940
 20
129.501850
 30
0.0
 10
141.169540
 20
128.936560
 30
0.0
  0
SPLINE
  5
120
100
AcDbEntity
  8
Layer_5
 62
7
100
AcDbSpline
 70
8
 71
3
 72
8
 73
4
 74
0
 40
0
 40
0
 40
0
 40
0
 40
1
 40
1
 40
1
 40
1
 10
141.169540
 20
128.936560
 30
0.0
 10
141.657720
 20
128.689850
 30
0.0
 10
142.765720
 20
127.878560
 30
0.0
 10
143.631400
 20
127.133570
 30
0.0
  0
SPLINE
  5
121
100
AcDbEntity
  8
Layer_5
 62
7
100
AcDbSpline
 70
8
 71
3
 72
8
 73
4
 74
0
 40
0
 40
0
 40
0
 40
0
 40
1
 40
1
 40
1
 40
1
 10
143.631400
 20
127.133570
 30
0.0
 10
145.413740
 20
125.599720
 30
0.0
 10
148.438020
 20
123.430430
 30
0.0
 10
148.794390
 20
123.430430
 30
0.0
  0
SPLINE
  5
122
100
AcDbEntity
  8
Layer_5
 62
7
100
AcDbSpline
 70
8
 71
3
 72
8
 73
4
 74
0
 40
0
 40
0
 40
0
 40
0
 40
1
 40
1
 40
1
 40
1
 10
148.794390
 20
123.430430
 30
0.0
 10
149.412540
 20
123.430430
 30
0.0
 10
151.345490
 20
125.625270
 30
0.0
 10
152.243800
 20
127.347510
 30
0.0
  0
SPLINE
  5
123
100
AcDbEntity
  8
Layer_5
 62
7
100
AcDbSpline
 70
8
 71
3
 72
8
 73
4
 74
0
 40
0
 40
0
 40
0
 40
0
 40
1
 40
1
 40
1
 40
1
 10
152.243800
 20
127.347510
 30
0.0
 10
154.242300
 20
131.179030
 30
0.0
 10
158.038010
 20
141.474280
 30
0.0
 10
158.574160
 20
144.517520
 30
0.0
  0
SPLINE
  5
124
100
AcDbEntity
  8
Layer_5
 62
7
100
AcDbSpline
 70
8
 71
3
 72
8
 73
4
 74
0
 40
0
 40
0
 40
0
 40
0
 40
1
 40
1
 40
1
 40
1
 10
158.574160
 20
144.517520
 30
0.0
 10
158.771870
 20
145.639770
 30
0.0
 10
159.472190
 20
147.346800
 30
0.0
 10
159.734810
 20
147.346800
 30
0.0
  0
SPLINE
  5
125
100
AcDbEntity
  8
Layer_5
 62
7
100
AcDbSpline
 70
8
 71
3
 72
8
 73
4
 74
0
 40
0
 40
0
 40
0
 40
0
 40
1
 40
1
 40
1
 40
1
 10
159.734810
 20
147.346800
 30
0.0
 10
159.842730
 20
147.346800
 30
0.0
 10
160.486710
 20
146.834230
 30
0.0
 10
161.166250
 20
146.207850
 30
0.0
  0
SPLINE
  5
126
100
AcDbEntity
  8
Layer_5
 62
7
100
AcDbSpline
 70
8
 71
3
 72
8
 73
4
 74
0
 40
0
 40
0
 40
0
 40
0
 40
1
 40
1
 40
1
 40
1
 10
161.166250
 20
146.207850
 30
0.0
 10
161.845800
 20
145.581460
 30
0.0
 10
162.523900
 20
145.068910
 30
0.0
 10
162.672620
 20
145.068910
 30
0.0
  0
SPLINE
  5
127
100
AcDbEntity
  8
Layer_5
 62
7
100
AcDbSpline
 70
8
 71
3
 72
8
 73
4
 74
0
 40
0
 40
0
 40
0
 40
0
 40
1
 40
1
 40
1
 40
1
 10
162.672620
 20
145.068910
 30
0.0
 10
163.048560
 20
145.068910
 30
0.0
 10
164.223840
 20
147.643780
 30
0.0
 10
165.012530
 20
150.194170
 30
0.0
  0
SPLINE
  5
128
100
AcDbEntity
  8
Layer_5
 62
7
100
AcDbSpline
 70
8
 71
3
 72
8
 73
4
 74
0
 40
0
 40
0
 40
0
 40
0
 40
1
 40
1
 40
1
 40
1
 10
165.012530
 20
150.194170
 30
0.0
 10
165.620850
 20
152.161310
 30
0.0
 10
165.674220
 20
152.845310
 30
0.0
 10
165.681220
 20
158.877880
 30
0.0
  0
SPLINE
  5
129
100
AcDbEntity
  8
Layer_5
 62
7
100
AcDbSpline
 70
8
 71
3
 72
8
 73
4
 74
0
 40
0
 40
0
 40
0
 40
0
 40
1
 40
1
 40
1
 40
1
 10
165.681220
 20
158.877880
 30
0.0
 10
165.691220
 20
166.735670
 30
0.0
 10
165.513130
 20
168.729810
 30
0.0
 10
164.524700
 20
171.863140
 30
0.0
  0
SPLINE
  5
12a
100
AcDbEntity
  8
Layer_5
 62
7
100
AcDbSpline
 70
8
 71
3
 72
8
 73
4
 74
0
 40
0
 40
0
 40
0
 40
0
 40
1
 40
1
 40
1
 40
1
 10
164.524700
 20
171.863140
 30
0.0
 10
162.691540
 20
177.674250
 30
0.0
 10
158.128370
 20
184.405440
 30
0.0
 10
153.161570
 20
188.625420
 30
0.0
  0
SPLINE
  5
12b
100
AcDbEntity
  8
Layer_5
 62
7
100
AcDbSpline
 70
8
 71
3
 72
8
 73
4
 74
0
 40
0
 40
0
 40
0
 40
0
 40
1
 40
1
 40
1
 40
1
 10
153.161570
 20
188.625420
 30
0.0
 10
148.761230
 20
192.364110
 30
0.0
 10
145.039660
 20
194.503330
 30
0.0
 10
139.054420
 20
196.735000
 30
0.0
  0
SPLINE
  5
12c
100
AcDbEntity
  8
Layer_5
 62
7
100
AcDbSpline
 70
8
 71
3
 72
8
 73
4
 74
0
 40
0
 40
0
 40
0
 40
0
 40
1
 40
1
 40
1
 40
1
 10
139.054420
 20
196.735000
 30
0.0
 10
134.261590
 20
198.522086
 30
0.0
 10
134.233260
 20
198.535456
 30
0.0
 10
134.056790
 20
198.995326
 30
0.0
  0
SPLINE
  5
12d
100
AcDbEntity
  8
Layer_5
 62
7
100
AcDbSpline
 70
8
 71
3
 72
8
 73
4
 74
0
 40
0
 40
0
 40
0
 40
0
 40
1
 40
1
 40
1
 40
1
 10
134.056790
 20
198.995326
 30
0.0
 10
133.971590
 20
199.217376
 30
0.0
 10
134.238790
 20
200.110856
 30
0.0
 10
134.650550
 20
200.981252
 30
0.0
  0
SPLINE
  5
12e
100
AcDbEntity
  8
Layer_5
 62
7
100
AcDbSpline
 70
8
 71
3
 72
8
 73
4
 74
0
 40
0
 40
0
 40
0
 40
0
 40
1
 40
1
 40
1
 40
1
 10
134.650550
 20
200.981252
 30
0.0
 10
135.062320
 20
201.851662
 30
0.0
 10
135.423410
 20
202.912452
 30
0.0
 10
135.453610
 20
203.338212
 30
0.0
  0
SPLINE
  5
12f
100
AcDbEntity
  8
Layer_5
 62
7
100
AcDbSpline
 70
8
 71
3
 72
8
 73
4
 74
0
 40
0
 40
0
 40
0
 40
0
 40
1
 40
1
 40
1
 40
1
 10
135.453610
 20
203.338212
 30
0.0
 10
135.499910
 20
203.991092
 30
0.0
 10
135.357510
 20
204.156842
 30
0.0
 10
134.543580
 20
204.396542
 30
0.0
  0
SPLINE
  5
130
100
AcDbEntity
  8
Layer_5
 62
7
100
AcDbSpline
 70
8
 71
3
 72
8
 73
4
 74
0
 40
0
 40
0
 40
0
 40
0
 40
1
 40
1
 40
1
 40
1
 10
134.543580
 20
204.396542
 30
0.0
 10
134.268960
 20
204.477442
 30
0.0
 10
133.827270
 20
204.515512
 30
0.0
 10
133.255290
 20
204.516952
 30
0.0
  0
LWPOLYLINE
  5
131
100
AcDbEntity
  8
Layer_5
 62
7
100
AcDbPolyline
 90
3
 70
0
 10
106.431060
 20
107.837590
 30
0.0
 10
106.455360
 20
108.025690
 30
0.0
 10
106.479660
 20
107.837590
 30
0.0
  0
LWPOLYLINE
  5
132
100
AcDbEntity
  8
Layer_5
 62
7
100
AcDbPolyline
 90
1
 70
1
 10
133.255290
 20
204.516952
 30
0.0
  0
ENDSEC
  0
SECTION
  2
OBJECTS
  0
DICTIONARY
  5
C
330
0
100
AcDbDictionary
  3
ACAD_GROUP
350
D
  3
ACAD_MLINESTYLE
350
17
  0
DICTIONARY
  5
D
330
C
100
AcDbDictionary
  0
DICTIONARY
  5
1A
330
C
100
AcDbDictionary
  0
DICTIONARY
  5
17
330
C
100
AcDbDictionary
  3
STANDARD
350
18
  0
DICTIONARY
  5
19
330
C
100
AcDbDictionary
  0
ENDSEC
  0
EOF
